<svg width="30" height="20" viewBox="0 0 30 20" fill="none" xmlns="http://www.w3.org/2000/svg">
<path d="M0.709473 0H29.9272V10.7966L28.481 12.3434L29.9272 13.72V20H0.709473V9.82213L1.61335 9.1106L0.709473 8.43001V0Z" fill="#0593D0"/>
<path d="M6.38126 13.9371V10.7971H11.2382L11.7593 11.2621L12.2977 10.7971H29.9271V13.7206C29.9271 13.7206 29.4661 13.934 28.9329 13.9371H19.1711L18.5835 13.4421V13.9371H16.6583V13.0922C16.6583 13.0922 16.3953 13.2101 15.8267 13.2101H15.1714V13.9371H12.2564L11.7361 13.4621L11.2077 13.9371L6.38126 13.9371ZM0.709473 8.4305L1.80473 6.68262H3.69888L4.32042 7.66171V6.68262H6.67501L7.04504 7.39028L7.40376 6.68262H17.9734V7.03838C17.9734 7.03838 18.5291 6.68262 19.4422 6.68262L22.8717 6.69084L23.4825 7.6571V6.68262H25.453L25.9953 7.23766V6.68262H27.9838V9.82262H25.9953L25.4755 9.26576V9.8226H22.5805L22.2894 9.32763H21.5111L21.2247 9.8226H19.2614C18.4757 9.8226 17.9734 9.47411 17.9734 9.47411V9.8226H15.0132L14.4257 9.32765V9.82262H3.41828L3.12733 9.32765H2.35149L2.06269 9.8226H0.709473V8.4305Z" fill="#0F0F0F"/>
<path d="M2.19211 7.06925L0.714844 9.42037H1.67662L1.9492 8.94956H3.53382L3.80496 9.42037H4.78794L3.31203 7.06925H2.19211ZM2.73867 7.61641L3.22167 8.43913H2.25426L2.73867 7.61641ZM4.88961 9.41997V7.06885L6.25633 7.07232L7.05128 8.58818L7.82718 7.06885H9.18301V9.41997H8.32433V7.68756L7.4141 9.41997H6.66104L5.74829 7.68756V9.41997H4.88961ZM9.77051 9.41997V7.06885H12.5725V7.59475H10.6382V7.99691H12.5273V8.4919H10.6382V8.90954H12.5725V9.41997H9.77051ZM13.0697 7.06925V9.42037H13.9284V8.58509H14.2899L15.3194 9.42037H16.3688L15.239 8.55416C15.7027 8.52737 16.181 8.25495 16.181 7.832C16.181 7.33725 15.6137 7.06925 14.9805 7.06925H13.0697ZM13.9284 7.59515H14.9099C15.1454 7.59515 15.3166 7.72123 15.3166 7.84263C15.3166 7.99882 15.0947 8.09012 14.9226 8.09012H13.9284V7.59515ZM17.4083 9.41997H16.5315V7.06885H17.4083V9.41997ZM19.4872 9.41997H19.2979C18.3823 9.41997 17.8263 8.92614 17.8263 8.25407C17.8263 7.56538 18.376 7.06885 19.5323 7.06885H20.4814V7.62569H19.4977C19.0283 7.62569 18.6963 7.87645 18.6963 8.25987C18.6963 8.7152 19.0759 8.90643 19.6227 8.90643H19.8487L19.4872 9.41997ZM21.3556 7.06925L19.8784 9.42037H20.8402L21.1127 8.94956H22.6973L22.9685 9.42037H23.9515L22.4756 7.06925H21.3556ZM21.9022 7.61641L22.3852 8.43913H21.4178L21.9022 7.61641ZM24.0517 9.41997V7.06885H25.1434L26.5374 8.54604V7.06885H27.3961V9.41997H26.3397L24.9104 7.90412V9.41997H24.0517ZM6.96853 13.5344V11.1833H9.77051V11.7092H7.83623V12.1114H9.72532V12.6064H7.83623V13.024H9.77051V13.5344H6.96853ZM20.6984 13.5344V11.1833H23.5004V11.7092H21.5661V12.1114H23.4461V12.6064H21.566V13.024H23.5003V13.5344H20.6984ZM9.87927 13.5344L11.2436 12.3734L9.84679 11.1833H10.9286L11.7605 11.919L12.5952 11.1833H13.6346L12.2562 12.3589L13.623 13.5344H12.5414L11.7336 12.8103L10.9456 13.5344H9.87927ZM13.725 11.1837V13.5348H14.6063V12.7924H15.5101C16.2749 12.7924 16.8546 12.5146 16.8546 11.9745C16.8546 11.5271 16.4 11.1837 15.6217 11.1837H13.725ZM14.6063 11.7154H15.5581C15.8052 11.7154 15.9818 11.8191 15.9818 11.9861C15.9818 12.143 15.8061 12.2568 15.5553 12.2568H14.6063V11.7154ZM17.2275 11.1833V13.5344H18.0862V12.6991H18.4477L19.4773 13.5344H20.5266L19.3968 12.6682C19.8605 12.6414 20.3388 12.369 20.3388 11.9461C20.3388 11.4513 19.7715 11.1833 19.1383 11.1833H17.2275ZM18.0862 11.7092H19.0677C19.3032 11.7092 19.4745 11.8353 19.4745 11.9567C19.4745 12.1129 19.2525 12.2042 19.0804 12.2042H18.0862V11.7092ZM23.8981 13.5344V13.024H25.6166C25.8708 13.024 25.9809 12.9299 25.9809 12.8268C25.9809 12.7279 25.8712 12.628 25.6166 12.628H24.84C24.165 12.628 23.789 12.3465 23.789 11.9238C23.789 11.5468 24.1333 11.1833 25.1364 11.1833H26.8085L26.447 11.7123H25.0008C24.7243 11.7123 24.6393 11.8116 24.6393 11.9064C24.6393 12.0039 24.7444 12.1114 24.9556 12.1114H25.7691C26.5215 12.1114 26.8481 12.4036 26.8481 12.7862C26.8481 13.1975 26.4842 13.5344 25.7281 13.5344H23.8981ZM27.0496 13.5344V13.024H28.7681C29.0224 13.024 29.1325 12.9299 29.1325 12.8268C29.1325 12.7279 29.0227 12.628 28.7681 12.628H27.9915C27.3165 12.628 26.9406 12.3465 26.9406 11.9238C26.9406 11.5468 27.2849 11.1833 28.2879 11.1833H29.9601L29.5985 11.7123H28.1524C27.8759 11.7123 27.7908 11.8116 27.7908 11.9064C27.7908 12.0039 27.8959 12.1114 28.1072 12.1114H28.9206C29.6731 12.1114 29.9996 12.4036 29.9996 12.7862C29.9996 13.1975 29.6358 13.5344 28.8797 13.5344H27.0496Z" fill="white"/>
</svg>
