<svg width="42" height="19" viewBox="0 0 42 19" fill="none" xmlns="http://www.w3.org/2000/svg">
<path d="M7.68865 3.18018C7.20377 3.77541 6.42798 4.2449 5.65219 4.17783C5.55521 3.373 5.93503 2.51787 6.37949 1.9897C6.86437 1.37769 7.71289 0.941738 8.39979 0.908203C8.4806 1.74657 8.16544 2.56817 7.68865 3.18018ZM8.39171 4.33712C7.26842 4.27005 6.30676 4.99943 5.7734 4.99943C5.23197 4.99943 4.41577 4.37065 3.52683 4.38742C2.37122 4.40419 1.29643 5.08327 0.7065 6.16476C-0.505678 8.32774 0.391334 11.5303 1.56311 13.2909C2.13687 14.1628 2.82377 15.1185 3.72886 15.085C4.58547 15.0514 4.92488 14.5065 5.95927 14.5065C7.00174 14.5065 7.30075 15.085 8.20584 15.0682C9.14326 15.0514 9.73319 14.1963 10.307 13.3244C10.9615 12.3351 11.2282 11.371 11.2444 11.3207C11.2282 11.3039 9.43418 10.5913 9.41802 8.44511C9.40186 6.65101 10.8322 5.79588 10.8969 5.74557C10.0888 4.50479 8.82809 4.37065 8.39171 4.33712ZM14.8809 1.90586V14.976H16.8365V10.5075H19.5437C22.0166 10.5075 23.754 8.74692 23.754 6.19829C23.754 3.64966 22.0489 1.90586 19.6084 1.90586H14.8809ZM16.8365 3.61613H19.0912C20.7883 3.61613 21.758 4.5551 21.758 6.20668C21.758 7.85826 20.7883 8.80561 19.0831 8.80561H16.8365V3.61613ZM27.3259 15.0766C28.5543 15.0766 29.6937 14.431 30.2109 13.4082H30.2513V14.976H32.0615V8.47026C32.0615 6.58394 30.6069 5.36831 28.3684 5.36831C26.2915 5.36831 24.7561 6.60071 24.6995 8.29421H26.4612C26.6067 7.48938 27.3259 6.96121 28.3118 6.96121C29.5079 6.96121 30.1786 7.53968 30.1786 8.6044V9.3254L27.7381 9.4763C25.4673 9.61883 24.2389 10.5829 24.2389 12.2597C24.2389 13.9532 25.5077 15.0766 27.3259 15.0766ZM27.8512 13.5256C26.8087 13.5256 26.1461 13.0058 26.1461 12.2094C26.1461 11.3878 26.7845 10.9099 28.0048 10.8345L30.1786 10.6919V11.4297C30.1786 12.6537 29.1765 13.5256 27.8512 13.5256ZM34.4778 18.5307C36.3849 18.5307 37.282 17.7761 38.0658 15.4874L41.5003 5.49407H39.5124L37.2092 13.2154H37.1688L34.8657 5.49407H32.8211L36.1344 15.0095L35.9566 15.588C35.6576 16.5689 35.1728 16.9461 34.3081 16.9461C34.1545 16.9461 33.8555 16.9294 33.7343 16.9126V18.4804C33.8475 18.5139 34.3323 18.5307 34.4778 18.5307Z" fill="#0F0F0F"/>
</svg>
