<svg width="48" height="48" viewBox="0 0 48 48" fill="none" xmlns="http://www.w3.org/2000/svg">
<path fill-rule="evenodd" clip-rule="evenodd" d="M45.8906 16.5289H44.5786L44.7082 11.9558L39.0254 8.88638L35.9559 3.20362L29.4998 3.38663L24 0L18.5002 3.38653L12.0441 3.20353L8.97459 8.88628L3.29184 11.9558L3.4215 16.5288H2.10938C0.946219 16.5288 0 17.4751 0 18.6382V29.185C0 30.3481 0.946219 31.2944 2.10938 31.2944H3.4215L3.29184 35.8674L8.97459 38.9369L12.0442 44.6197L18.5003 44.4367L24 47.8234L29.4997 44.4368L35.9558 44.6198L39.0253 38.9371L44.7081 35.8676L44.5785 31.2946H45.8906C47.0537 31.2946 48 30.3483 48 29.1852V18.6383C48 17.4752 47.0537 16.5289 45.8906 16.5289ZM4.72209 12.7816L10.0123 9.924L12.8698 4.63378L18.8801 4.80413L24 1.6515L29.1199 4.80422L35.13 4.63388L37.9876 9.9241L43.2778 12.7817L43.1717 16.529H39.9552C37.0805 10.3201 30.8689 6.33356 24 6.33356C20.8092 6.33356 17.684 7.19794 14.962 8.83313L15.6863 10.0385C18.1895 8.53472 21.0643 7.73981 24 7.73981C30.0987 7.73981 35.6343 11.1558 38.391 16.5289H9.609C10.776 14.2582 12.4705 12.2863 14.5568 10.7828L13.7345 9.64181C11.2733 11.4157 9.31509 13.7903 8.04591 16.5289H4.82831L4.72209 12.7816ZM43.2779 35.0418L37.9877 37.8994L35.1301 43.1896L29.12 43.0193L24 46.1719L18.8801 43.0192L12.8698 43.1895L10.0123 37.8993L4.72209 35.0417L4.82831 31.2944H8.04478C10.9195 37.5033 17.1311 41.4898 24 41.4898C30.869 41.4898 37.0805 37.5033 39.9552 31.2945H43.1717L43.2779 35.0418ZM46.5938 29.1851C46.5938 29.5729 46.2784 29.8883 45.8906 29.8883H26.1094V31.2945H38.3909C35.6343 36.6676 30.0988 40.0836 24 40.0836C17.9012 40.0836 12.3656 36.6676 9.609 31.2945H21.8906V29.8883H2.10938C1.72172 29.8883 1.40625 29.5729 1.40625 29.1851V18.6383C1.40625 18.2505 1.72172 17.9351 2.10938 17.9351H45.8906C46.2784 17.9351 46.5938 18.2505 46.5938 18.6383V29.1851ZM24.7031 29.8882V31.2945H23.2969V29.8882H24.7031ZM29.6249 10.5522H28.2187V11.9585H29.6249V10.5522ZM31.0312 11.9586H32.4374V13.3648H31.0312V11.9586ZM20.1616 27.0909L22.7223 20.3674L23.9319 20.366L26.4709 27.0937L25.1552 27.5902L24.551 25.989H22.0861L21.4758 27.5915L20.1616 27.0909ZM23.3241 22.7382L22.6216 24.5827H24.0202L23.3241 22.7382ZM33.2724 24.6227L30.5982 20.3668L29.2566 20.3663V27.4566H30.6628V23.1128L33.337 27.3688H34.6786V20.3559H33.2724V24.6227ZM37.4164 20.3559H39.6845C41.4398 20.3559 42.6191 21.7489 42.6191 23.8219C42.6191 25.801 41.4093 27.2586 39.7426 27.2879L39.7364 27.288H37.4164V20.3559ZM38.8226 25.8818H39.7234C40.4418 25.866 41.2129 25.2157 41.2129 23.8221C41.2129 22.3033 40.4233 21.7623 39.6845 21.7623H38.8226V25.8818ZM9.42412 23.4805C9.63103 23.1639 9.75141 22.7859 9.75141 22.3803C9.75141 21.2701 8.84822 20.3669 7.73794 20.3669H5.38087V27.4674H8.02697C9.25978 27.4674 10.2628 26.4614 10.2628 25.2247C10.2628 24.5201 9.93516 23.8906 9.42412 23.4805ZM6.78713 21.7732H7.73803C8.07281 21.7732 8.34525 22.0455 8.34525 22.3803C8.34525 22.7159 8.07291 22.989 7.73812 22.989H6.78713V21.7732ZM8.02697 26.0613H6.78713V24.3952H8.02697C8.48438 24.3952 8.85656 24.7674 8.85656 25.2248C8.85656 25.6861 8.48438 26.0613 8.02697 26.0613ZM15.2187 20.367C16.4686 20.367 17.4854 21.3462 17.4854 22.55C17.4854 23.5406 16.7964 24.3786 15.856 24.6446L17.6003 26.7066L16.5267 27.6149L14.4071 25.1092L14.4067 27.4676L13.0004 27.4674L13.0016 20.367H15.2187ZM15.2186 21.7731H14.4076L14.4072 23.331L15.2148 23.3266C15.685 23.3266 16.0791 22.9709 16.0791 22.5499C16.0791 22.1288 15.685 21.7731 15.2186 21.7731Z" fill="#5A9C17"/>
</svg>
