<svg width="31" height="20" viewBox="0 0 31 20" fill="none" xmlns="http://www.w3.org/2000/svg">
<path d="M30.6266 15.7723V15.3936H30.5318L30.4221 15.6535L30.313 15.3936H30.2179V15.7723H30.2853V15.487L30.3878 15.7332H30.4576L30.5601 15.4863V15.7723H30.6269H30.6266ZM30.0251 15.7723V15.4584H30.1465V15.3945H29.8364V15.4584H29.9578V15.7723H30.0245H30.0251Z" fill="#F79410"/>
<path d="M19.8522 17.3919H11.6484V2.08154H19.8523L19.8522 17.3919Z" fill="#FF5F00"/>
<path d="M12.1684 9.73707C12.1684 6.63136 13.5687 3.86478 15.7493 2.08188C14.0987 0.730321 12.0572 -0.00321466 9.95527 1.05904e-05C4.77737 1.05904e-05 0.580078 4.35938 0.580078 9.73707C0.580078 15.1148 4.77737 19.4741 9.95527 19.4741C12.0573 19.4774 14.0988 18.7439 15.7494 17.3923C13.569 15.6097 12.1684 12.8429 12.1684 9.73707Z" fill="#EB001B"/>
<path d="M30.9201 9.73707C30.9201 15.1148 26.7228 19.4741 21.5449 19.4741C19.4427 19.4773 17.4009 18.7438 15.75 17.3923C17.9312 15.6094 19.3315 12.8429 19.3315 9.73707C19.3315 6.63121 17.9312 3.86478 15.75 2.08188C17.4009 0.730362 19.4426 -0.00315813 21.5448 1.0221e-05C26.7227 1.0221e-05 30.92 4.35938 30.92 9.73707" fill="#F79E1B"/>
</svg>
