<svg width="25" height="26" viewBox="0 0 25 26" fill="none" xmlns="http://www.w3.org/2000/svg">
<path fill-rule="evenodd" clip-rule="evenodd" d="M5.5959 2.76415C5.69001 2.63499 5.84019 2.55859 6 2.55859H18C18.1598 2.55859 18.31 2.63499 18.4041 2.76415L21.4008 6.87691C21.4577 6.95304 21.4934 7.0459 21.4992 7.14678C21.4997 7.15644 21.5 7.16613 21.5 7.17584V21.5862C21.5 22.2602 21.24 22.9094 20.7728 23.3903C20.3052 23.8717 19.6678 24.1448 19 24.1448H5C4.33222 24.1448 3.69482 23.8717 3.22716 23.3903C2.75999 22.9094 2.5 22.2602 2.5 21.5862V7.17584C2.5 7.06377 2.53687 6.96031 2.59915 6.87693L5.5959 2.76415ZM17.7457 3.55859L20.017 6.67584H3.98297L6.25433 3.55859H17.7457ZM3.5 21.5862V7.67584H20.5V21.5862C20.5 22.0042 20.3386 22.4022 20.0556 22.6935C19.7731 22.9842 19.3931 23.1448 19 23.1448H5C4.60691 23.1448 4.2269 22.9842 3.94441 22.6935C3.66144 22.4022 3.5 22.0042 3.5 21.5862ZM8.5 11.2931C8.5 11.017 8.27614 10.7931 8 10.7931C7.72386 10.7931 7.5 11.017 7.5 11.2931C7.5 12.5131 7.9707 13.6859 8.81295 14.5528C9.65568 15.4203 10.8018 15.9103 12 15.9103C13.1982 15.9103 14.3443 15.4203 15.187 14.5528C16.0293 13.6859 16.5 12.5131 16.5 11.2931C16.5 11.017 16.2761 10.7931 16 10.7931C15.7239 10.7931 15.5 11.017 15.5 11.2931C15.5 12.257 15.1278 13.1787 14.4698 13.856C13.8122 14.5329 12.9235 14.9103 12 14.9103C11.0765 14.9103 10.1878 14.5329 9.5302 13.856C8.87215 13.1787 8.5 12.257 8.5 11.2931Z" fill="#0F0F0F"/>
<circle cx="20" cy="5" r="5" fill="#2F4858"/>
</svg>
