<svg width="60" height="60" viewBox="0 0 60 60" fill="none" xmlns="http://www.w3.org/2000/svg">
<path fill-rule="evenodd" clip-rule="evenodd" d="M7.0609 39.7913H6.81738C5.0093 39.7913 3.27527 39.073 1.99676 37.7945C0.718242 36.516 0 34.782 0 32.9739V27.6768C0 25.8687 0.718242 24.1346 1.99676 22.8561C3.27527 21.5776 5.0093 20.8594 6.81738 20.8594H9.19922V20.8008C9.19922 9.31277 18.5121 0 30 0C41.488 0 50.8008 9.31277 50.8008 20.8008V20.8594H53.1826C54.9907 20.8594 56.7247 21.5776 58.0032 22.8561C59.2818 24.1346 60 25.8687 60 27.6768V32.9739C60 34.782 59.2818 36.516 58.0032 37.7945C56.7247 39.073 54.9907 39.7913 53.1826 39.7913H49.88C49.5648 39.7913 49.2625 39.666 49.0396 39.4431C48.8167 39.2202 48.6914 38.9179 48.6914 38.6026V20.8008C48.6914 10.4779 40.323 2.10938 30 2.10938C19.6771 2.10938 11.3086 10.4779 11.3086 20.8008V38.6026C11.3086 38.9179 11.1834 39.2202 10.9605 39.4431C10.7375 39.666 10.4353 39.7913 10.1201 39.7913H9.17039C9.22441 46.4638 14.6496 51.8555 21.334 51.8555H23.3747C23.5755 50.9283 24.0391 50.0698 24.7205 49.3884C25.6545 48.4545 26.9212 47.9297 28.2422 47.9297H31.7578C34.5084 47.9297 36.7383 50.1595 36.7383 52.9102C36.7383 55.6608 34.5084 57.8906 31.7578 57.8906H28.2422C25.8536 57.8906 23.8576 56.2091 23.3736 53.9648H21.334C13.4841 53.9648 7.11422 47.6279 7.0609 39.7913ZM34.6289 52.9102C34.6289 51.3245 33.3435 50.0391 31.7578 50.0391H28.2422C27.4807 50.0391 26.7505 50.3415 26.212 50.88C25.6736 51.4185 25.3711 52.1487 25.3711 52.9102C25.3711 54.4958 26.6565 55.7812 28.2422 55.7812H31.7578C33.3435 55.7812 34.6289 54.4958 34.6289 52.9102ZM9.19922 22.9688H6.81738C5.56875 22.9688 4.37121 23.4648 3.48832 24.3477C2.60543 25.2306 2.10938 26.4281 2.10938 27.6768V32.9739C2.10938 34.2225 2.60543 35.42 3.48832 36.3029C4.37121 37.1858 5.56875 37.6819 6.81738 37.6819H9.19922V22.9688ZM50.8008 22.9688V37.6819H53.1826C54.4313 37.6819 55.6288 37.1858 56.5117 36.3029C57.3947 35.42 57.8906 34.2225 57.8906 32.9739V27.6768C57.8906 26.4281 57.3947 25.2306 56.5117 24.3477C55.6288 23.4648 54.4313 22.9688 53.1826 22.9688H50.8008Z" fill="#2F4858"/>
</svg>
