<svg width="60" height="37" viewBox="0 0 60 37" fill="none" xmlns="http://www.w3.org/2000/svg">
<path fill-rule="evenodd" clip-rule="evenodd" d="M7.5 22.0559C8.01773 22.0559 8.4375 22.4757 8.4375 22.9934V29.5625H9.92906C10.2967 26.3109 13.2306 23.973 16.4821 24.3405C19.2273 24.6508 21.3936 26.8173 21.7041 29.5625H41.25V2.375H8.4375V5.32344C8.4375 5.84117 8.01773 6.26094 7.5 6.26094C6.98227 6.26094 6.5625 5.84117 6.5625 5.32344V1.4375C6.5625 0.919766 6.98227 0.5 7.5 0.5H42.1875C42.7052 0.5 43.125 0.919766 43.125 1.4375V2.375H53.8612C56.2147 2.37805 58.122 4.28516 58.125 6.63875V8C58.125 8.51773 57.7052 8.9375 57.1875 8.9375H56.0972L56.8125 17.5297C58.6846 18.017 59.9934 19.7042 60 21.6387V29.5625C60 30.0802 59.5802 30.5 59.0625 30.5H57.1641C56.9071 33.8525 53.9809 36.3619 50.6284 36.105C47.6331 35.8754 45.2531 33.4953 45.0234 30.5C45.0192 30.5 45.0155 30.5012 45.0117 30.5023L45.0117 30.5023C45.008 30.5035 45.0042 30.5047 45 30.5047H43.125C43.125 31.0224 42.7052 31.4422 42.1875 31.4422H21.6188C20.9509 34.6467 17.8117 36.703 14.6072 36.0351C12.2989 35.5541 10.4954 33.7504 10.0144 31.4422H7.5C6.98227 31.4422 6.5625 31.0224 6.5625 30.5047V22.9934C6.5625 22.4756 6.98227 22.0559 7.5 22.0559ZM51.0938 34.25C53.4237 34.25 55.3125 32.3612 55.3125 30.0312C55.3125 27.7013 53.4237 25.8125 51.0938 25.8125C48.7638 25.8125 46.875 27.7013 46.875 30.0312C46.8776 32.3601 48.7649 34.2474 51.0938 34.25ZM43.125 28.625H45C45.055 28.6307 45.1093 28.6416 45.1622 28.6578C45.9162 25.3821 49.1829 23.3379 52.4585 24.0918C54.7172 24.6117 56.4845 26.3693 57.0169 28.625H58.125V21.6387C58.1235 20.3202 57.0548 19.2515 55.7362 19.25H43.125V28.625ZM43.125 17.375H54.9187L54.2156 8.9375H43.125V17.375ZM43.125 7.0625H56.25V6.63875C56.2485 5.32016 55.1798 4.25152 53.8612 4.25H43.125V7.0625ZM11.7709 30.4625C11.8914 32.6073 13.6676 34.2836 15.8156 34.28H15.8166C17.7836 34.2757 19.4631 32.859 19.7991 30.9209C19.6348 30.6338 19.6535 30.2771 19.8469 30.0087C19.7216 27.7787 17.8121 26.0723 15.582 26.1976C13.3519 26.3229 11.6455 28.2323 11.7709 30.4625ZM8.4375 8H21.5625C22.0802 8 22.5 8.41977 22.5 8.9375C22.5 9.45523 22.0802 9.875 21.5625 9.875H8.4375C7.91977 9.875 7.5 9.45523 7.5 8.9375C7.5 8.41977 7.91977 8 8.4375 8ZM27.1875 18.3125H6.5625C6.04477 18.3125 5.625 18.7323 5.625 19.25C5.625 19.7677 6.04477 20.1875 6.5625 20.1875H27.1875C27.7052 20.1875 28.125 19.7677 28.125 19.25C28.125 18.7323 27.7052 18.3125 27.1875 18.3125ZM8.4375 12.6875H18.75C19.2677 12.6875 19.6875 13.1073 19.6875 13.625C19.6875 14.1427 19.2677 14.5625 18.75 14.5625H8.4375C7.91977 14.5625 7.5 14.1427 7.5 13.625C7.5 13.1073 7.91977 12.6875 8.4375 12.6875ZM2.8125 9.875H4.6875C5.20523 9.875 5.625 9.45523 5.625 8.9375C5.625 8.41977 5.20523 8 4.6875 8H2.8125C2.29477 8 1.875 8.41977 1.875 8.9375C1.875 9.45523 2.29477 9.875 2.8125 9.875ZM3.75 18.3125C4.26773 18.3125 4.6875 18.7323 4.6875 19.25C4.6875 19.7677 4.26773 20.1875 3.75 20.1875H1.875C1.35727 20.1875 0.9375 19.7677 0.9375 19.25C0.9375 18.7323 1.35727 18.3125 1.875 18.3125H3.75ZM4.6875 12.6875H0.9375C0.419765 12.6875 0 13.1073 0 13.625C0 14.1427 0.419765 14.5625 0.9375 14.5625H4.6875C5.20523 14.5625 5.625 14.1427 5.625 13.625C5.625 13.1073 5.20523 12.6875 4.6875 12.6875Z" fill="#2F4858"/>
</svg>
