<svg width="24" height="15" viewBox="0 0 24 15" fill="none" xmlns="http://www.w3.org/2000/svg">
<path fill-rule="evenodd" clip-rule="evenodd" d="M21 8.62237C20.7929 8.62237 20.625 8.79028 20.625 8.99737V11.625H20.0284C19.8813 10.3244 18.7078 9.3892 17.4072 9.5362C16.3091 9.66033 15.4425 10.5269 15.3184 11.625H7.5V0.75H20.625V1.92938C20.625 2.13647 20.7929 2.30438 21 2.30438C21.2071 2.30438 21.375 2.13647 21.375 1.92938V0.375C21.375 0.167906 21.2071 0 21 0H7.125C6.91791 0 6.75 0.167906 6.75 0.375V0.75H2.4555C1.51411 0.751219 0.751219 1.51406 0.75 2.4555V3C0.75 3.20709 0.917906 3.375 1.125 3.375H1.56113L1.275 6.81188C0.526172 7.00678 0.002625 7.68169 0 8.4555V11.625C0 11.8321 0.167906 12 0.375 12H1.13438C1.23717 13.341 2.40764 14.3448 3.74864 14.242C4.94677 14.1502 5.89875 13.1981 5.99063 12C5.99231 12 5.99381 12.0005 5.99531 12.0009C5.99681 12.0014 5.99831 12.0019 6 12.0019H6.75C6.75 12.209 6.91791 12.3769 7.125 12.3769H15.3525C15.6196 13.6587 16.8753 14.4812 18.1571 14.214C19.0804 14.0216 19.8018 13.3002 19.9943 12.3769H21C21.2071 12.3769 21.375 12.209 21.375 12.0019V8.99737C21.375 8.79023 21.2071 8.62237 21 8.62237ZM3.5625 13.5C2.63053 13.5 1.875 12.7445 1.875 11.8125C1.875 10.8805 2.63053 10.125 3.5625 10.125C4.49447 10.125 5.25 10.8805 5.25 11.8125C5.24897 12.744 4.49405 13.499 3.5625 13.5ZM6.75 11.25H6C5.97802 11.2523 5.95627 11.2567 5.93512 11.2631C5.63353 9.95283 4.32684 9.13514 3.01659 9.43673C2.11312 9.64467 1.4062 10.3477 1.19325 11.25H0.75V8.4555C0.750609 7.92806 1.17806 7.50061 1.7055 7.5H6.75V11.25ZM6.75 6.75H2.0325L2.31375 3.375H6.75V6.75ZM6.75 2.625H1.5V2.4555C1.50061 1.92806 1.92806 1.50061 2.4555 1.5H6.75V2.625ZM19.2916 11.985C19.2435 12.8429 18.533 13.5135 17.6737 13.512H17.6734C16.8866 13.5103 16.2148 12.9436 16.0804 12.1684C16.1461 12.0535 16.1386 11.9108 16.0613 11.8035C16.1114 10.9115 16.8751 10.2289 17.7672 10.279C18.6593 10.3291 19.3418 11.0929 19.2916 11.985ZM20.625 3H15.375C15.1679 3 15 3.16791 15 3.375C15 3.58209 15.1679 3.75 15.375 3.75H20.625C20.8321 3.75 21 3.58209 21 3.375C21 3.16791 20.8321 3 20.625 3ZM13.125 7.125H21.375C21.5821 7.125 21.75 7.29291 21.75 7.5C21.75 7.70709 21.5821 7.875 21.375 7.875H13.125C12.9179 7.875 12.75 7.70709 12.75 7.5C12.75 7.29291 12.9179 7.125 13.125 7.125ZM20.625 4.875H16.5C16.2929 4.875 16.125 5.04291 16.125 5.25C16.125 5.45709 16.2929 5.625 16.5 5.625H20.625C20.8321 5.625 21 5.45709 21 5.25C21 5.04291 20.8321 4.875 20.625 4.875ZM22.875 3.75H22.125C21.9179 3.75 21.75 3.58209 21.75 3.375C21.75 3.16791 21.9179 3 22.125 3H22.875C23.0821 3 23.25 3.16791 23.25 3.375C23.25 3.58209 23.0821 3.75 22.875 3.75ZM22.5 7.125C22.2929 7.125 22.125 7.29291 22.125 7.5C22.125 7.70709 22.2929 7.875 22.5 7.875H23.25C23.4571 7.875 23.625 7.70709 23.625 7.5C23.625 7.29291 23.4571 7.125 23.25 7.125H22.5ZM22.125 4.875H23.625C23.8321 4.875 24 5.04291 24 5.25C24 5.45709 23.8321 5.625 23.625 5.625H22.125C21.9179 5.625 21.75 5.45709 21.75 5.25C21.75 5.04291 21.9179 4.875 22.125 4.875Z" fill="#2F4858"/>
</svg>
