<svg width="25" height="23" viewBox="0 0 25 23" fill="none" xmlns="http://www.w3.org/2000/svg">
<path d="M24.1566 12.8335C24.1566 16.0655 22.0675 18.7101 19.5142 18.7101H16.7904C16.0829 18.7101 15.4106 18.507 14.8092 18.1443C13.0724 17.0988 12.1479 14.9293 12.1479 12.8335C12.1479 11.2983 12.7181 9.92377 13.6042 9.033C14.1138 8.52008 14.5144 7.8708 14.787 7.14426C14.9836 6.62124 15.1136 6.05875 15.1714 5.477C15.194 5.2501 15.2054 5.02001 15.2054 4.78825C15.2054 2.73677 16.5319 1.05847 18.1524 1.05847C18.9627 1.05847 19.6995 1.47805 20.2336 2.15408C20.7676 2.8303 21.0991 3.7626 21.0991 4.78825C21.0991 6.4368 21.6812 8.00716 22.7007 9.033C23.1433 9.47839 23.5075 10.0448 23.7608 10.6915C24.0141 11.3387 24.1566 12.066 24.1566 12.8335Z" fill="#35E298"/>
<path d="M17.9019 10.9704C17.8658 12.0819 17.5455 13.1706 16.999 14.1632L14.8092 18.1443C13.0724 17.0989 12.1479 14.9293 12.1479 12.8335C12.1479 11.2983 12.7183 9.92383 13.6044 9.03305C14.1138 8.52013 14.5144 7.87085 14.7872 7.14431C14.9836 6.62129 15.1136 6.05881 15.1714 5.47705C16.0392 5.94264 16.9653 6.80947 17.519 8.41856C17.8046 9.24873 17.9303 10.1113 17.9019 10.9704Z" fill="#1AB975"/>
<path d="M21.7436 13.0357C21.7436 14.9677 20.1775 16.5337 18.2456 16.5337C16.3136 16.5337 14.7476 14.9677 14.7476 13.0357C14.7476 11.1038 16.3136 9.53772 18.2456 9.53772C20.1775 9.53772 21.7436 11.1038 21.7436 13.0357Z" fill="#AE583E"/>
<path d="M17.8094 9.5647C14.7218 9.94892 13.648 13.8931 16.0996 15.7983L16.9988 14.1632C17.5454 13.1706 17.8657 12.082 17.9018 10.9704C17.9171 10.5009 17.8868 10.0303 17.8094 9.5647Z" fill="#7C3F2C"/>
<path d="M7.90846 3.62311C7.7257 2.7907 6.78274 -0.223574 2.7995 0.462186C2.68333 0.482201 2.61861 0.607905 2.6693 0.714155C3.08177 1.5808 4.83208 4.79242 7.74534 3.89884C7.86319 3.86274 7.93484 3.74358 7.90846 3.62311Z" fill="#1ED688"/>
<path d="M7.74508 3.89875C4.83201 4.79252 3.08188 1.5809 2.66923 0.714067C2.61872 0.60763 2.68326 0.481926 2.79923 0.462098C3.14024 0.403361 3.45955 0.371561 3.75754 0.363892C4.36866 1.4421 5.73681 3.32411 7.78642 3.17913C7.84479 3.3574 7.88369 3.5106 7.9082 3.62321C7.93476 3.74368 7.86293 3.86246 7.74508 3.89875Z" fill="#1AB975"/>
<path d="M14.9415 14.1631L12.3997 18.7843C11.7424 19.8613 10.2469 20.2525 9.06672 19.6372C8.46196 19.3217 7.74833 19.3217 7.14301 19.6372C5.98997 20.2383 4.48527 19.8887 3.81036 18.7843L1.26822 14.1631C0.226863 12.2707 0.122297 10.2405 0.748011 8.41837C1.52917 6.14822 3.05296 5.35602 4.10554 5.08254C4.58871 4.95684 4.97293 4.94037 5.14091 4.94037C5.20077 4.94037 5.23294 4.94224 5.23294 4.94224C5.70882 4.94224 6.16487 5.02231 6.5852 5.16821C7.00514 5.31412 7.39049 5.52643 7.72514 5.79093C7.83438 5.88428 7.96981 5.93141 8.10505 5.93141C8.24048 5.93141 8.37573 5.88428 8.48516 5.79093C8.81981 5.52643 9.20459 5.31412 9.62491 5.16821C10.0454 5.02231 10.5009 4.94224 10.9772 4.94224C10.9772 4.94224 14.1955 4.73723 15.4617 8.41837C16.0925 10.2523 15.9771 12.2828 14.9415 14.1631Z" fill="#C42D2D"/>
<path d="M14.9406 14.1631L12.3988 18.7843C11.7415 19.8613 10.246 20.2525 9.06581 19.6372C8.46105 19.3217 7.74742 19.3217 7.14209 19.6372C6.81736 19.8064 6.47036 19.8978 6.13123 19.9218C6.11177 19.883 4.09359 15.4443 3.5788 14.3128C2.03986 10.9295 2.63658 7.15927 4.10463 5.08254C4.5878 4.95684 4.97202 4.94037 5.14 4.94037C5.19986 4.94037 5.23203 4.94224 5.23203 4.94224C5.70791 4.94224 6.16396 5.02231 6.58428 5.16821C7.00423 5.31412 7.38957 5.52643 7.72422 5.79093C7.83347 5.88428 7.9689 5.93141 8.10414 5.93141C8.23957 5.93141 8.37481 5.88428 8.48424 5.79093C8.81889 5.52643 9.20367 5.31412 9.624 5.16821C10.0445 5.02231 10.5 4.94224 10.9762 4.94224C10.9762 4.94224 14.1946 4.73723 15.4608 8.41837C16.0916 10.2523 15.9762 12.2828 14.9406 14.1631Z" fill="#F44545"/>
<path d="M3.51976 15.3132C3.11422 15.5272 2.95914 16.0293 3.17314 16.4348C3.42399 16.9103 3.74124 17.3232 4.09216 17.6808L1.3235 17.3724C0.867821 17.3215 0.457413 17.6498 0.406533 18.1053C0.35584 18.5609 0.683942 18.9713 1.13962 19.0222L3.90828 19.3307C3.4874 19.6023 3.08691 19.9353 2.73748 20.344C2.43949 20.6923 2.48046 21.2162 2.82876 21.5142C3.17726 21.8122 3.70102 21.7712 3.99901 21.4229C4.94759 20.3139 6.66685 19.8384 8.12198 19.7907C8.69943 19.7721 9.08291 19.181 8.86218 18.6459C8.7621 18.4031 8.54698 18.2126 8.27574 18.152C8.24937 18.146 5.61875 17.5123 4.64118 15.66C4.42719 15.2545 3.92512 15.0994 3.51976 15.3132Z" fill="#1AB975"/>
<path d="M24.0647 20.7459C23.9463 21.8091 23.0483 22.6144 21.9781 22.6163C15.8429 22.6282 20.1309 22.62 10.256 22.6389C8.20453 22.6426 6.6063 20.86 6.83358 18.8214C6.88352 18.3736 7.01708 17.957 7.21537 17.5842C7.80385 16.4805 8.96792 15.7639 10.2446 15.7639C10.4979 15.7639 10.756 15.7918 11.0145 15.8511C19.7152 17.839 20.3901 17.9931 20.9552 18.1222L21.6651 18.2845L22.4424 18.4622C23.2905 18.6553 23.9102 19.3416 24.0485 20.1626C24.0806 20.351 24.087 20.5468 24.0647 20.7459Z" fill="#FFA90B"/>
<path d="M24.0489 20.1626C23.6636 20.6664 23.0568 20.9875 22.3817 20.9885C16.2469 21.0006 20.5348 20.9924 10.6601 21.0111C8.74054 21.0145 7.21825 19.4548 7.21582 17.5842C7.80431 16.4805 8.96819 15.7639 10.2449 15.7639C10.3822 15.7639 10.5204 15.7721 10.6596 15.7894C10.7776 15.8034 10.8966 15.8241 11.015 15.8511L11.3698 15.9319C20.5599 18.0322 12.3671 16.1599 20.9557 18.1222L21.6656 18.2845L22.4428 18.4622C23.2909 18.6553 23.9107 19.3416 24.0489 20.1626Z" fill="#FFB52D"/>
<path d="M1.28809 17.7317C1.29001 17.7319 1.29237 17.7321 1.29472 17.7325C1.29279 17.7323 1.29044 17.7319 1.28809 17.7317Z" fill="black"/>
<path d="M1.30176 17.7333C1.30304 17.7333 1.3039 17.7335 1.30433 17.7335C1.3039 17.7335 1.30326 17.7333 1.30176 17.7333Z" fill="black"/>
<path d="M22.5227 18.1103L22.2559 18.0491C24.8411 15.931 25.392 11.2285 22.957 8.77826C22.0198 7.83585 21.4604 6.34424 21.4604 4.78828C21.4604 2.53272 19.9766 0.697292 18.1524 0.697292C16.3286 0.697292 14.8444 2.53272 14.8444 4.78828C14.8444 5.30082 14.7836 5.80588 14.6686 6.28644C12.9692 4.32512 10.2705 4.10009 8.4659 5.35413V0.753223C8.4659 0.553818 8.3041 0.392011 8.10469 0.392011C7.90529 0.392011 7.74348 0.553818 7.74348 0.753223V2.17151C6.6649 0.225341 4.7019 -0.295245 2.50357 0.147338C2.28153 0.192232 2.1549 0.428675 2.24057 0.638555C2.26077 0.687752 2.74713 1.86043 3.68729 2.88701C4.79973 4.10252 6.18041 4.70597 7.74348 4.27312V5.35413C5.62223 3.88011 2.07016 4.4093 0.610908 7.77019C0.531408 7.95332 0.615772 8.16564 0.798716 8.24514C0.98166 8.32464 1.19416 8.24083 1.27366 8.0577C2.60908 4.98245 5.80236 4.73385 7.496 6.06795C7.84861 6.36463 8.36283 6.36313 8.71338 6.06795C10.6416 4.54922 13.977 5.21029 15.1198 8.53302C15.7343 10.3226 15.6116 12.194 14.545 14.13C14.1205 14.8889 13.772 15.5199 13.484 16.0451C11.2469 15.5633 10.9278 15.3872 10.1665 15.4037C9.96705 15.4076 9.80861 15.5722 9.81292 15.7717C9.81666 15.9714 9.9809 16.1304 10.1812 16.1256C10.3124 16.1228 10.4611 16.1295 10.618 16.1488L10.4012 18.0942C10.3791 18.2923 10.5221 18.4709 10.7203 18.493C10.9194 18.5151 11.0973 18.3716 11.1193 18.1741L11.3288 16.2934C12.7716 16.6228 13.7107 16.8375 14.8295 17.0932L14.726 18.021C14.704 18.2193 14.8469 18.3978 15.0452 18.42C15.2442 18.4419 15.4221 18.2986 15.444 18.1009L15.5382 17.2552C15.7612 17.3063 20.8878 18.4773 20.9521 18.4921L20.6732 20.9962C20.6511 21.1945 20.7939 21.3731 20.9921 21.3952C21.1912 21.4173 21.3691 21.2738 21.3911 21.0763L21.6611 18.6539L22.362 18.8144C23.2309 19.0126 23.8046 19.8198 23.7054 20.7059C23.6072 21.5871 22.8642 22.2533 21.9776 22.2551L18.2807 22.2622L18.412 21.0845C18.4341 20.8862 18.2914 20.7076 18.0931 20.6855C17.8946 20.6634 17.7162 20.8062 17.6941 21.0045L17.5538 22.2637L14.0103 22.2705L14.1338 21.1633C14.1559 20.9652 14.013 20.7865 13.8147 20.7645C13.617 20.7422 13.4379 20.8851 13.4159 21.0834C13.3852 21.3593 13.2866 22.2426 13.2836 22.272L11.5872 22.2751L11.8019 20.3479C11.824 20.1498 11.6811 19.9711 11.4828 19.9489C11.2843 19.9268 11.1061 20.0697 11.0838 20.268L10.8601 22.2766C10.8563 22.2766 10.8539 22.2766 10.8518 22.2766H10.852C10.8518 22.2766 10.8515 22.2766 10.8511 22.2766C10.8505 22.2766 10.85 22.2766 10.8494 22.2766C10.8494 22.2766 10.8492 22.2766 10.849 22.2766C10.8464 22.2766 10.8462 22.2766 10.8472 22.2766C10.8238 22.2766 10.7104 22.2768 10.249 22.2778C8.83123 22.2778 7.6159 21.3107 7.27041 19.9743C6.91593 18.6093 7.53659 17.0852 8.93374 16.4213C9.11388 16.3356 9.19076 16.1203 9.10508 15.9402C9.01941 15.7601 8.80411 15.683 8.62397 15.7687C7.91988 16.1029 7.35178 16.6299 6.97373 17.2741C6.2427 16.9095 5.40655 16.336 4.9606 15.4913C4.38427 14.3966 2.72206 14.8077 2.71645 16.0436L1.58474 13.9864C0.809004 12.5769 0.524861 10.9949 0.862503 9.36225C0.902908 9.16678 0.777204 8.9756 0.581727 8.9352C0.38625 8.89479 0.195449 9.02031 0.155045 9.21597C-0.207102 10.968 0.0678749 12.728 0.951543 14.3347L2.4946 17.1392L1.36382 17.0132C0.709488 16.9404 0.120813 17.4107 0.0480466 18.0654C-0.0245324 18.7178 0.446857 19.3084 1.09988 19.381L2.97216 19.5895C2.50788 20.0052 2.13413 20.3819 2.18108 20.976C2.26227 22.026 3.58347 22.4637 4.2739 21.6575C4.84219 20.9925 5.73016 20.5817 6.63029 20.36C7.11964 21.8896 8.55663 23 10.249 23C10.7993 22.9991 21.3141 22.9787 21.9787 22.9774C23.344 22.9749 24.4391 21.8685 24.4391 20.5108C24.4389 19.3552 23.651 18.3679 22.5227 18.1103ZM3.10647 0.777353C5.50812 0.449251 7.02255 1.59405 7.52817 3.58287C5.57153 4.10982 4.03297 2.56302 3.10647 0.777353ZM21.3139 17.8338L14.2187 16.2127C14.4239 15.8371 14.6512 15.4226 14.9045 14.9666C15.5734 16.1188 16.8207 16.8951 18.2457 16.8951C20.0791 16.8951 21.6708 15.5921 22.0299 13.7967C22.069 13.6012 21.9418 13.411 21.7464 13.3721C21.5503 13.333 21.3606 13.4596 21.3216 13.6551C21.0297 15.1138 19.7362 16.1729 18.2457 16.1729C16.9262 16.1729 15.7945 15.3536 15.3317 14.1974C15.9318 13.0552 16.2193 11.8483 16.2096 10.6511C18.0218 9.10149 20.8159 10.0789 21.3115 12.3683C21.3539 12.5634 21.5455 12.6872 21.7409 12.6448C21.936 12.6025 22.0599 12.4102 22.0174 12.2153C21.8339 11.3672 21.3601 10.5961 20.6844 10.0443C19.4005 8.99655 17.5656 8.87833 16.1524 9.79473C16.0321 8.8456 15.7165 7.85624 15.2122 7.03206C15.444 6.33376 15.5667 5.57374 15.5667 4.78828C15.5667 3.12177 16.6047 1.41972 18.1524 1.41972C19.6835 1.41972 20.7379 3.09895 20.7379 4.78828C20.7379 6.55674 21.3601 8.1965 22.4447 9.2878C24.3257 11.1793 24.1437 14.6912 22.5096 16.7599C22.1547 17.2092 21.7507 17.5704 21.3139 17.8338ZM6.47653 19.6488C5.44751 19.8991 4.40634 20.3911 3.72488 21.188C3.55672 21.3844 3.26004 21.4076 3.06363 21.2396C2.86666 21.0705 2.84365 20.7751 3.012 20.5787C3.32664 20.2111 3.70319 19.8913 4.10424 19.6339C4.38857 19.45 4.2855 19.0091 3.94823 18.9717C3.63547 18.9369 1.41639 18.6894 1.17976 18.663C0.922923 18.6346 0.737173 18.4021 0.765419 18.1454C0.793852 17.8916 1.02132 17.7029 1.28376 17.7313C1.28526 17.7315 1.28657 17.7315 1.28806 17.7317C1.28731 17.7317 1.28657 17.7315 1.28601 17.7315C1.28769 17.7317 1.29049 17.7318 1.29461 17.7324C1.29442 17.7324 1.29405 17.7324 1.29386 17.7322C1.29779 17.7328 1.3006 17.733 1.30228 17.7332C1.30078 17.7332 1.29891 17.733 1.29704 17.7326C1.37093 17.7408 1.80248 17.7889 3.79896 18.0115C3.91381 18.0042 4.2638 18.1529 4.41682 17.839C4.48378 17.7014 4.45685 17.5371 4.34985 17.4277C3.9993 17.0704 3.71085 16.6795 3.49274 16.2662C3.37172 16.0375 3.46001 15.7533 3.68822 15.6325H3.68859C3.91943 15.5111 4.20095 15.6003 4.32198 15.8285C4.85416 16.837 5.83024 17.5078 6.67013 17.9253C6.4784 18.4661 6.40657 19.0669 6.47653 19.6488Z" fill="black"/>
</svg>
