<svg width="95" height="16" viewBox="0 0 95 16" fill="none" xmlns="http://www.w3.org/2000/svg">
<path d="M8.664 0.511999H0.216V12H8.936V9.968H2.568V6.992H8.168V4.96H2.568V2.544H8.664V0.511999ZM12.4879 7.936C12.4879 6.576 12.8559 5.2 14.3919 5.2C15.8159 5.2 16.2959 6.464 16.2959 7.808C16.2959 8.816 15.8959 10.384 14.4559 10.384C13.0319 10.384 12.4879 9.2 12.4879 7.936ZM12.4879 3.488H10.3439V15.312H12.5839V10.912H12.6159C12.8879 11.376 13.4479 12.224 15.0159 12.224C17.5439 12.224 18.5999 9.984 18.5999 7.648C18.5999 4.704 16.9359 3.264 15.0639 3.264C13.5599 3.264 12.9359 4.048 12.5199 4.72H12.4879V3.488ZM29.0423 8.896C29.0423 9.296 28.6583 10.384 27.5223 10.384C25.8263 10.384 25.7943 8.544 25.7943 7.616C25.7943 6.56 26.1623 5.152 27.5703 5.152C28.6103 5.088 28.9623 5.968 29.0583 6.528H31.3303C31.1223 3.872 28.9143 3.264 27.5703 3.264C24.6903 3.264 23.4903 5.232 23.4903 7.984C23.4903 9.776 24.2263 12.224 27.4263 12.224C30.5463 12.224 31.2343 9.776 31.3143 8.896H29.0423ZM42.258 7.744H44.93C44.434 10.064 42.674 10.272 42.146 10.272C40.514 10.272 38.802 9.456 38.802 6.32C38.802 3.376 40.386 2.192 42.098 2.192C43.794 2.192 44.61 3.632 44.61 4.08H47.01C46.882 2.496 45.49 0.207999 41.97 0.207999C38.098 0.191999 36.354 3.152 36.354 6.288C36.354 10.32 38.866 12.304 41.634 12.304C43.73 12.304 44.61 11.264 45.218 10.56L45.458 12H47.058V5.808H42.258V7.744ZM48.8071 12H51.0471V7.568C51.0471 6.624 51.3671 5.536 53.1111 5.536C53.3191 5.536 53.5591 5.536 53.7511 5.568V3.296C53.6071 3.28 53.4631 3.264 53.3191 3.264C51.9591 3.264 51.4471 4.096 50.9831 4.96H50.9511V3.488H48.8071V12ZM62.6174 7.744C62.6174 4.672 60.5534 3.264 58.2654 3.264C55.9774 3.264 53.9134 4.672 53.9134 7.744C53.9134 10.816 55.9774 12.224 58.2654 12.224C60.5534 12.224 62.6174 10.816 62.6174 7.744ZM60.3134 7.744C60.3134 8.832 59.9934 10.336 58.2654 10.336C56.5374 10.336 56.2174 8.832 56.2174 7.744C56.2174 6.656 56.5374 5.152 58.2654 5.152C59.9934 5.152 60.3134 6.656 60.3134 7.744ZM68.9266 8.896C68.9266 9.296 68.5426 10.384 67.4066 10.384C65.7106 10.384 65.6786 8.544 65.6786 7.616C65.6786 6.56 66.0466 5.152 67.4546 5.152C68.4946 5.088 68.8466 5.968 68.9426 6.528H71.2146C71.0066 3.872 68.7986 3.264 67.4546 3.264C64.5746 3.264 63.3746 5.232 63.3746 7.984C63.3746 9.776 64.1106 12.224 67.3106 12.224C70.4306 12.224 71.1186 9.776 71.1986 8.896H68.9266ZM77.4493 9.504C77.2733 10.112 76.6333 10.432 76.0093 10.432C74.2013 10.432 74.0733 8.992 74.0093 8.352H79.8493V7.952C79.8493 4.064 77.5293 3.264 75.8493 3.264C72.1213 3.264 71.7693 6.544 71.7693 7.568C71.7693 11.072 73.6093 12.224 76.0093 12.224C77.4653 12.224 79.1613 11.552 79.7533 9.504H77.4493ZM74.0733 6.896C74.2013 5.776 74.7613 5.104 75.8173 5.104C76.5373 5.104 77.4173 5.52 77.5453 6.896H74.0733ZM80.9959 12H83.2359V7.568C83.2359 6.624 83.5559 5.536 85.2999 5.536C85.5079 5.536 85.7479 5.536 85.9399 5.568V3.296C85.7959 3.28 85.6519 3.264 85.5079 3.264C84.1479 3.264 83.6359 4.096 83.1719 4.96H83.1399V3.488H80.9959V12ZM94.6509 3.488H92.2829L90.5389 9.76H90.5069L88.6829 3.488H86.1869L89.3229 12.352C89.1149 13.52 88.6669 13.632 87.8509 13.632C87.6589 13.632 87.5149 13.616 87.4189 13.6V15.392C87.7389 15.408 88.1229 15.424 88.4269 15.424C90.3789 15.424 90.6669 15.008 91.7229 11.856L94.6509 3.488Z" fill="#0F0F0F"/>
<path d="M19.9171 3.488V12H22.1571V3.488H19.9171ZM22.1571 0.4H19.9171V2.48H22.1571V0.4Z" fill="#5A9C17"/>
</svg>
