<svg width="16" height="16" viewBox="0 0 16 16" fill="none" xmlns="http://www.w3.org/2000/svg">
<path d="M15.0083 4.84756C14.8477 4.25159 14.3744 3.78222 13.7735 3.62294C12.6843 3.3335 8.31683 3.3335 8.31683 3.3335C8.31683 3.3335 3.94935 3.3335 2.86014 3.62294C2.25924 3.78225 1.78597 4.25159 1.62534 4.84756C1.3335 5.92778 1.3335 8.18157 1.3335 8.18157C1.3335 8.18157 1.3335 10.4354 1.62534 11.5156C1.78597 12.1116 2.25924 12.5614 2.86014 12.7207C3.94935 13.0101 8.31683 13.0101 8.31683 13.0101C8.31683 13.0101 12.6843 13.0101 13.7735 12.7207C14.3744 12.5614 14.8477 12.1116 15.0083 11.5156C15.3002 10.4354 15.3002 8.18157 15.3002 8.18157C15.3002 8.18157 15.3002 5.92778 15.0083 4.84756ZM6.88841 10.2278V6.1353L10.5388 8.18162L6.88841 10.2278Z" fill="#0F0F0F"/>
</svg>
