<svg width="24" height="24" viewBox="0 0 24 24" fill="none" xmlns="http://www.w3.org/2000/svg">
<path fill-rule="evenodd" clip-rule="evenodd" d="M14.6534 2.95516C15.3815 2.65346 16.162 2.49817 16.9501 2.49817C17.7383 2.49817 18.5187 2.65346 19.2469 2.95516C19.9749 3.25684 20.6364 3.69899 21.1936 4.25636C21.751 4.81351 22.1933 5.47518 22.495 6.20324C22.7967 6.93138 22.9519 7.71183 22.9519 8.49999C22.9519 9.28816 22.7967 10.0686 22.495 10.7967C22.1933 11.5248 21.7511 12.1864 21.1937 12.7435C21.1936 12.7436 21.1937 12.7435 21.1937 12.7435L12.3537 21.5835C12.1584 21.7788 11.8418 21.7788 11.6466 21.5835L2.80657 12.7435C1.68111 11.6181 1.04883 10.0916 1.04883 8.49999C1.04883 6.90835 1.68111 5.3819 2.80657 4.25644C3.93203 3.13098 5.45848 2.4987 7.05012 2.4987C8.64176 2.4987 10.1682 3.13098 11.2937 4.25644L12.0001 4.96289L12.7065 4.25652C12.7065 4.25655 12.7065 4.2565 12.7065 4.25652C13.2637 3.69911 13.9253 3.25685 14.6534 2.95516ZM16.9501 3.49817C16.2933 3.49817 15.6429 3.62758 15.0362 3.879C14.4294 4.13042 13.8781 4.49892 13.4138 4.96347L12.3537 6.02355C12.1584 6.21881 11.8418 6.21881 11.6466 6.02355L10.5866 4.96355C9.64864 4.02562 8.37654 3.4987 7.05012 3.4987C5.72369 3.4987 4.4516 4.02562 3.51367 4.96355C2.57575 5.90147 2.04883 7.17357 2.04883 8.49999C2.04883 9.82642 2.57575 11.0985 3.51367 12.0364L12.0001 20.5229L20.4866 12.0364C20.9511 11.5721 21.3197 11.0207 21.5711 10.414C21.8225 9.80717 21.9519 9.1568 21.9519 8.49999C21.9519 7.84319 21.8225 7.19282 21.5711 6.58604C21.3197 5.97925 20.9512 5.42795 20.4866 4.96363C20.0223 4.49909 19.4709 4.13042 18.8641 3.879C18.2573 3.62758 17.6069 3.49817 16.9501 3.49817Z" fill="#0F0F0F"/>
</svg>
