<svg width="157" height="14" viewBox="0 0 157 14" fill="none" xmlns="http://www.w3.org/2000/svg">
<path d="M1.562 6.436H6.49V5.232H1.562V2.152H7.162V0.947999H0.204V11H1.562V6.436ZM8.95969 6.744C8.95969 5.68 9.68769 4.784 10.8357 4.784H11.2977V3.51C11.1997 3.482 11.1297 3.468 10.9757 3.468C10.0517 3.468 9.40769 4.042 8.91769 4.896H8.88969V3.678H7.72769V11H8.95969V6.744ZM16.9258 8.704C16.8838 9.25 16.1978 10.146 15.0358 10.146C13.6218 10.146 12.9078 9.264 12.9078 7.738H18.2558C18.2558 5.148 17.2198 3.468 15.1058 3.468C12.6838 3.468 11.5918 5.274 11.5918 7.542C11.5918 9.656 12.8098 11.21 14.8678 11.21C16.0438 11.21 16.5198 10.93 16.8558 10.706C17.7798 10.09 18.1158 9.054 18.1578 8.704H16.9258ZM12.9078 6.758C12.9078 5.624 13.8038 4.574 14.9378 4.574C16.4358 4.574 16.9118 5.624 16.9818 6.758H12.9078ZM24.4251 8.704C24.3831 9.25 23.6971 10.146 22.5351 10.146C21.1211 10.146 20.4071 9.264 20.4071 7.738H25.7551C25.7551 5.148 24.7191 3.468 22.6051 3.468C20.1831 3.468 19.0911 5.274 19.0911 7.542C19.0911 9.656 20.3091 11.21 22.3671 11.21C23.5431 11.21 24.0191 10.93 24.3551 10.706C25.2791 10.09 25.6151 9.054 25.6571 8.704H24.4251ZM20.4071 6.758C20.4071 5.624 21.3031 4.574 22.4371 4.574C23.9351 4.574 24.4111 5.624 24.4811 6.758H20.4071ZM30.7809 11H34.7989C38.1029 11 39.0829 8.088 39.0829 5.834C39.0829 2.936 37.4729 0.947999 34.8549 0.947999H30.7809V11ZM32.1389 2.11H34.6729C36.5209 2.11 37.6829 3.384 37.6829 5.918C37.6829 8.452 36.5349 9.838 34.7709 9.838H32.1389V2.11ZM45.3644 8.704C45.3224 9.25 44.6364 10.146 43.4744 10.146C42.0604 10.146 41.3464 9.264 41.3464 7.738H46.6944C46.6944 5.148 45.6584 3.468 43.5444 3.468C41.1224 3.468 40.0304 5.274 40.0304 7.542C40.0304 9.656 41.2484 11.21 43.3064 11.21C44.4824 11.21 44.9584 10.93 45.2944 10.706C46.2184 10.09 46.5544 9.054 46.5964 8.704H45.3644ZM41.3464 6.758C41.3464 5.624 42.2424 4.574 43.3764 4.574C44.8744 4.574 45.3504 5.624 45.4204 6.758H41.3464ZM49.1397 0.947999H47.9077V11H49.1397V0.947999ZM51.9632 3.678H50.7312V11H51.9632V3.678ZM51.9632 2.348V0.947999H50.7312V2.348H51.9632ZM56.0887 9.642H56.0607L54.1567 3.678H52.7287L55.4027 11H56.7187L59.5047 3.678H58.1607L56.0887 9.642ZM64.8753 8.704C64.8333 9.25 64.1473 10.146 62.9853 10.146C61.5713 10.146 60.8573 9.264 60.8573 7.738H66.2053C66.2053 5.148 65.1693 3.468 63.0553 3.468C60.6333 3.468 59.5413 5.274 59.5413 7.542C59.5413 9.656 60.7593 11.21 62.8173 11.21C63.9933 11.21 64.4693 10.93 64.8053 10.706C65.7293 10.09 66.0653 9.054 66.1073 8.704H64.8753ZM60.8573 6.758C60.8573 5.624 61.7533 4.574 62.8873 4.574C64.3853 4.574 64.8613 5.624 64.9313 6.758H60.8573ZM68.7905 6.744C68.7905 5.68 69.5185 4.784 70.6665 4.784H71.1285V3.51C71.0305 3.482 70.9605 3.468 70.8065 3.468C69.8825 3.468 69.2385 4.042 68.7485 4.896H68.7205V3.678H67.5585V11H68.7905V6.744ZM74.8145 9.642H74.7865L72.8405 3.678H71.4405L74.1565 11.196C73.5685 12.708 73.4985 12.89 72.8545 12.89C72.5185 12.89 72.2665 12.82 72.1125 12.764V13.884C72.3085 13.94 72.4485 13.996 72.6305 13.996C74.2125 13.996 74.3385 13.828 75.5005 10.86C76.4385 8.466 77.2785 6.072 78.1325 3.678H76.7745L74.8145 9.642ZM88.301 8.074L89.295 11H90.779L87.139 0.947999H85.599L81.819 11H83.219L84.269 8.074H88.301ZM84.689 6.87L86.299 2.446H86.327L87.811 6.87H84.689ZM92.8509 0.947999H91.6189V11H92.8509V0.947999ZM95.6744 0.947999H94.4424V11H95.6744V0.947999ZM108.89 5.974C108.89 8.34 107.574 10.062 105.39 10.062C103.206 10.062 101.89 8.34 101.89 5.974C101.89 3.608 103.206 1.886 105.39 1.886C107.574 1.886 108.89 3.608 108.89 5.974ZM110.29 5.974C110.29 3.804 109.142 0.681999 105.39 0.681999C101.638 0.681999 100.49 3.804 100.49 5.974C100.49 8.144 101.638 11.266 105.39 11.266C109.142 11.266 110.29 8.144 110.29 5.974ZM114.033 9.642H114.005L112.101 3.678H110.673L113.347 11H114.663L117.449 3.678H116.105L114.033 9.642ZM122.819 8.704C122.777 9.25 122.091 10.146 120.929 10.146C119.515 10.146 118.801 9.264 118.801 7.738H124.149C124.149 5.148 123.113 3.468 120.999 3.468C118.577 3.468 117.485 5.274 117.485 7.542C117.485 9.656 118.703 11.21 120.761 11.21C121.937 11.21 122.413 10.93 122.749 10.706C123.673 10.09 124.009 9.054 124.051 8.704H122.819ZM118.801 6.758C118.801 5.624 119.697 4.574 120.831 4.574C122.329 4.574 122.805 5.624 122.875 6.758H118.801ZM126.735 6.744C126.735 5.68 127.463 4.784 128.611 4.784H129.073V3.51C128.975 3.482 128.905 3.468 128.751 3.468C127.827 3.468 127.183 4.042 126.693 4.896H126.665V3.678H125.503V11H126.735V6.744ZM140.081 0.947999V7.304C140.081 9.488 138.681 10.062 137.435 10.062C136.217 10.062 134.887 9.46 134.887 7.276V0.947999H133.529V7.654C133.529 9.53 134.691 11.266 137.393 11.266C140.151 11.266 141.439 9.53 141.439 7.472V0.947999H140.081ZM144.669 7.472L146.251 5.96L149.765 11H151.529L147.231 5.008L151.417 0.947999H149.541L144.669 5.82V0.947999H143.311V11H144.669V7.472ZM151.851 2.726L153.363 3.202L152.425 4.49L153.111 4.966L154.021 3.65L154.931 4.966L155.617 4.49L154.679 3.202L156.191 2.726L155.911 1.956L154.441 2.488V0.947999H153.601V2.488L152.131 1.956L151.851 2.726Z" fill="black"/>
</svg>
