<svg width="16" height="16" viewBox="0 0 16 16" fill="none" xmlns="http://www.w3.org/2000/svg">
<path d="M3.58143 15.9307H0.264286V5.29458H3.58143V15.9307ZM1.92107 3.84372C0.860357 3.84372 0 2.96893 0 1.91279C7.59214e-09 1.40549 0.202398 0.918961 0.562669 0.560243C0.92294 0.201526 1.41157 0 1.92107 0C2.43057 0 2.9192 0.201526 3.27947 0.560243C3.63974 0.918961 3.84214 1.40549 3.84214 1.91279C3.84214 2.96893 2.98143 3.84372 1.92107 3.84372ZM15.9964 15.9307H12.6864V10.7531C12.6864 9.51915 12.6614 7.93671 10.9618 7.93671C9.23714 7.93671 8.97286 9.27734 8.97286 10.6642V15.9307H5.65929V5.29458H8.84071V6.74544H8.88714C9.33 5.90977 10.4118 5.02788 12.0257 5.02788C15.3829 5.02788 16 7.22906 16 10.0881V15.9307H15.9964Z" fill="#0F0F0F"/>
</svg>
