<svg width="16" height="16" viewBox="0 0 16 16" fill="none" xmlns="http://www.w3.org/2000/svg">
<path fill-rule="evenodd" clip-rule="evenodd" d="M4.11091 2.77754C5.14236 1.74609 6.54131 1.16663 8 1.16663C9.45869 1.16663 10.8576 1.74609 11.8891 2.77754C12.9205 3.80899 13.5 5.20794 13.5 6.66663C13.5 8.79899 12.1171 10.8438 10.637 12.4061C9.90719 13.1765 9.17567 13.8066 8.62604 14.2442C8.37117 14.4472 8.15629 14.6081 8 14.7217C7.84371 14.6081 7.62883 14.4472 7.37396 14.2442C6.82433 13.8066 6.09281 13.1765 5.36298 12.4061C3.88287 10.8438 2.5 8.79899 2.5 6.66663C2.5 5.20793 3.07946 3.80899 4.11091 2.77754ZM7.72236 15.7491C7.72252 15.7492 7.72265 15.7493 8 15.3333L7.72265 15.7493C7.8906 15.8613 8.1094 15.8613 8.27735 15.7493L8 15.3333C8.27735 15.7493 8.27748 15.7492 8.27764 15.7491L8.27806 15.7488L8.27932 15.748L8.28347 15.7452L8.29814 15.7353C8.31072 15.7267 8.32881 15.7144 8.35207 15.6983C8.39857 15.6661 8.46571 15.6189 8.55056 15.5576C8.7202 15.4351 8.96088 15.2559 9.24896 15.0265C9.82433 14.5683 10.5928 13.9068 11.363 13.0938C12.8829 11.4895 14.5 9.20093 14.5 6.66663C14.5 4.94272 13.8152 3.28942 12.5962 2.07043C11.3772 0.851445 9.72391 0.166626 8 0.166626C6.27609 0.166626 4.62279 0.851445 3.40381 2.07043C2.18482 3.28942 1.5 4.94272 1.5 6.66663C1.5 9.20093 3.11713 11.4895 4.63702 13.0938C5.40719 13.9068 6.17567 14.5683 6.75104 15.0265C7.03912 15.2559 7.2798 15.4351 7.44944 15.5576C7.53429 15.6189 7.60143 15.6661 7.64793 15.6983C7.67119 15.7144 7.68928 15.7267 7.70186 15.7353L7.71653 15.7452L7.72068 15.748L7.72194 15.7488L7.72236 15.7491ZM6.5 6.66663C6.5 5.8382 7.17157 5.16663 8 5.16663C8.82843 5.16663 9.5 5.8382 9.5 6.66663C9.5 7.49505 8.82843 8.16663 8 8.16663C7.17157 8.16663 6.5 7.49505 6.5 6.66663ZM8 4.16663C6.61929 4.16663 5.5 5.28591 5.5 6.66663C5.5 8.04734 6.61929 9.16663 8 9.16663C9.38071 9.16663 10.5 8.04734 10.5 6.66663C10.5 5.28591 9.38071 4.16663 8 4.16663Z" fill="white"/>
</svg>
