<svg width="55" height="60" viewBox="0 0 55 60" fill="none" xmlns="http://www.w3.org/2000/svg">
<path fill-rule="evenodd" clip-rule="evenodd" d="M26.5883 0.771973H50.7455C52.8155 0.771973 54.4995 2.456 54.4996 4.52602V14.4032C54.4996 16.4732 52.8156 18.1573 50.7456 18.1573H44.3218C43.849 18.1573 43.4659 17.7742 43.4659 17.3013C43.4659 16.8285 43.849 16.4453 44.3218 16.4453H50.7456C51.8716 16.4453 52.7876 15.5292 52.7876 14.4032V4.52602C52.7876 3.39999 51.8715 2.48396 50.7456 2.48396H26.5884C25.4624 2.48396 24.5463 3.4001 24.5463 4.52602V18.2353L27.024 16.5884C27.1644 16.4952 27.3291 16.4453 27.4978 16.4453H40.6738C41.1467 16.4453 41.5298 16.8285 41.5298 17.3013C41.5298 17.7742 41.1467 18.1573 40.6738 18.1573H27.7563L24.8817 20.0679C24.6611 20.2146 24.407 20.2885 24.1523 20.2885C23.9388 20.2885 23.7248 20.2366 23.5293 20.1318C23.1005 19.9018 22.8342 19.4568 22.8342 18.9703V4.52602C22.8342 2.456 24.5183 0.771973 26.5883 0.771973ZM41.3914 7.72794L40.6738 7.62362L40.3528 6.97341C40.1111 6.48367 39.6216 6.17939 39.0753 6.17939C38.5292 6.17939 38.0397 6.48367 37.798 6.97341L37.477 7.62362L36.7595 7.72794C36.2189 7.80646 35.7783 8.17785 35.6095 8.69738C35.4407 9.21691 35.5788 9.77639 35.97 10.1578L36.4892 10.6639L36.3667 11.3786C36.2743 11.9169 36.4915 12.4509 36.9333 12.7719C37.3751 13.0929 37.9498 13.1344 38.4337 12.8805L39.0756 12.543L39.7174 12.8805C39.9277 12.991 40.1552 13.0455 40.3815 13.0455C40.6756 13.0455 40.9678 12.9533 41.2175 12.772C41.6593 12.4511 41.8765 11.9172 41.7843 11.3787L41.6618 10.6639L42.1809 10.1578C42.5721 9.77662 42.7103 9.21703 42.5414 8.6975C42.3726 8.17808 41.932 7.80658 41.3914 7.72794ZM40.3588 9.54333C40.0228 9.87066 39.8696 10.3421 39.9489 10.8045L39.9986 11.0941L39.7382 10.9572C39.5308 10.8482 39.3032 10.7937 39.0756 10.7937C38.8479 10.7937 38.6202 10.8483 38.4126 10.9573L38.1526 11.0941L38.2022 10.8046C38.2815 10.3424 38.1285 9.87101 37.7925 9.54345L37.5821 9.33835L37.8726 9.29612C38.3367 9.2289 38.7379 8.93752 38.9455 8.51694L39.0755 8.25341L39.2056 8.51705C39.4132 8.93763 39.8142 9.22878 40.2781 9.29612L40.569 9.33835L40.3588 9.54333ZM38.2588 42.7041L38.4466 42.9219C39.192 43.7858 39.6026 44.8899 39.6023 46.0308C39.6023 47.2863 39.1177 48.4709 38.2376 49.3666C38.6897 49.9857 38.9407 50.7405 38.9407 51.5149C38.9407 52.5379 38.5096 53.5067 37.7678 54.1901C38.1475 54.7308 38.3478 55.3645 38.3478 56.0275C38.3478 57.792 36.9123 59.2274 35.1479 59.2274H31.0451C30.5723 59.2274 30.1891 58.8443 30.1891 58.3714C30.1891 57.8986 30.5723 57.5154 31.0451 57.5154H35.1479C35.9682 57.5154 36.6358 56.8479 36.6358 56.0275C36.6358 55.7084 36.536 55.4038 36.3472 55.1467L36.1163 54.8322C35.9211 54.5666 35.8402 54.2277 35.8942 53.9025C35.948 53.5773 36.1342 53.2827 36.4046 53.0943C36.9208 52.7347 37.2289 52.1441 37.2289 51.5149C37.2289 50.9882 37.0096 50.4785 36.6269 50.1165C36.4197 49.9205 36.298 49.6446 36.2929 49.3594C36.2879 49.0742 36.3997 48.7941 36.5996 48.591L37.0162 48.1673C37.58 47.5937 37.8906 46.8349 37.8906 46.0308C37.8906 45.3003 37.6278 44.5934 37.1504 44.0402L36.8041 43.6388C36.3637 43.1283 36.347 42.3735 36.7642 41.844C37.2698 41.2024 37.5482 40.3992 37.5482 39.5825C37.5482 37.5675 35.9089 35.9283 33.894 35.9283H29.1436C28.7706 35.9283 28.4267 35.7583 28.2005 35.4619C27.9741 35.1653 27.9007 34.7891 27.9988 34.4294L28.2126 33.6452C28.442 32.8043 28.5583 31.9362 28.5583 31.0648V25.3361C28.5583 24.4475 27.8353 23.7245 26.9466 23.7245H26.9464C26.4212 23.7245 25.9279 23.9813 25.6265 24.4117L21.3293 30.5483C21.2222 30.7011 21.0685 30.8147 20.891 30.872C18.1108 31.7692 15.7287 33.4894 14.0023 35.8465L13.6199 36.3686V39.6672C13.6199 40.14 13.2367 40.5232 12.7639 40.5232C12.291 40.5232 11.9079 40.14 11.9079 39.6672V36.4251L11.4581 35.9412C10.7802 35.2118 9.82027 34.7935 8.82435 34.7935H1.45756C0.984705 34.7935 0.601562 34.4104 0.601562 33.9375C0.601562 33.4647 0.984705 33.0815 1.45756 33.0815H8.82435C10.2816 33.0815 11.6866 33.6884 12.6857 34.7475C14.5633 32.2205 17.1162 30.3547 20.0892 29.3345L24.2241 23.4297C24.8457 22.5423 25.8634 22.0125 26.9464 22.0125H26.9469C28.7795 22.0125 30.2704 23.5034 30.2704 25.3361V31.0648C30.2704 32.0883 30.1337 33.1081 29.8643 34.0957L29.8315 34.2164H33.894C36.8529 34.2164 39.2602 36.6237 39.2602 39.5826C39.2602 40.6988 38.9061 41.7977 38.2588 42.7041ZM18.872 57.5154H27.3972C27.8701 57.5154 28.2532 57.8987 28.2532 58.3715C28.2532 58.8444 27.8701 59.2275 27.3972 59.2275H18.872C16.632 59.2275 14.5261 58.3552 12.942 56.7712L12.8751 56.7045C11.8895 57.6937 10.544 58.2626 9.11756 58.2626H1.45756C0.984705 58.2626 0.601562 57.8795 0.601562 57.4066C0.601562 56.9338 0.984705 56.5506 1.45756 56.5506H9.11756C10.2085 56.5506 11.2284 56.0581 11.9079 55.2204V43.315C11.9079 42.8422 12.291 42.459 12.7639 42.459C13.2367 42.459 13.6199 42.8422 13.6199 43.315V55.0279L14.1525 55.5605C15.4131 56.8211 17.0893 57.5154 18.872 57.5154ZM32.7928 7.72794C33.3333 7.80646 33.7739 8.17797 33.9427 8.6975C34.1115 9.21703 33.9733 9.77662 33.5823 10.1578L33.0631 10.664L33.1856 11.3787C33.2779 11.9169 33.0608 12.4509 32.619 12.7719C32.3693 12.9533 32.077 13.0455 31.7829 13.0455C31.5566 13.0455 31.3291 12.991 31.1189 12.8805L30.477 12.543L29.8351 12.8805C29.3512 13.1344 28.7765 13.0929 28.3347 12.7719C27.8929 12.4509 27.6757 11.9169 27.7682 11.3786L27.8906 10.6639L27.3714 10.1578C26.9802 9.77662 26.8421 9.21703 27.0109 8.6975C27.1796 8.17797 27.6204 7.80646 28.1609 7.72794L28.8784 7.62362L29.1994 6.97341C29.4411 6.48367 29.9306 6.17939 30.4768 6.17939C31.023 6.17939 31.5125 6.48367 31.7542 6.97341L32.0752 7.62362L32.7928 7.72794ZM31.3501 10.8045C31.271 10.3418 31.4243 9.87044 31.7601 9.54333L31.9704 9.33835L31.6795 9.29612C31.2157 9.22878 30.8146 8.93763 30.607 8.51705L30.4769 8.25341L30.3469 8.51694C30.1393 8.93752 29.7381 9.2289 29.274 9.29612L28.9836 9.33835L29.1939 9.54345C29.5299 9.87101 29.683 10.3424 29.6036 10.8046L29.554 11.0941L29.814 10.9573C30.2289 10.7393 30.7243 10.739 31.1396 10.9573L31.3997 11.0941L31.3501 10.8045ZM50.9399 8.6975C50.7711 8.17797 50.3305 7.80646 49.7901 7.72794L49.0725 7.62362L48.7516 6.97341C48.5098 6.48367 48.0204 6.17939 47.4743 6.17939H47.4742C46.9281 6.17939 46.4386 6.48356 46.1968 6.9733L46.1967 6.97341L45.8758 7.62362L45.1582 7.72794C44.6177 7.80646 44.177 8.17785 44.0082 8.69738C43.8394 9.21691 43.9775 9.77639 44.3688 10.1578L44.888 10.6639L44.7655 11.3786C44.673 11.9169 44.8902 12.4509 45.332 12.7719C45.7738 13.0929 46.3485 13.1346 46.8325 12.8803L47.4742 12.543L48.1161 12.8805C48.3263 12.991 48.5538 13.0455 48.7801 13.0455C49.0742 13.0455 49.3664 12.9533 49.6161 12.772C50.0579 12.4511 50.2751 11.9172 50.1829 11.3787L50.0604 10.6639L50.5795 10.1578C50.9705 9.77662 51.1087 9.21703 50.9399 8.6975ZM48.7569 9.54345C48.4213 9.87089 48.2681 10.3423 48.3474 10.8044L48.3971 11.0939L48.137 10.9572C47.722 10.739 47.2264 10.739 46.8111 10.9573L46.5512 11.0939L46.6008 10.8045C46.6802 10.3423 46.5271 9.87089 46.1911 9.54333L45.9808 9.33824L46.2712 9.29601C46.7353 9.22878 47.1365 8.9374 47.3441 8.51683L47.4742 8.25318L47.6043 8.51694C47.8119 8.93752 48.213 9.22867 48.6767 9.29601L48.9676 9.33824L48.7569 9.54345Z" fill="#2F4858"/>
</svg>
