<svg width="89" height="20" viewBox="0 0 89 20" fill="none" xmlns="http://www.w3.org/2000/svg">
<path d="M17.9347 16.4339H14.5589L16.6687 2.96845H20.0449L17.9347 16.4339ZM11.719 2.96845L8.50067 12.2301L8.11985 10.2357L8.12019 10.2364L6.98429 4.18086C6.98429 4.18086 6.84695 2.96845 5.38294 2.96845H0.0624311L0 3.19645C0 3.19645 1.62702 3.548 3.53117 4.73556L6.46404 16.4343H9.98133L15.3521 2.96845H11.719V2.96845ZM38.2712 16.4339H41.3709L38.6684 2.96809H35.9547C34.7016 2.96809 34.3964 3.97159 34.3964 3.97159L29.3616 16.4339H32.8807L33.5844 14.4338H37.8758L38.2712 16.4339ZM34.5566 11.6707L36.3303 6.63162L37.3282 11.6707H34.5566ZM29.6256 6.20659L30.1073 3.31496C30.1073 3.31496 28.6208 2.72784 27.0711 2.72784C25.3959 2.72784 21.4176 3.48821 21.4176 7.18559C21.4176 10.6643 26.0868 10.7076 26.0868 12.5348C26.0868 14.3621 21.8987 14.0347 20.5166 12.8824L20.0147 15.9059C20.0147 15.9059 21.522 16.6662 23.8251 16.6662C26.1288 16.6662 29.6041 15.4275 29.6041 12.0561C29.6041 8.55505 24.893 8.22907 24.893 6.7069C24.8933 5.18436 28.181 5.37994 29.6256 6.20659V6.20659Z" fill="#0F0F0F"/>
<path d="M8.12048 10.2364L6.98454 4.18085C6.98454 4.18085 6.84719 2.96844 5.38313 2.96844H0.0624333L0 3.19645C0 3.19645 2.55733 3.74682 5.01026 5.80893C7.35567 7.7799 8.12048 10.2364 8.12048 10.2364Z" fill="#E6A540"/>
<path d="M88.6261 15.772V15.3933H88.5313L88.4216 15.6532L88.3125 15.3933H88.2174V15.772H88.2848V15.4867L88.3873 15.7329H88.4571L88.5596 15.4861V15.772H88.6264H88.6261ZM88.0246 15.772V15.4582H88.146V15.3943H87.8359V15.4582H87.9573V15.772H88.024H88.0246Z" fill="#F79410"/>
<path d="M77.8522 17.3919H69.6484V2.08154H77.8523L77.8522 17.3919Z" fill="#FF5F00"/>
<path d="M70.1684 9.73707C70.1684 6.63136 71.5687 3.86478 73.7493 2.08188C72.0987 0.730321 70.0572 -0.00321466 67.9553 1.05904e-05C62.7774 1.05904e-05 58.5801 4.35938 58.5801 9.73707C58.5801 15.1148 62.7774 19.4741 67.9553 19.4741C70.0573 19.4774 72.0988 18.7439 73.7494 17.3923C71.569 15.6097 70.1684 12.8429 70.1684 9.73707Z" fill="#EB001B"/>
<path d="M88.9201 9.73707C88.9201 15.1148 84.7228 19.4741 79.5449 19.4741C77.4427 19.4773 75.4009 18.7438 73.75 17.3923C75.9312 15.6094 77.3315 12.8429 77.3315 9.73707C77.3315 6.63121 75.9312 3.86478 73.75 2.08188C75.4009 0.730362 77.4426 -0.00315813 79.5448 1.0221e-05C84.7227 1.0221e-05 88.92 4.35938 88.92 9.73707" fill="#F79E1B"/>
</svg>
