<svg width="48" height="48" viewBox="0 0 48 48" fill="none" xmlns="http://www.w3.org/2000/svg">
<path fill-rule="evenodd" clip-rule="evenodd" d="M24.4999 4.25417C24.3675 4.38665 24.1878 4.46112 24.0005 4.46123C23.8131 4.46112 23.6335 4.38665 23.501 4.25417C23.3685 4.12169 23.2941 3.94205 23.2939 3.7547V0.706529C23.2939 0.519146 23.3684 0.339437 23.5009 0.206937C23.6334 0.0744375 23.8131 0 24.0005 0C24.1879 0 24.3676 0.0744375 24.5001 0.206937C24.6326 0.339437 24.707 0.519146 24.707 0.706529V3.7547C24.7069 3.94205 24.6324 4.12169 24.4999 4.25417ZM47.6536 18.5682C47.7627 18.6329 47.8524 18.7257 47.9133 18.8369C47.9742 18.9483 48.004 19.074 47.9996 19.2009C47.9952 19.3277 47.9567 19.4511 47.8883 19.558L42.8206 27.4735V47.2915C42.8207 47.3843 42.8025 47.4761 42.767 47.5619C42.7315 47.6476 42.6794 47.7255 42.6138 47.7912C42.5482 47.8568 42.4703 47.9088 42.3845 47.9443C42.2988 47.9798 42.2069 47.998 42.1141 47.998H5.88733C5.79453 47.998 5.70263 47.9798 5.61689 47.9443C5.53115 47.9088 5.45324 47.8568 5.38762 47.7912C5.322 47.7255 5.26996 47.6476 5.23447 47.5619C5.19899 47.4761 5.18075 47.3843 5.1808 47.2915V27.4739L0.11317 19.558C0.044129 19.4512 0.00519814 19.3277 0.000485351 19.2006C-0.00422744 19.0735 0.0254526 18.9475 0.0863935 18.8359C0.147334 18.7242 0.237277 18.6311 0.34673 18.5664C0.456184 18.5016 0.58109 18.4676 0.708269 18.4679H14.7525L12.3515 16.0685C12.2527 15.9697 12.1855 15.8438 12.1582 15.7067C12.131 15.5697 12.145 15.4277 12.1985 15.2986C12.252 15.1695 12.3426 15.0592 12.4588 14.9816C12.575 14.904 12.7116 14.8626 12.8513 14.8626H20.7043L23.3305 6.98336C23.3775 6.84273 23.4674 6.72044 23.5877 6.63378C23.708 6.54712 23.8525 6.50049 24.0007 6.50049C24.149 6.50049 24.2935 6.54712 24.4137 6.63378C24.534 6.72044 24.624 6.84273 24.6709 6.98336L27.2976 14.8626H35.1502C35.2899 14.8626 35.4265 14.904 35.5426 14.9816C35.6588 15.0592 35.7494 15.1695 35.8029 15.2986C35.8564 15.4277 35.8704 15.5697 35.8432 15.7067C35.816 15.8438 35.7487 15.9697 35.65 16.0685L33.249 18.4695H47.2932C47.42 18.4695 47.5445 18.5036 47.6536 18.5682ZM21.215 16.2756H14.557L16.7509 18.4695H18.8217C18.9402 18.4695 19.0569 18.4993 19.1609 18.5563C19.2649 18.6132 19.3529 18.6954 19.4168 18.7953L24.0007 25.9567L28.5847 18.7937C28.6485 18.6938 28.7365 18.6116 28.8405 18.5546C28.9445 18.4977 29.0612 18.4679 29.1798 18.4679H31.2509L33.4448 16.2768H26.7881C26.6396 16.2767 26.495 16.2299 26.3747 16.1429C26.2544 16.0559 26.1645 15.9333 26.1179 15.7924L24.0007 9.44127L21.8852 15.7912C21.8386 15.9321 21.7487 16.0548 21.6284 16.1418C21.5081 16.2287 21.3634 16.2756 21.215 16.2756ZM22.7088 26.5607L18.4329 19.8826L1.9994 19.8809L6.2741 26.5607H22.7088ZM23.2942 27.9737H6.59386V46.5857H23.2942V27.9737ZM24.7072 46.5857H41.4076V27.9737H24.7072V46.5857ZM25.2927 26.5607H41.7277L46.0041 19.8809H29.5666L25.2927 26.5607ZM15.8662 6.12337C15.9123 6.20437 15.9739 6.27546 16.0475 6.33255C16.1212 6.38964 16.2054 6.4316 16.2953 6.45601C16.3852 6.48042 16.4791 6.48681 16.5715 6.4748C16.6639 6.46279 16.753 6.43262 16.8337 6.38603C16.9144 6.33944 16.9851 6.27735 17.0417 6.20333C17.0983 6.12931 17.1397 6.04483 17.1635 5.95475C17.1873 5.86467 17.1931 5.77077 17.1804 5.67845C17.1678 5.58613 17.1371 5.49722 17.0899 5.41684L15.5658 2.77725C15.5198 2.69624 15.4582 2.62515 15.3845 2.56806C15.3109 2.51098 15.2267 2.46902 15.1368 2.4446C15.0468 2.42019 14.953 2.41381 14.8606 2.42582C14.7682 2.43783 14.6791 2.46799 14.5984 2.51458C14.5177 2.56117 14.447 2.62326 14.3904 2.69728C14.3338 2.7713 14.2924 2.85578 14.2686 2.94586C14.2448 3.03594 14.239 3.12985 14.2516 3.22216C14.2643 3.31448 14.295 3.40339 14.3421 3.48377L15.8662 6.12337ZM10.6181 11.887L7.97811 10.3646V10.3654C7.81716 10.271 7.70007 10.1168 7.65238 9.93644C7.60469 9.75606 7.63028 9.56415 7.72357 9.40257C7.81686 9.241 7.97027 9.12288 8.15032 9.074C8.33037 9.02512 8.52245 9.04944 8.68464 9.14165L11.3246 10.6633C11.4056 10.7094 11.4767 10.771 11.5338 10.8446C11.5909 10.9183 11.6329 11.0025 11.6573 11.0924C11.6817 11.1823 11.6881 11.2762 11.6761 11.3686C11.6641 11.461 11.6339 11.5501 11.5873 11.6308C11.5407 11.7115 11.4786 11.7822 11.4046 11.8388C11.3306 11.8954 11.2461 11.9368 11.156 11.9606C11.0659 11.9844 10.972 11.9901 10.8797 11.9775C10.7874 11.9649 10.6985 11.9341 10.6181 11.887ZM31.1697 6.38216C31.2501 6.42862 31.3388 6.45877 31.4308 6.47091C31.5228 6.48304 31.6162 6.47692 31.7059 6.45288C31.7955 6.42884 31.8795 6.38737 31.9531 6.33082C32.0267 6.27428 32.0884 6.20378 32.1347 6.12337L33.6591 3.48377C33.7063 3.40339 33.737 3.31448 33.7497 3.22216C33.7623 3.12985 33.7565 3.03594 33.7327 2.94586C33.7089 2.85578 33.6675 2.7713 33.6109 2.69728C33.5543 2.62326 33.4836 2.56117 33.4029 2.51458C33.3222 2.46799 33.2331 2.43783 33.1407 2.42582C33.0483 2.41381 32.9544 2.42019 32.8645 2.4446C32.7746 2.46902 32.6904 2.51098 32.6168 2.56806C32.5431 2.62515 32.4815 2.69624 32.4354 2.77725L30.9109 5.41684C30.8173 5.57918 30.792 5.77206 30.8405 5.95307C30.889 6.13408 31.0075 6.28842 31.1697 6.38216ZM37.3827 11.887C37.2759 11.9499 37.1542 11.9832 37.0303 11.9835H37.0319C36.8762 11.9837 36.7248 11.9326 36.6012 11.838C36.4776 11.7433 36.3888 11.6105 36.3484 11.4602C36.308 11.3099 36.3184 11.1504 36.378 11.0066C36.4376 10.8628 36.543 10.7427 36.6778 10.6649L39.3166 9.13921C39.4788 9.04699 39.6709 9.02268 39.8509 9.07156C40.031 9.12044 40.1844 9.23856 40.2777 9.40013C40.371 9.56171 40.3965 9.75362 40.3489 9.934C40.3012 10.1144 40.1841 10.2686 40.0231 10.3629L37.3827 11.887Z" fill="#5A9C17"/>
</svg>
