<svg width="19" height="23" viewBox="0 0 19 23" fill="none" xmlns="http://www.w3.org/2000/svg">
<path fill-rule="evenodd" clip-rule="evenodd" d="M15.5104 3.48959C13.9163 1.89553 11.7543 1 9.5 1C7.24566 1 5.08365 1.89553 3.48959 3.48959C1.89553 5.08365 1 7.24566 1 9.5C1 12.799 3.13287 15.9271 5.36298 18.2811C6.46781 19.4473 7.57434 20.4004 8.40522 21.062C8.82026 21.3925 9.16551 21.6495 9.40603 21.8232C9.43941 21.8473 9.47076 21.8698 9.5 21.8906C9.52924 21.8698 9.5606 21.8473 9.59398 21.8232C9.83449 21.6495 10.1797 21.3925 10.5948 21.062C11.4257 20.4004 12.5322 19.4473 13.637 18.2811C15.8671 15.9271 18 12.799 18 9.5C18 7.24566 17.1045 5.08365 15.5104 3.48959ZM9.77767 22.9158C9.7775 22.9159 9.77735 22.916 9.5 22.5L9.77735 22.916C9.6094 23.028 9.3906 23.028 9.22265 22.916L9.5 22.5C9.22265 22.916 9.22251 22.9159 9.22233 22.9158L9.2218 22.9155L9.22013 22.9143L9.21436 22.9105L9.19325 22.8962C9.175 22.8838 9.14848 22.8657 9.11424 22.842C9.04577 22.7945 8.9464 22.7248 8.82054 22.6339C8.56887 22.4521 8.21099 22.1856 7.78229 21.8443C6.92567 21.1621 5.7822 20.1777 4.63703 18.9689C2.36713 16.5729 1.15407e-06 13.201 8.30516e-07 9.5C6.1025e-07 6.98045 1.00089 4.56408 2.78249 2.78249C4.56408 1.00089 6.98044 1.05078e-06 9.5 8.30516e-07C12.0196 6.1025e-07 14.4359 1.00089 16.2175 2.78249C17.9991 4.56408 19 6.98044 19 9.5C19 13.201 16.6329 16.5729 14.363 18.9689C13.2178 20.1777 12.0743 21.1621 11.2177 21.8443C10.789 22.1856 10.4311 22.4521 10.1795 22.6339C10.0536 22.7248 9.95423 22.7945 9.88576 22.842C9.85152 22.8657 9.825 22.8838 9.80675 22.8962L9.78565 22.9105L9.77987 22.9143L9.7782 22.9155L9.77767 22.9158ZM12 9.5C12 8.11929 10.8807 7 9.5 7C8.11929 7 7 8.11929 7 9.5C7 10.8807 8.11929 12 9.5 12C10.8807 12 12 10.8807 12 9.5ZM9.5 6C11.433 6 13 7.567 13 9.5C13 11.433 11.433 13 9.5 13C7.567 13 6 11.433 6 9.5C6 7.567 7.567 6 9.5 6Z" fill="#0F0F0F"/>
</svg>
