<svg width="16" height="16" viewBox="0 0 16 16" fill="none" xmlns="http://www.w3.org/2000/svg">
<path d="M15.1363 8.68865L14.8991 8.36479C14.6425 8.01207 14.6361 7.53429 14.8894 7.17516L15.1203 6.84809C15.473 6.34787 15.3095 5.65204 14.7676 5.36025L14.4149 5.17106C14.0301 4.96584 13.8184 4.53616 13.8922 4.10328L13.9595 3.70887C14.0621 3.10604 13.61 2.5481 12.9976 2.52244L12.5967 2.50641C12.1607 2.48717 11.7823 2.19217 11.6604 1.77211L11.5482 1.38732C11.3783 0.797317 10.7305 0.492694 10.1662 0.736392L9.79742 0.893514C9.3966 1.06667 8.92845 0.964058 8.63665 0.636989L8.37051 0.33878C7.96327 -0.116551 7.24821 -0.113345 6.84419 0.351606L6.58125 0.653022C6.29266 0.983297 5.82771 1.09232 5.42368 0.925579L5.05172 0.771665C4.48416 0.537586 3.84285 0.855035 3.67932 1.44504L3.5735 1.83303C3.45806 2.2563 3.0861 2.55772 2.65001 2.58016L2.24919 2.60261C1.63674 2.63788 1.19423 3.20223 1.30646 3.80507L1.38022 4.19947C1.46038 4.62915 1.25516 5.06204 0.873579 5.27367L0.524065 5.46927C-0.0114297 5.76748 -0.165344 6.46651 0.196996 6.96032L0.434281 7.28418C0.690806 7.6369 0.697219 8.11468 0.443901 8.47381L0.213029 8.80088C-0.139692 9.3011 0.0238424 9.99692 0.56575 10.2887L0.918471 10.4779C1.30326 10.6831 1.51489 11.1128 1.44114 11.5457L1.3738 11.9401C1.27119 12.5429 1.72332 13.1009 2.33577 13.1265L2.73659 13.1426C3.17268 13.1618 3.55105 13.4568 3.6729 13.8769L3.78513 14.2616C3.95508 14.8516 4.6028 15.1563 5.16716 14.9126L5.53591 14.7555C5.93673 14.5823 6.40489 14.6849 6.69668 15.012L6.96283 15.3102C7.37327 15.7655 8.08833 15.7623 8.48915 15.2974L8.75209 14.9959C9.04068 14.6657 9.50563 14.5566 9.90965 14.7234L10.2816 14.8773C10.8492 15.1114 11.4905 14.7939 11.654 14.2039L11.7598 13.8159C11.8753 13.3927 12.2472 13.0913 12.6833 13.0688L13.0841 13.0464C13.6966 13.0111 14.1391 12.4467 14.0269 11.8439L13.9531 11.4495C13.873 11.0198 14.0782 10.5869 14.4598 10.3753L14.8093 10.1797C15.3448 9.8847 15.4987 9.18567 15.1363 8.68865ZM4.00638 6.49537C4.00638 5.62318 4.71183 4.91774 5.58401 4.91774C6.45619 4.91774 7.16163 5.62318 7.16163 6.49537C7.16163 7.36755 6.45619 8.07299 5.58401 8.07299C4.71183 8.07299 4.00638 7.36434 4.00638 6.49537ZM5.88863 10.5645C5.75396 10.728 5.51026 10.7505 5.34672 10.6158C5.18319 10.4811 5.16074 10.2374 5.29542 10.0739L9.43508 5.08769C9.56976 4.92415 9.81346 4.90171 9.97699 5.03638C10.1405 5.17106 10.163 5.41476 10.0283 5.57829L5.88863 10.5645ZM9.74291 10.728C8.87073 10.728 8.16529 10.0226 8.16529 9.15039C8.16529 8.27821 8.87073 7.57277 9.74291 7.57277C10.6151 7.57277 11.3205 8.27821 11.3205 9.15039C11.3205 10.0226 10.6151 10.728 9.74291 10.728Z" fill="#5A9C17"/>
</svg>
