<svg width="635" height="286" viewBox="0 0 635 286" fill="none" xmlns="http://www.w3.org/2000/svg">
<path d="M615.493 60.5933H503.119V280.466H615.493V60.5933Z" fill="#D2AB94"/>
<path d="M602.679 188.163H599.175C598.333 188.163 597.653 187.494 597.653 186.665V165.35C597.653 164.521 598.333 163.853 599.175 163.853H602.679C603.522 163.853 604.201 164.521 604.201 165.35V186.665C604.201 187.494 603.522 188.163 602.679 188.163Z" fill="#F2E2C8"/>
<path d="M601.855 178.785C601.855 178.152 601.429 177.644 600.895 177.644C600.37 177.644 599.935 178.152 599.935 178.785C599.935 179.293 600.216 179.703 600.605 179.854L599.935 182.083H601.755L601.149 179.854C601.556 179.73 601.855 179.311 601.855 178.785Z" fill="#606060"/>
<path d="M600.696 172.58C604.142 172.58 606.935 169.83 606.935 166.438C606.935 163.046 604.142 160.296 600.696 160.296C597.25 160.296 594.456 163.046 594.456 166.438C594.456 169.83 597.25 172.58 600.696 172.58Z" fill="#606060"/>
<path d="M603.72 161.062C605.051 163.006 605.55 165.511 604.78 167.722C603.865 170.36 601.031 172.268 598.25 172.09C599.002 172.402 599.826 172.58 600.696 172.58C604.146 172.58 606.935 169.825 606.935 166.438C606.935 164.12 605.64 162.105 603.72 161.062Z" fill="#545453"/>
<path d="M505.898 280.466L505.717 226.3L505.627 172.125L505.5 63.7848V63.3926H505.898L558.921 63.3391L611.943 63.3926H612.342V63.7848L612.215 172.125L612.124 226.3L611.943 280.466L611.771 226.3L611.671 172.125L611.554 63.7848L611.943 64.1682L558.921 64.2306L505.898 64.1682L506.288 63.7848L506.17 172.125L506.071 226.3L505.898 280.466Z" fill="#606060"/>
<path d="M533.936 260.497L517.445 260.426C516.295 260.417 515.371 259.499 515.371 258.366L515.534 221.923C515.543 220.791 516.476 219.882 517.626 219.882L534.117 219.953C535.267 219.962 536.191 220.88 536.191 222.012L536.028 258.456C536.019 259.588 535.086 260.506 533.936 260.497Z" fill="#E57930"/>
<path opacity="0.59" d="M533.669 224.465L518.048 224.396L518.03 228.336L533.651 228.405L533.669 224.465Z" fill="white"/>
<path opacity="0.38" d="M533.642 230.651L518.021 230.583L518.003 234.523L533.624 234.592L533.642 230.651Z" fill="white"/>
<path opacity="0.19" d="M533.615 236.544L517.993 236.476L517.975 240.416L533.597 240.484L533.615 236.544Z" fill="white"/>
<path d="M522.824 244.424C517.581 257.074 515.317 268.128 521.303 270.535C527.615 273.076 533.528 263.484 538.781 250.843C544.024 238.193 546.614 227.272 540.302 224.731C534.316 222.324 528.068 231.774 522.824 244.424Z" fill="#C37134"/>
<path d="M528.095 240.127C528.656 242.133 530.422 244.549 532.423 245.218C534.425 245.886 536.743 245.512 538.427 244.264C535.05 244.059 530.92 242.222 528.258 240.172" fill="#F59052"/>
<path d="M524.871 248.266C525.46 250.263 527.271 252.652 529.281 253.285C531.292 253.918 533.61 253.517 535.267 252.233C531.889 252.082 527.733 250.317 525.034 248.302" fill="#F59052"/>
<path d="M521.864 256.557C522.344 258.26 523.848 260.319 525.55 260.889C527.253 261.46 529.236 261.139 530.667 260.078C527.787 259.909 524.273 258.34 522.009 256.593" fill="#F59052"/>
<path d="M531.78 232.835C532.26 234.538 533.764 236.597 535.466 237.168C537.169 237.738 539.152 237.417 540.583 236.356C537.703 236.187 534.189 234.618 531.925 232.871" fill="#F59052"/>
<path d="M514.031 235.99C518.522 234.011 520.352 228.065 517.68 224.152C512.419 225.444 509.765 232.211 512.89 236.383" fill="#6EA652"/>
<path d="M504.975 230.41C509.132 230.767 512.292 235.17 511.097 238.915C510.988 239.244 510.843 239.583 510.526 239.761C510.237 239.922 509.883 239.904 509.557 239.86C506.071 239.378 503.436 235.83 504.16 232.594" fill="#6EA652"/>
<path d="M519.347 237.72C515.878 238.995 513.714 242.792 514.52 246.207C514.574 246.438 514.665 246.697 514.9 246.804C515.154 246.92 515.444 246.795 515.679 246.661C518.613 245.021 520.198 241.491 519.383 238.379" fill="#6EA652"/>
<path d="M514.827 280.466C517.472 274.52 516.367 268.057 515.008 261.941C514.284 258.661 513.46 255.389 513.052 252.046C512.636 248.649 512.554 245.208 512.826 241.794C513.134 237.925 513.904 234.101 515.081 230.392C515.253 229.839 514.375 229.599 514.202 230.151C512.174 236.552 511.377 243.318 511.929 250.004C512.464 256.512 514.701 262.726 515.38 269.198C515.769 272.862 515.561 276.597 514.039 280.011C513.813 280.537 514.601 280.992 514.827 280.466Z" fill="#2D6E56"/>
<path d="M512.718 242.489C511.287 240.599 510.182 238.496 509.485 236.249C509.313 235.696 508.434 235.937 508.606 236.49C509.331 238.816 510.454 241.001 511.93 242.944C512.075 243.14 512.319 243.238 512.555 243.104C512.754 242.989 512.862 242.677 512.718 242.489Z" fill="#2D6E56"/>
<path d="M515.951 242.632C516.095 244.807 514.683 246.911 512.636 247.722C512.41 247.811 512.247 248.025 512.319 248.275C512.383 248.489 512.654 248.676 512.881 248.587C515.28 247.633 517.028 245.226 516.856 242.632C516.829 242.061 515.914 242.052 515.951 242.632Z" fill="#2D6E56"/>
<path d="M500.203 236.935C499.387 230.784 494.389 225.382 488.24 224.018C490.893 229.536 494.968 234.386 499.985 237.979" fill="#6EA652"/>
<path d="M502.222 237.595C504.459 230.793 502.494 222.823 497.341 217.787C497.178 224.268 498.201 230.784 500.339 236.918" fill="#6EA652"/>
<path d="M502.186 236.151C505.129 233.548 506.252 229.135 504.912 225.471C501.724 228.627 499.75 232.941 499.451 237.381" fill="#83BA63"/>
<path d="M501.263 237.863C501.679 232.746 499.37 227.495 495.295 224.286C494.887 228.85 496.345 233.548 499.27 237.114" fill="#83BA63"/>
<path d="M500.411 236.775C501.326 235.152 503.961 235.322 505.283 236.65C506.596 237.978 506.931 239.958 507.176 241.794C508.262 250.111 508.751 258.5 509.231 266.871C508.371 267.183 507.628 266.238 507.221 265.427C503.263 257.546 500.012 249.318 497.504 240.885C497.259 240.073 497.024 239.2 497.259 238.38C497.495 237.559 498.41 236.873 499.216 237.185" fill="#FF9B4B"/>
<path d="M500.303 239.218C499.451 239.449 498.591 239.681 497.74 239.904C497.414 239.993 497.187 240.359 497.287 240.68C497.396 241.01 497.731 241.215 498.075 241.125C498.926 240.894 499.786 240.662 500.638 240.439C500.964 240.35 501.19 239.984 501.09 239.663C500.991 239.334 500.656 239.129 500.303 239.218Z" fill="#E0853D"/>
<path d="M506.397 241.455C505.61 241.678 504.822 241.901 504.034 242.133C503.708 242.222 503.472 242.587 503.581 242.908C503.69 243.229 504.025 243.452 504.369 243.354C505.157 243.131 505.945 242.908 506.732 242.677C507.058 242.587 507.294 242.222 507.185 241.901C507.086 241.58 506.751 241.357 506.397 241.455Z" fill="#E0853D"/>
<path d="M501.552 245.94C500.945 246.082 500.347 246.269 499.768 246.492C499.605 246.555 499.478 246.635 499.388 246.786C499.306 246.92 499.27 247.125 499.324 247.277C499.379 247.428 499.469 247.58 499.623 247.651C499.768 247.723 499.958 247.776 500.121 247.714C500.701 247.491 501.298 247.304 501.905 247.161C502.231 247.081 502.457 246.697 502.358 246.385C502.24 246.047 501.905 245.859 501.552 245.94Z" fill="#E0853D"/>
<path d="M507.393 248.453C506.805 248.65 506.207 248.837 505.619 249.033C505.455 249.086 505.32 249.175 505.238 249.327C505.157 249.461 505.12 249.666 505.175 249.817C505.274 250.129 505.628 250.37 505.963 250.263C506.551 250.067 507.149 249.88 507.738 249.684C507.901 249.63 508.036 249.541 508.118 249.389C508.199 249.256 508.236 249.051 508.181 248.899C508.082 248.578 507.738 248.337 507.393 248.453Z" fill="#E0853D"/>
<path d="M503.771 253.57C503.354 253.642 502.938 253.713 502.521 253.784C502.367 253.811 502.213 253.954 502.141 254.079C502.059 254.212 502.023 254.417 502.078 254.569C502.132 254.72 502.223 254.872 502.376 254.943C502.431 254.961 502.476 254.988 502.53 255.006C502.648 255.032 502.757 255.032 502.875 255.006C503.291 254.934 503.708 254.863 504.124 254.792C504.278 254.765 504.432 254.622 504.505 254.498C504.586 254.364 504.622 254.159 504.568 254.007C504.514 253.856 504.423 253.704 504.269 253.633C504.215 253.615 504.17 253.588 504.115 253.57C504.007 253.544 503.889 253.544 503.771 253.57Z" fill="#E0853D"/>
<path d="M508.018 255.781C507.647 255.924 507.266 256.022 506.877 256.075C506.931 256.066 506.995 256.058 507.049 256.049C506.995 256.058 506.931 256.066 506.877 256.066C506.786 256.066 506.705 256.084 506.632 256.12C506.551 256.147 506.488 256.191 506.424 256.254C506.315 256.361 506.225 256.548 506.234 256.699C506.243 256.86 506.297 257.029 506.424 257.145C506.542 257.252 506.714 257.35 506.877 257.332C507.384 257.279 507.882 257.181 508.362 256.994C508.444 256.976 508.516 256.94 508.579 256.878C508.652 256.833 508.706 256.771 508.743 256.699C508.824 256.566 508.86 256.361 508.806 256.209C508.752 256.058 508.661 255.906 508.507 255.835C508.371 255.772 508.181 255.719 508.018 255.781Z" fill="#E0853D"/>
<path d="M502.196 235.037C501.915 235.233 501.625 235.402 501.317 235.563C501 235.723 500.819 235.794 500.457 235.91C500.131 236.017 499.796 236.097 499.461 236.151C499.452 236.151 499.252 236.178 499.361 236.169C499.27 236.178 499.18 236.187 499.089 236.196C498.908 236.213 498.727 236.222 498.546 236.222C498.211 236.222 497.885 236.508 497.903 236.855C497.921 237.194 498.184 237.497 498.546 237.488C500.076 237.47 501.598 237.007 502.848 236.133C503.119 235.946 503.273 235.572 503.074 235.268C502.902 234.992 502.485 234.832 502.196 235.037Z" fill="#E0853D"/>
<path d="M488.475 241.999C490.983 238.103 489.226 232.211 484.979 230.258C481.484 233.967 483.032 240.956 487.778 242.89" fill="#6EA652"/>
<path d="M478.242 241.848C481.747 240.074 486.646 242.177 487.715 245.913C487.805 246.234 487.869 246.599 487.715 246.902C487.57 247.179 487.28 247.339 486.99 247.464C483.947 248.801 479.936 247.143 478.758 244.076" fill="#6EA652"/>
<path d="M493.655 240.796C491.581 243.595 491.916 247.856 494.398 250.308C494.57 250.477 494.778 250.646 495.023 250.62C495.285 250.593 495.448 250.334 495.566 250.112C497.015 247.268 496.372 243.532 494.045 241.331" fill="#6EA652"/>
<path d="M497.875 257.618C492.496 251.618 488.538 244.477 486.311 236.793C486.148 236.24 485.269 236.472 485.432 237.034C487.696 244.879 491.744 252.144 497.232 258.259C497.621 258.687 498.264 258.046 497.875 257.618Z" fill="#2D6E56"/>
<path d="M490.875 248.043C488.738 247.187 486.755 245.975 485.025 244.477C484.581 244.094 483.938 244.727 484.382 245.11C486.238 246.715 488.348 247.99 490.63 248.899C490.857 248.988 491.129 248.801 491.192 248.587C491.264 248.337 491.101 248.132 490.875 248.043Z" fill="#2D6E56"/>
<path d="M493.574 246.599C494.869 248.355 494.905 250.798 493.655 252.59C493.32 253.071 494.108 253.517 494.443 253.044C495.856 251.012 495.829 248.141 494.362 246.144C494.018 245.681 493.23 246.135 493.574 246.599Z" fill="#2D6E56"/>
<path d="M541.461 246.617L537.151 280.511L485.17 280.858L477.554 246.965L541.461 246.617Z" fill="#F2E2C8"/>
<path d="M484.871 280.859L477.554 246.965L483.159 246.929C485.287 250.727 486.555 255.077 487.742 259.356C489.136 264.375 490.54 269.501 493.293 273.807C495.267 276.892 498.083 279.513 501.289 280.743L484.871 280.859Z" fill="white"/>
<path d="M471.214 280.921L491.617 280.707L512.02 280.582L552.835 280.475L593.641 280.582L614.044 280.707L634.456 280.921L614.044 281.143L593.641 281.268L552.835 281.366L512.02 281.259L491.617 281.135L471.214 280.921Z" fill="#606060"/>
<path d="M160.562 0.222716C139.842 -2.02379 121.196 12.6855 118.914 33.0824C117.483 45.8572 122.817 57.8386 132.099 65.5587C132.262 65.9153 132.552 66.1738 133.014 66.2897C133.032 66.2986 133.041 66.3165 133.059 66.3254L126.339 85.5098C125.977 86.544 127.336 87.3819 128.223 86.6688L145.456 72.6994C147.657 73.3502 149.939 73.8316 152.303 74.0901C173.023 76.3366 191.669 61.6273 193.951 41.2304C196.215 20.8246 181.272 2.47814 160.562 0.222716Z" fill="white"/>
<path d="M160.561 0.223575C156.567 -0.141929 152.528 0.0452806 148.598 0.847605L145.682 1.56078L142.848 2.55032C142.612 2.63055 142.377 2.71078 142.141 2.79993L141.462 3.11194L140.104 3.73598C139.651 3.94993 139.189 4.13714 138.754 4.37783L137.459 5.12667C130.486 9.04915 125.017 15.334 121.82 22.5371C120.244 26.1654 119.366 30.0433 118.949 33.9569C118.614 37.8794 118.877 41.8553 119.837 45.6797C121.648 53.3553 126.121 60.3444 132.207 65.4258L132.234 65.4526L132.252 65.4882C132.397 65.8181 132.696 66.041 133.058 66.1301L133.094 66.139L133.122 66.1568L133.167 66.1925L133.257 66.2638L133.221 66.3708L129.499 77.0506L127.634 82.3905L126.701 85.065C126.638 85.2789 126.52 85.5374 126.493 85.7068C126.456 85.894 126.502 86.0902 126.601 86.2506C126.801 86.5805 127.244 86.7766 127.625 86.7142C127.824 86.6785 127.987 86.5894 128.159 86.4467L128.711 86.001L129.816 85.1006L132.026 83.2999L136.445 79.6983L145.311 72.522L145.401 72.4506L145.51 72.4863C148 73.2173 150.563 73.77 153.153 73.9305C155.743 74.1444 158.36 74.1355 160.941 73.8235C166.103 73.2173 171.138 71.5324 175.612 68.9115C184.586 63.7231 191.26 54.7103 193.271 44.6011C194.321 39.5732 194.312 34.3224 193.208 29.3034C192.112 24.2844 189.92 19.4972 186.859 15.3429C183.798 11.1798 179.85 7.64954 175.34 5.05535C170.83 2.45226 165.759 0.794117 160.561 0.223575ZM160.561 0.223575C165.768 0.776288 170.848 2.4166 175.367 5.00187C179.895 7.58713 183.862 11.1174 186.941 15.2716C190.029 19.4259 192.239 24.222 193.361 29.2588C194.493 34.2956 194.521 39.5642 193.479 44.6278C191.496 54.7995 184.804 63.9014 175.775 69.17C171.274 71.8266 166.203 73.5471 160.987 74.1712C158.379 74.4921 155.743 74.5189 153.117 74.3049C150.491 74.1534 147.901 73.6006 145.383 72.8696L145.583 72.834L136.735 80.0192L132.298 83.603L130.079 85.3948L128.974 86.2863L128.422 86.732C128.231 86.8925 127.969 87.044 127.688 87.0797C127.127 87.1688 126.547 86.9103 126.257 86.4289C126.112 86.1882 126.049 85.894 126.103 85.6177C126.167 85.3235 126.257 85.1541 126.33 84.9134L127.271 82.2479L129.155 76.908L132.913 66.2371L132.968 66.4154L132.922 66.3797L132.986 66.4065C132.56 66.3084 132.135 66.0053 131.962 65.5863L132.008 65.6398C125.886 60.496 121.403 53.4355 119.61 45.7065C118.659 41.8553 118.406 37.8526 118.759 33.9123C119.185 29.9809 120.081 26.0852 121.684 22.448C124.917 15.2181 130.432 8.93326 137.432 5.02861L138.727 4.27977C139.171 4.03908 139.633 3.85187 140.086 3.63791L141.453 3.01388L142.132 2.70187C142.368 2.61272 142.603 2.53249 142.839 2.45226L145.682 1.47164L148.607 0.767373C152.519 0.0274512 156.558 -0.150843 160.561 0.223575Z" fill="#1D1D1B"/>
<path d="M176.228 50.6802H158.968C157.818 50.6802 156.885 49.762 156.885 48.6298V22.6612C156.885 21.5291 157.818 20.6108 158.968 20.6108H176.228C177.378 20.6108 178.311 21.5291 178.311 22.6612V48.6298C178.302 49.762 177.369 50.6802 176.228 50.6802Z" fill="#E57930"/>
<path opacity="0.59" d="M175.694 23.9539H159.493V26.8779H175.694V23.9539Z" fill="white"/>
<path opacity="0.38" d="M175.694 28.5449H159.493V31.469H175.694V28.5449Z" fill="white"/>
<path opacity="0.19" d="M175.694 32.9131H159.493V35.8371H175.694V32.9131Z" fill="white"/>
<path d="M176.3 56.519H148.227C147.883 56.519 147.611 56.2515 147.611 55.9128V36.657C147.611 36.3182 147.883 36.0508 148.227 36.0508H176.3C176.645 36.0508 176.916 36.3182 176.916 36.657V55.9128C176.916 56.2515 176.635 56.519 176.3 56.519Z" fill="#6EA652"/>
<path d="M176.961 40.7666H147.565V41.4709H176.961V40.7666Z" fill="#5A9C17"/>
<path d="M179.108 40.5092H145.411C145.211 40.5092 145.048 40.3488 145.048 40.1526V36.4174C145.048 36.2213 145.211 36.0608 145.411 36.0608H179.108C179.307 36.0608 179.47 36.2213 179.47 36.4174V40.1526C179.479 40.3488 179.316 40.5092 179.108 40.5092Z" fill="#6EA652"/>
<path d="M174.734 43.1379H149.785V51.1879H174.734V43.1379Z" fill="#5A9C17"/>
<path d="M149.857 55.7701C147.203 53.9605 145.773 50.5194 146.325 47.3279C146.887 44.1364 149.413 41.355 152.528 40.5081C155.644 39.6612 159.175 40.7934 161.204 43.2895C161.892 44.1364 162.417 45.126 162.725 46.1868C163.395 48.5225 162.934 51.1791 161.512 53.167C160.09 55.1639 157.735 56.4477 155.309 56.5635" fill="#D34C4C"/>
<path d="M146.886 37.2278C150.735 46.7576 152.356 55.0572 147.864 56.7867C143.119 58.6142 138.754 51.3665 134.905 41.8367C131.057 32.3069 129.182 24.0964 133.927 22.2778C138.419 20.5483 143.038 27.6979 146.886 37.2278Z" fill="#C37134"/>
<path d="M142.965 33.9473C142.53 35.436 141.199 37.2279 139.696 37.7093C138.193 38.1818 136.454 37.8787 135.204 36.9248C137.731 36.8089 140.837 35.4895 142.838 33.9829" fill="#F59052"/>
<path d="M140.258 28.4468C139.896 29.7216 138.745 31.246 137.469 31.6472C136.192 32.0572 134.707 31.7898 133.647 30.9786C135.802 30.8805 138.447 29.7572 140.149 28.4735" fill="#F59052"/>
<path d="M140.919 56.2338C138.772 55.3245 137.342 53.1047 137.169 50.8137C136.997 48.5226 137.975 46.2226 139.569 44.5466C140.276 43.8067 141.1 43.1648 142.06 42.7904C144.622 41.7831 147.674 42.9152 149.549 44.9121C151.505 46.9803 152.429 50.0827 151.496 52.7571C150.563 55.4315 147.575 57.3838 144.767 56.7954C143.916 56.6171 142.965 56.2516 142.232 56.7241" fill="#EFB93F"/>
<path d="M176.88 55.592H138.963V57.1878H176.88V55.592Z" fill="#38303B"/>
<path d="M176.408 57.1684L185.9 31.0012L184.323 30.4466L174.83 56.6138L176.408 57.1684Z" fill="#38303B"/>
<path d="M140.572 56.6181L131.079 30.4509L129.501 31.0056L138.994 57.1728L140.572 56.6181Z" fill="#38303B"/>
<path d="M186.823 31.6919H128.784C127.761 31.6919 126.937 30.8807 126.937 29.8733C126.937 28.8659 127.761 28.0547 128.784 28.0547H186.823C187.846 28.0547 188.671 28.8659 188.671 29.8733C188.671 30.8717 187.846 31.6919 186.823 31.6919Z" fill="#38303B"/>
<path d="M137.776 29.4987L137.731 29.4452C137.296 28.9816 137.324 28.2595 137.795 27.8405L154.729 12.4092C155.2 11.9813 155.933 12.008 156.359 12.4716L156.404 12.5251C156.839 12.9886 156.812 13.7107 156.341 14.1297L139.406 29.5611C138.945 29.989 138.211 29.9622 137.776 29.4987Z" fill="#38303B"/>
<path d="M178.22 29.8463L178.274 29.7928C178.727 29.3471 178.727 28.625 178.274 28.1793L161.955 12.1239C161.503 11.6781 160.769 11.6781 160.316 12.1239L160.262 12.1773C159.809 12.6231 159.809 13.3452 160.262 13.7909L176.581 29.8552C177.033 30.2921 177.767 30.2921 178.22 29.8463Z" fill="#38303B"/>
<path d="M144.46 30.1406L149.577 56.5193" stroke="#38303B" stroke-miterlimit="10"/>
<path d="M172.932 30.1406L167.815 56.5193" stroke="#38303B" stroke-miterlimit="10"/>
<path d="M158.922 30.0959L159.692 55.7436" stroke="#38303B" stroke-miterlimit="10"/>
<path d="M180.348 43.905L135.34 43.7534" stroke="#38303B" stroke-miterlimit="10"/>
<path d="M200.235 43.0669L202.49 43.1828V43.2006L200.235 43.0669Z" fill="#1D1D1B"/>
<path d="M206.972 43.6997L211.383 44.6447L211.365 44.716L206.963 43.7532L206.972 43.6997Z" fill="#1D1D1B"/>
<path d="M215.675 46.0444C217.079 46.5882 218.446 47.2033 219.786 47.8987L219.723 48.0235C218.401 47.3282 217.033 46.6952 215.639 46.1425L215.675 46.0444Z" fill="#1D1D1B"/>
<path d="M223.672 50.1719L227.312 52.8017L227.186 52.9533L223.572 50.3145L223.672 50.1719Z" fill="#1D1D1B"/>
<path d="M230.735 55.7078L233.968 58.819L233.769 58.9973L230.572 55.8771L230.735 55.7078Z" fill="#1D1D1B"/>
<path d="M237.038 62.073L239.999 65.4339L239.745 65.6389L236.82 62.2691L237.038 62.073Z" fill="#1D1D1B"/>
<path d="M242.888 68.8481L245.723 72.3071L245.415 72.5478L242.607 69.071L242.888 68.8481Z" fill="#1D1D1B"/>
<path d="M248.548 75.7661L251.374 79.2339L251.02 79.5103L248.222 76.0246L248.548 75.7661Z" fill="#1D1D1B"/>
<path d="M254.217 82.6748L257.097 86.0981L256.726 86.3923L253.855 82.969L254.217 82.6748Z" fill="#1D1D1B"/>
<path d="M260.013 89.4771L262.992 92.8112L262.621 93.141L259.65 89.7891L260.013 89.4771Z" fill="#1D1D1B"/>
<path d="M266.026 96.0916L269.123 99.3187L268.752 99.6664L265.655 96.4303L266.026 96.0916Z" fill="#1D1D1B"/>
<path d="M272.283 102.474L275.543 105.532L275.172 105.924L271.912 102.849L272.283 102.474Z" fill="#1D1D1B"/>
<path d="M278.922 108.465L282.418 111.256L282.074 111.692L278.56 108.875L278.922 108.465Z" fill="#1D1D1B"/>
<path d="M286.031 113.894L289.753 116.382L289.436 116.863L285.696 114.358L286.031 113.894Z" fill="#1D1D1B"/>
<path d="M293.601 118.682L297.549 120.786L297.278 121.32L293.302 119.19L293.601 118.682Z" fill="#1D1D1B"/>
<path d="M301.624 122.675L305.799 124.307L305.582 124.886L301.38 123.228L301.624 122.675Z" fill="#1D1D1B"/>
<path d="M310.074 125.653L314.439 126.687L314.312 127.311L309.902 126.259L310.074 125.653Z" fill="#1D1D1B"/>
<path d="M318.877 127.365L323.35 127.65L323.332 128.309L318.804 128.006L318.877 127.365Z" fill="#1D1D1B"/>
<path d="M327.833 127.552L332.324 127.249L332.388 127.926L327.869 128.22L327.833 127.552Z" fill="#1D1D1B"/>
<path d="M336.798 126.767L341.244 126.09L341.371 126.776L336.888 127.454L336.798 126.767Z" fill="#1D1D1B"/>
<path d="M345.646 125.18L349.983 124.021L350.192 124.717L345.809 125.867L345.646 125.18Z" fill="#1D1D1B"/>
<path d="M354.24 122.622L358.396 120.955L358.704 121.632L354.493 123.308L354.24 122.622Z" fill="#1D1D1B"/>
<path d="M362.444 119.038L366.384 116.89L366.773 117.549L362.797 119.707L362.444 119.038Z" fill="#1D1D1B"/>
<path d="M370.205 114.554L373.927 112.076L374.389 112.718L370.631 115.205L370.205 114.554Z" fill="#1D1D1B"/>
<path d="M377.595 109.491L381.235 106.87L381.715 107.52L378.075 110.141L377.595 109.491Z" fill="#1D1D1B"/>
<path d="M384.876 104.248C386.108 103.384 387.33 102.519 388.525 101.654L389.033 102.314C387.81 103.197 386.578 104.052 385.356 104.908L384.876 104.248Z" fill="#1D1D1B"/>
<path d="M392.002 98.855L395.217 95.7883L395.842 96.3767L392.564 99.488L392.002 98.855Z" fill="#1D1D1B"/>
<path d="M398.098 92.4367C398.994 91.2688 399.809 90.0475 400.534 88.7727L401.312 89.2006C400.57 90.5111 399.719 91.7681 398.804 92.9626L398.098 92.4367Z" fill="#1D1D1B"/>
<path d="M402.345 84.7877C402.825 83.4148 403.16 81.9974 403.314 80.5532L404.21 80.6513C404.047 82.1668 403.694 83.6466 403.196 85.073L402.345 84.7877Z" fill="#1D1D1B"/>
<path d="M403.223 76.2385C403.105 75.5253 402.951 74.8211 402.743 74.1346C402.544 73.4393 402.263 72.7707 401.991 72.0932L402.806 71.7544C403.087 72.4497 403.386 73.154 403.594 73.885C403.821 74.616 403.984 75.3559 404.11 76.1048L403.223 76.2385Z" fill="#1D1D1B"/>
<path d="M399.827 68.3222C398.949 67.1722 397.907 66.147 396.694 65.3714L397.165 64.6582C398.478 65.4962 399.601 66.5927 400.525 67.8051L399.827 68.3222Z" fill="#1D1D1B"/>
<path d="M392.673 63.856C391.948 63.7757 391.233 63.6866 390.5 63.7312C389.775 63.7579 389.042 63.8471 388.326 63.9897L388.163 63.1785C388.924 63.0269 389.694 62.9288 390.472 62.9021C391.251 62.8575 392.03 62.9378 392.809 63.0269L392.673 63.856Z" fill="#1D1D1B"/>
<path d="M384.187 65.425C382.874 66.0847 381.652 66.9048 380.565 67.8765L380.013 67.2882C381.154 66.254 382.44 65.3893 383.807 64.7029L384.187 65.425Z" fill="#1D1D1B"/>
<path d="M377.912 71.2552C377.595 71.8881 377.323 72.5834 377.078 73.261C376.843 73.9474 376.644 74.6517 376.481 75.3559L375.711 75.1865C375.874 74.4466 376.082 73.7245 376.327 73.0024C376.58 72.2803 376.852 71.5939 377.196 70.8896L377.912 71.2552Z" fill="#1D1D1B"/>
<path d="M375.964 79.6974C375.937 81.1505 376.055 82.6125 376.29 84.0567L375.53 84.1815C375.285 82.7017 375.158 81.1951 375.177 79.6885L375.964 79.6974Z" fill="#1D1D1B"/>
<path d="M377.35 88.3091L378.111 90.3773C378.247 90.7161 378.419 91.037 378.564 91.3758L379.026 92.3653L378.364 92.704L377.885 91.6789C377.731 91.3401 377.549 91.0013 377.414 90.6537L376.635 88.5409L377.35 88.3091Z" fill="#1D1D1B"/>
<path d="M381.335 96.1272L384.015 99.6663L383.454 100.121L380.728 96.5373L381.335 96.1272Z" fill="#1D1D1B"/>
<path d="M386.931 103.027L390.038 106.228L389.54 106.718L386.406 103.5L386.931 103.027Z" fill="#1D1D1B"/>
<path d="M393.307 109.268L396.739 112.12L396.322 112.646L392.845 109.776L393.307 109.268Z" fill="#1D1D1B"/>
<path d="M400.37 114.715L402.272 115.865L404.237 116.943L403.92 117.514L401.946 116.435L399.999 115.267L400.37 114.715Z" fill="#1D1D1B"/>
<path d="M408.213 119.038L412.234 121.026L411.953 121.597L407.914 119.609L408.213 119.038Z" fill="#1D1D1B"/>
<path d="M416.318 122.889L420.474 124.574L420.257 125.145L416.064 123.451L416.318 122.889Z" fill="#1D1D1B"/>
<path d="M424.722 126.018C426.153 126.446 427.602 126.812 429.069 127.088L428.96 127.668C427.466 127.4 425.999 127.026 424.55 126.598L424.722 126.018Z" fill="#1D1D1B"/>
<path d="M433.515 127.534L438.006 127.525L438.034 128.087L433.497 128.113L433.515 127.534Z" fill="#1D1D1B"/>
<path d="M442.471 127.097C443.947 126.874 445.414 126.58 446.854 126.197L446.999 126.722C445.532 127.115 444.046 127.418 442.552 127.65L442.471 127.097Z" fill="#1D1D1B"/>
<path d="M451.101 124.788C452.487 124.235 453.827 123.585 455.131 122.863L455.394 123.317C454.08 124.057 452.713 124.717 451.309 125.278L451.101 124.788Z" fill="#1D1D1B"/>
<path d="M458.88 120.447C460.076 119.564 461.217 118.61 462.313 117.603L462.666 117.969C461.57 118.994 460.411 119.965 459.197 120.857L458.88 120.447Z" fill="#1D1D1B"/>
<path d="M465.41 114.411L468.235 110.961L468.625 111.247L465.79 114.732L465.41 114.411Z" fill="#1D1D1B"/>
<path d="M470.843 107.351C471.685 106.13 472.573 104.917 473.433 103.705L473.814 103.972C472.953 105.185 472.075 106.388 471.233 107.618L470.843 107.351Z" fill="#1D1D1B"/>
<path d="M476.168 100.148L479.075 96.7334L479.392 97.0098L476.531 100.433L476.168 100.148Z" fill="#1D1D1B"/>
<path d="M482.172 93.4796L485.505 90.4575L485.74 90.7339L482.453 93.756L482.172 93.4796Z" fill="#1D1D1B"/>
<path d="M489.1 87.7386C490.341 86.8917 491.636 86.1161 492.967 85.4119L493.112 85.6704C491.79 86.3747 490.522 87.1592 489.29 88.0061L489.1 87.7386Z" fill="#1D1D1B"/>
<path d="M497.087 83.5664C498.5 83.0316 499.94 82.5858 501.407 82.2292L501.461 82.4521C500.012 82.8176 498.581 83.2723 497.187 83.8161L497.087 83.5664Z" fill="#1D1D1B"/>
<path d="M505.844 81.3736C507.338 81.1685 508.842 81.0526 510.354 81.0259V81.1953C508.851 81.2309 507.357 81.3557 505.871 81.5697L505.844 81.3736Z" fill="#1D1D1B"/>
<path d="M514.873 81.2129C516.377 81.3644 517.862 81.6051 519.338 81.935L519.311 82.042C517.844 81.7121 516.358 81.4892 514.864 81.3466L514.873 81.2129Z" fill="#1D1D1B"/>
<path d="M523.648 83.2544C525.052 83.7982 526.41 84.4579 527.687 85.2513L527.66 85.2869C526.383 84.5114 525.025 83.8606 523.621 83.3257L523.648 83.2544Z" fill="#1D1D1B"/>
<path d="M531.246 88.0415L532.722 89.7264L531.237 88.0504L531.246 88.0415Z" fill="#1D1D1B"/>
<path d="M538.291 30.8893C528.765 30.8269 520.985 38.9571 520.922 49.0396C520.85 59.1311 537.92 86.009 537.92 86.009C537.92 86.009 555.353 59.354 555.416 49.2625C555.489 39.18 547.818 30.9517 538.291 30.8893ZM538.11 57.6334C532.985 57.5978 528.864 53.4079 528.9 48.2819C528.937 43.147 533.111 39.0106 538.237 39.0462C543.363 39.0819 547.483 43.2718 547.447 48.3978C547.411 53.5327 543.236 57.6691 538.11 57.6334Z" fill="black"/>
<path d="M541.271 92.9182C541.271 94.5496 539.922 95.8779 538.264 95.8779C536.607 95.8779 535.258 94.5496 535.258 92.9182C535.258 91.2868 536.607 89.9585 538.264 89.9585C539.931 89.9585 541.271 91.2868 541.271 92.9182Z" fill="#F2E2C8"/>
<path d="M238.479 280.921L262.64 280.707L286.801 280.582L335.123 280.475L383.454 280.582L407.616 280.707L431.777 280.921L407.616 281.143L383.454 281.268L335.123 281.366L286.801 281.259L262.64 281.135L238.479 280.921Z" fill="#606060"/>
<path d="M344.758 243.746C344.215 241.312 345.754 238.87 345.673 236.392C344.369 236.784 342.874 236.793 341.561 236.418C341.416 236.374 341.235 236.329 341.118 236.409C341.036 236.463 341.018 236.543 341 236.623C340.601 238.495 340.411 240.448 339.315 242.142C339.125 242.436 338.935 242.828 339.252 243.042" fill="#E89C82"/>
<path d="M362.037 249.336C357.88 249.568 354.466 249.755 350.309 249.987C349.032 250.058 347.701 250.12 346.551 249.603C345.917 249.318 345.292 248.854 344.604 248.997C344.07 249.104 343.707 249.55 343.227 249.781C342.802 249.987 342.313 250.004 341.833 250.022C340.375 250.085 338.926 250.138 337.468 250.2C336.988 250.218 336.463 250.227 336.091 249.942C335.657 249.612 335.62 249.024 335.63 248.498C335.684 246.447 336.046 244.397 336.698 242.436C336.843 241.99 337.069 241.491 337.549 241.339C337.993 241.206 338.464 241.419 338.872 241.625C340.538 242.445 342.72 242.997 344.215 241.937C344.604 241.66 344.921 241.286 345.374 241.107C345.872 240.902 346.442 240.974 346.977 241.054C351.604 241.74 356.132 242.988 360.407 244.754C361.375 245.155 362.381 245.618 362.969 246.43C363.558 247.241 363.54 248.507 362.661 249.059" fill="#00021C"/>
<path d="M273.832 133.07C270.961 129.201 272.03 123.496 275.96 121.695C279.782 125.394 279.03 132.187 274.611 133.97" fill="#6EA652"/>
<path d="M283.812 133.168C280.189 131.349 275.634 133.293 275 136.912C274.946 137.224 274.919 137.581 275.109 137.875C275.281 138.151 275.58 138.312 275.879 138.446C278.994 139.818 282.743 138.303 283.549 135.334" fill="#6EA652"/>
<path d="M268.644 131.769C270.971 134.55 271.116 138.704 268.96 141.04C268.816 141.2 268.625 141.361 268.381 141.325C268.127 141.289 267.928 141.04 267.792 140.808C266.063 138 266.289 134.363 268.327 132.268" fill="#6EA652"/>
<path d="M254.607 168.461C254.987 162.524 258.881 157.871 262.73 153.618C264.686 151.452 266.67 149.313 268.39 146.959C270.274 144.383 271.859 141.601 273.126 138.686C274.584 135.343 275.626 131.858 276.269 128.274C276.368 127.712 275.49 127.463 275.39 128.033C274.222 134.541 271.705 140.772 267.838 146.184C264.442 150.926 259.86 154.751 256.717 159.689C255.015 162.355 253.892 165.306 253.692 168.461C253.656 169.041 254.562 169.041 254.607 168.461Z" fill="#2D6E56"/>
<path d="M272.437 139.774C274.547 138.945 276.485 137.75 278.152 136.217C278.577 135.816 277.934 135.183 277.509 135.584C275.969 137.01 274.167 138.142 272.202 138.918C271.976 139.007 271.813 139.221 271.885 139.471C271.93 139.676 272.202 139.863 272.437 139.774Z" fill="#2D6E56"/>
<path d="M268.553 136.983C267.195 139.114 267.738 141.913 269.25 143.821C269.404 144.017 269.73 143.973 269.893 143.821C270.083 143.634 270.047 143.375 269.893 143.188C268.625 141.601 268.218 139.203 269.341 137.438C269.649 136.948 268.861 136.493 268.553 136.983Z" fill="#2D6E56"/>
<path d="M273.41 136.156C274.418 127.409 272.765 120.043 269.719 119.704C266.673 119.364 263.386 126.179 262.378 134.926C261.371 143.673 263.023 151.039 266.07 151.378C269.116 151.718 272.402 144.902 273.41 136.156Z" fill="#C37134"/>
<path d="M264.876 131.332C265.582 132.482 267.104 133.676 268.462 133.739C269.821 133.81 271.197 133.177 272.021 132.107C269.893 132.562 267.004 132.134 264.985 131.323" fill="#F59052"/>
<path d="M264.323 136.939C265.048 138.071 266.587 139.248 267.946 139.293C269.304 139.346 270.671 138.686 271.477 137.608C269.358 138.098 266.46 137.715 264.432 136.93" fill="#F59052"/>
<path d="M263.925 142.6C264.523 143.58 265.827 144.596 266.986 144.65C268.145 144.712 269.314 144.178 270.011 143.268C268.2 143.66 265.736 143.295 264.016 142.6" fill="#F59052"/>
<path d="M265.863 126.179C266.461 127.16 267.765 128.176 268.924 128.229C270.083 128.292 271.252 127.757 271.949 126.848C270.138 127.24 267.674 126.874 265.954 126.179" fill="#F59052"/>
<path d="M257.939 123.808L257.921 120.474L262.205 120.447L262.223 123.603C262.232 124.69 262.703 125.724 263.536 126.446L264.867 127.605C266.108 128.684 266.832 130.235 266.841 131.867L266.995 158.058C266.995 158.789 266.397 159.386 265.655 159.395L254.924 159.458C254.181 159.458 253.574 158.869 253.565 158.138L253.411 132.063C253.402 130.36 254.163 128.746 255.476 127.65L256.554 126.758C257.432 126.018 257.939 124.94 257.939 123.808Z" fill="#F2E2C8"/>
<path d="M249.979 138.392C249.164 132.241 244.165 126.839 238.016 125.475C240.669 130.993 244.745 135.842 249.762 139.435" fill="#6EA652"/>
<path d="M251.999 139.052C254.235 132.25 252.27 124.28 247.117 119.243C246.954 125.724 247.978 132.241 250.115 138.374" fill="#6EA652"/>
<path d="M251.962 137.608C254.905 135.004 256.028 130.592 254.688 126.928C251.5 130.084 249.526 134.398 249.227 138.838" fill="#83BA63"/>
<path d="M251.039 139.319C251.456 134.202 249.146 128.951 245.071 125.742C244.664 130.307 246.122 135.005 249.047 138.57" fill="#83BA63"/>
<path d="M250.187 138.232C251.102 136.609 253.737 136.779 255.059 138.107C256.372 139.435 256.707 141.414 256.952 143.251C258.039 151.568 258.528 159.957 259.008 168.328C258.147 168.64 257.405 167.695 256.997 166.884C253.04 159.003 249.789 150.775 247.28 142.341C247.036 141.53 246.8 140.657 247.036 139.836C247.271 139.016 248.186 138.33 248.992 138.642" fill="#FF9B4B"/>
<path d="M250.079 140.683C249.228 140.915 248.367 141.147 247.516 141.37C247.19 141.459 246.964 141.824 247.063 142.145C247.172 142.475 247.507 142.68 247.851 142.591C248.702 142.359 249.563 142.128 250.414 141.905C250.74 141.816 250.966 141.45 250.867 141.129C250.767 140.799 250.432 140.585 250.079 140.683Z" fill="#E0853D"/>
<path d="M256.173 142.921C255.385 143.144 254.597 143.367 253.809 143.598C253.483 143.688 253.248 144.053 253.356 144.374C253.465 144.695 253.8 144.918 254.144 144.82C254.932 144.597 255.72 144.374 256.508 144.142C256.834 144.053 257.069 143.688 256.961 143.367C256.861 143.037 256.517 142.823 256.173 142.921Z" fill="#E0853D"/>
<path d="M251.328 147.405C250.722 147.548 250.124 147.735 249.544 147.958C249.381 148.02 249.254 148.1 249.164 148.252C249.082 148.386 249.046 148.591 249.101 148.742C249.155 148.894 249.245 149.045 249.399 149.117C249.544 149.188 249.734 149.241 249.897 149.179C250.477 148.956 251.075 148.769 251.681 148.626C252.007 148.546 252.234 148.163 252.134 147.851C252.017 147.512 251.681 147.325 251.328 147.405Z" fill="#E0853D"/>
<path d="M257.169 149.91C256.581 150.106 255.983 150.293 255.394 150.49C255.231 150.543 255.096 150.632 255.014 150.784C254.933 150.917 254.896 151.122 254.951 151.274C255.05 151.586 255.403 151.827 255.739 151.72C256.327 151.524 256.925 151.336 257.513 151.14C257.676 151.087 257.812 150.998 257.894 150.846C257.975 150.712 258.012 150.507 257.957 150.356C257.858 150.044 257.513 149.803 257.169 149.91Z" fill="#E0853D"/>
<path d="M253.547 155.036C253.13 155.107 252.714 155.179 252.297 155.25C252.143 155.277 251.989 155.419 251.917 155.544C251.835 155.678 251.799 155.883 251.853 156.034C251.908 156.186 251.998 156.338 252.152 156.409C252.207 156.427 252.252 156.453 252.306 156.471C252.424 156.498 252.533 156.498 252.65 156.471C253.067 156.4 253.484 156.329 253.9 156.257C254.054 156.231 254.208 156.088 254.28 155.963C254.362 155.829 254.398 155.624 254.344 155.473C254.29 155.321 254.199 155.17 254.045 155.098C253.991 155.081 253.945 155.054 253.891 155.036C253.773 155 253.665 155 253.547 155.036Z" fill="#E0853D"/>
<path d="M257.794 157.247C257.423 157.389 257.042 157.487 256.653 157.541C256.707 157.532 256.771 157.523 256.825 157.514C256.771 157.523 256.707 157.532 256.653 157.532C256.562 157.532 256.481 157.55 256.408 157.586C256.327 157.612 256.263 157.657 256.2 157.719C256.091 157.826 256.001 158.013 256.01 158.165C256.019 158.325 256.073 158.495 256.2 158.611C256.318 158.718 256.49 158.816 256.653 158.798C257.16 158.744 257.658 158.646 258.138 158.459C258.22 158.441 258.292 158.406 258.355 158.343C258.428 158.299 258.482 158.236 258.518 158.165C258.6 158.031 258.636 157.826 258.582 157.675C258.527 157.523 258.437 157.372 258.283 157.3C258.147 157.229 257.957 157.184 257.794 157.247Z" fill="#E0853D"/>
<path d="M251.972 136.493C251.691 136.689 251.401 136.859 251.093 137.019C250.777 137.18 250.595 137.251 250.233 137.367C249.907 137.474 249.572 137.554 249.237 137.608C249.228 137.608 249.029 137.634 249.137 137.625C249.047 137.634 248.956 137.643 248.866 137.652C248.685 137.67 248.504 137.679 248.322 137.679C247.987 137.679 247.661 137.964 247.679 138.312C247.698 138.651 247.96 138.954 248.322 138.945C249.853 138.927 251.374 138.463 252.624 137.59C252.896 137.403 253.05 137.028 252.85 136.725C252.678 136.458 252.262 136.288 251.972 136.493Z" fill="#E0853D"/>
<path d="M289.372 166.206H246.719V197.336H289.372V166.206Z" fill="#EDC2AF"/>
<path d="M283.395 136.876H239.04V166.509H283.395V136.876Z" fill="#D2AB94"/>
<path d="M253.366 136.671C255.929 145.114 258.618 153.529 261.335 161.927C264.061 170.325 266.823 178.713 269.558 187.111C271.07 191.755 272.574 196.4 274.05 201.054C274.222 201.597 275.1 201.366 274.919 200.813C272.275 192.478 269.549 184.169 266.832 175.861C264.079 167.445 261.326 159.03 258.646 150.596C257.151 145.88 255.675 141.164 254.235 136.44C254.072 135.887 253.203 136.119 253.366 136.671Z" fill="#00021C"/>
<path d="M261.661 201.232C263.581 192.816 265.455 184.383 267.321 175.959C269.159 167.632 270.989 159.297 272.845 150.98C273.905 146.21 274.982 141.441 276.069 136.671C276.196 136.11 275.326 135.878 275.2 136.431C273.28 144.846 271.405 153.28 269.54 161.704C267.701 170.03 265.872 178.366 264.015 186.683C262.956 191.452 261.878 196.222 260.792 200.991C260.656 201.553 261.534 201.794 261.661 201.232Z" fill="#00021C"/>
<path d="M295.413 197.336H243.803V200.902H295.413V197.336Z" fill="#2A232D"/>
<path d="M274.346 214.31L257.857 198.078L256.141 199.767L272.63 215.999L274.346 214.31Z" fill="#2A232D"/>
<path d="M379.796 248.854H302.168V258.09H379.796V248.854Z" fill="#00021C"/>
<path d="M261.598 247.972C259.705 226.327 271.877 214.06 279.23 207.481C285.488 201.883 294.779 198.032 298.945 197.033C312.882 193.672 319.348 195.001 331.926 196.659C325.288 204.12 322.173 206.527 318.469 215.504C314.965 223.991 313.914 228.752 316.006 236.588C317.899 243.675 324.156 245.859 328.331 246.109C347.475 247.232 353.932 244.968 365.107 234.725C375.621 225.088 380.167 209.442 379.678 195.313C379.225 182.11 374.878 169.362 369.454 157.247C368.666 155.491 369.553 153.44 371.392 152.789C371.772 152.656 372.352 152.46 373.285 152.112C374.933 151.506 376.789 150.998 378.392 151.711C379.542 152.219 380.33 153.271 381.036 154.296C390.989 168.854 400.008 196.516 398.668 214.007C397.328 231.497 393.28 236.855 387.864 253.57C355.073 255.853 313.697 255.015 265.076 254.596" fill="#38303B"/>
<path d="M262.721 235.259L299.533 254.925C303.952 254.97 308.308 255.006 312.583 255.032C312.736 253.232 312.899 251.431 313.053 249.639C313.515 244.37 313.968 239.039 313.126 233.815C312.284 228.591 310.128 222.939 305.963 219.596C302.367 216.717 295.992 214.301 291.365 213.998C283.613 213.49 277.581 214.524 270.572 217.377C267.131 222.048 264.07 227.923 262.721 235.259Z" fill="#2A232D"/>
<path d="M393.18 202.703C392.655 214.114 389.938 225.578 384.006 235.402L392.745 239.815C395.652 231.961 397.762 225.694 398.65 214.016C399.519 202.721 396.06 187.191 390.825 173.685C392.528 183.269 393.624 192.986 393.18 202.703Z" fill="#2A232D"/>
<path d="M295.231 201.642C300.439 203.015 305.754 204.031 311.106 204.673C313.624 204.976 316.232 205.226 318.433 206.465C319.682 207.169 320.76 208.301 321.331 209.585C324.047 204.914 327.027 202.159 331.917 196.65C319.338 194.992 312.863 193.663 298.935 197.024C297.088 197.47 294.217 198.477 291.057 199.957C292.27 200.786 293.792 201.268 295.231 201.642Z" fill="#2A232D"/>
<path d="M397.708 162.711C398.677 162.729 399.637 162.56 400.488 162.176C401.349 161.82 402.136 161.294 402.788 160.643C404.083 159.359 404.935 157.612 404.835 155.847C404.763 154.082 403.757 152.415 402.345 151.256C401.638 150.668 400.805 150.213 399.909 149.945C399.021 149.642 398.052 149.553 397.092 149.669C398.016 149.357 399.039 149.348 400.026 149.526C401.004 149.731 401.937 150.15 402.77 150.721C404.428 151.853 405.641 153.734 405.741 155.811C405.831 157.888 404.799 159.868 403.259 161.151C402.49 161.793 401.593 162.292 400.642 162.587C399.682 162.854 398.659 162.934 397.708 162.711Z" fill="#2A232D"/>
<path d="M385.519 168.622C385.682 166.883 386.741 165.261 388.263 164.378C389.784 163.496 391.749 163.38 393.37 164.084C394.339 164.503 395.172 165.181 396.141 165.6C397.645 166.251 398.922 166.491 400.389 165.769C400.615 165.662 400.841 165.528 400.977 165.323C401.149 165.065 401.403 164.378 401.403 164.066C401.403 159.502 401.448 155.009 400.986 150.471C400.887 149.491 401.14 148.483 400.552 147.69C400.126 147.12 399.501 146.718 398.831 146.451C397.074 145.756 394.593 145.943 393.017 146.977C390.518 148.599 389.567 151.853 387.167 153.601C384.659 155.428 382.639 156.079 379.089 152.165C378.002 150.971 374.851 153.806 373.33 154.385" fill="#38303B"/>
<path d="M401.375 158.103C399.492 159.458 397.11 160.144 394.783 159.966C393.515 159.868 392.247 159.538 390.979 159.672C389.385 159.85 387.982 160.75 386.642 161.633C386.415 161.784 386.171 161.954 386.08 162.212C385.98 162.515 386.134 162.836 386.279 163.113C386.623 163.772 386.958 164.423 387.303 165.083C387.592 164.815 387.909 164.575 388.254 164.37C389.775 163.487 391.74 163.371 393.361 164.075C394.33 164.494 395.163 165.172 396.132 165.591C397.635 166.242 398.912 166.482 400.379 165.76C400.606 165.653 400.832 165.52 400.968 165.315C401.14 165.056 401.394 164.37 401.394 164.058C401.403 162.061 401.403 160.082 401.375 158.103Z" fill="#2A232D"/>
<path d="M263.998 247.883H254.191C251.954 247.883 250.143 246.1 250.143 243.898C250.143 241.696 251.954 239.913 254.191 239.913H263.998C266.235 239.913 268.046 241.696 268.046 243.898C268.046 246.1 266.235 247.883 263.998 247.883Z" fill="#00021C"/>
<path d="M295.874 276.245C304.371 268.729 305.069 255.855 297.434 247.491C289.799 239.127 276.721 238.44 268.224 245.956C259.728 253.472 259.029 266.346 266.665 274.71C274.3 283.074 287.378 283.762 295.874 276.245Z" fill="#38303B"/>
<path d="M294.652 261.112C294.652 267.967 289.01 273.521 282.046 273.521C275.082 273.521 269.44 267.967 269.44 261.112C269.44 254.256 275.082 248.703 282.046 248.703C289.01 248.703 294.652 254.256 294.652 261.112Z" fill="white"/>
<path d="M292.088 262.685C292.98 257.251 289.229 252.134 283.709 251.255C278.189 250.377 272.991 254.069 272.098 259.503C271.206 264.937 274.957 270.055 280.477 270.933C285.997 271.812 291.196 268.119 292.088 262.685Z" fill="#2A232D"/>
<path d="M311.46 258.767C309.947 266.229 255.54 265.07 255.54 256.824C255.54 244.602 261.698 219.596 289.943 219.596C316.667 219.587 313.986 246.314 311.46 258.767Z" fill="#F2E2C8"/>
<path d="M411.98 265.72C414.579 254.769 407.668 243.818 396.544 241.26C385.42 238.702 374.295 245.505 371.696 256.456C369.097 267.406 376.008 278.357 387.132 280.916C398.256 283.474 409.381 276.671 411.98 265.72Z" fill="#38303B"/>
<path d="M404.47 264.003C406.107 257.129 401.774 250.25 394.792 248.638C387.809 247.026 380.821 251.292 379.183 258.166C377.546 265.04 381.879 271.919 388.862 273.531C395.845 275.142 402.833 270.877 404.47 264.003Z" fill="white"/>
<path d="M402.263 261.112C402.263 266.782 397.599 271.373 391.84 271.373C386.08 271.373 381.417 266.782 381.417 261.112C381.417 255.442 386.08 250.851 391.84 250.851C397.59 250.842 402.263 255.442 402.263 261.112Z" fill="#2A232D"/>
<path d="M418.301 256.824C418.301 264.196 364.79 265.07 364.79 256.824C364.79 244.602 374.226 231.31 388.987 230.588C408.132 229.652 418.301 244.602 418.301 256.824Z" fill="#F2E2C8"/>
<path d="M259.986 254.863C260.248 251.885 260.792 248.934 261.625 246.046C262.449 243.158 263.617 240.35 265.121 237.72C266.642 235.108 268.526 232.665 270.844 230.677C272.003 229.688 273.244 228.796 274.557 228.029C275.888 227.29 277.264 226.648 278.704 226.166C275.979 227.477 273.461 229.135 271.315 231.185C269.169 233.236 267.375 235.607 265.908 238.165C264.414 240.715 263.255 243.452 262.286 246.251C261.335 249.059 260.62 251.948 259.986 254.863Z" fill="#2A232D"/>
<path d="M266.425 249.55C266.552 246.59 267.439 243.666 268.906 241.036C270.373 238.433 272.492 236.097 275.155 234.698C272.918 236.668 271.107 238.941 269.694 241.473C268.263 243.996 267.258 246.715 266.425 249.55Z" fill="#2A232D"/>
<path d="M413.248 255.879C413.067 254.248 412.669 252.679 412.17 251.154C411.645 249.639 411.011 248.159 410.232 246.75C409.463 245.342 408.566 243.996 407.561 242.748C406.538 241.5 405.406 240.332 404.083 239.333C405.587 240.038 406.945 241.081 408.095 242.293C409.254 243.496 410.223 244.878 411.029 246.331C411.826 247.793 412.451 249.353 412.85 250.967C413.248 252.572 413.42 254.248 413.248 255.879Z" fill="#2A232D"/>
<path d="M408.575 256.735C408.231 254.907 407.742 253.214 407.063 251.564C406.728 250.735 406.338 249.933 405.904 249.157C405.46 248.382 404.971 247.642 404.319 246.964C405.197 247.339 405.913 248.034 406.492 248.774C407.081 249.523 407.534 250.361 407.896 251.226C408.249 252.099 408.512 253.009 408.629 253.945C408.765 254.872 408.774 255.817 408.575 256.735Z" fill="#2A232D"/>
<path d="M376.925 161.775C375.802 160.839 374.172 160.857 373.058 161.802C368.91 165.323 365.85 168.488 361.267 172.152C360.977 172.384 360.742 172.696 360.606 173.043C360.289 173.81 360.651 174.684 361.077 175.397C361.765 176.529 362.988 177.661 364.256 177.26C364.681 177.126 365.044 176.823 365.379 176.538C369.345 173.177 373.23 169.727 377.052 166.197C378.356 164.993 378.292 162.916 376.925 161.775Z" fill="#00021C"/>
<path d="M373.348 166.491C371.799 163.754 367.869 162.765 365.043 164.2C364.274 164.592 363.585 165.127 362.807 165.493C361.584 166.054 360.208 166.161 358.867 166.25C357.989 166.313 357.147 166.304 356.314 166.25C356.268 168.069 356.223 169.897 356.178 171.715C358.125 171.813 360.072 171.902 361.494 171.902C361.838 171.902 362.263 171.448 362.535 171.252C362.852 171.02 363.558 170.191 363.866 169.941C365.007 169.005 365.333 168.274 366.954 168.845C368.575 169.415 369.553 171.323 369.064 172.945C368.974 173.231 368.856 173.534 368.947 173.819C369.119 174.372 369.916 174.399 370.477 174.211C373.493 173.231 374.896 169.228 373.348 166.491Z" fill="#83BA63"/>
<path d="M333.275 243.345C333.62 241.66 334.109 239.993 334.752 238.37C334.797 238.263 334.842 238.148 334.951 238.067C335.087 237.96 335.286 237.943 335.476 237.925C337.188 237.764 338.899 237.648 340.62 237.568C340.104 240.073 339.805 242.614 339.741 245.163" fill="#F7B094"/>
<path d="M304.296 192.665C300.629 189.09 299.714 178.535 303.717 175.317C309.042 171.029 317.934 173.569 322.761 174.719C330.468 176.547 340.764 178.348 349.313 180.719C355.027 182.306 359.03 184.116 361.656 187.236C365.143 191.381 363.087 196.783 360.388 204.218C355.598 217.394 351.803 226.077 346.279 238.549C346.035 239.102 345.473 239.467 344.858 239.476C343.182 239.503 341.815 239.556 339.94 239.333C339.306 239.262 338.582 239.137 338.229 238.611C337.885 238.094 338.066 237.426 338.201 236.828C341.688 220.505 340.737 211.386 347.348 198.959C334.869 199.387 323.685 198.183 311.767 194.528" fill="#408463"/>
<path d="M373.057 166.625C373.148 166.901 372.822 166.215 372.541 166.268C365.867 167.525 363.105 167.552 357.472 167.81C352.655 168.024 345.727 166.99 342.231 166.25C338.98 165.555 334.307 163.852 331.926 160.09C327.769 153.511 324.337 148.439 321.086 141.378C318.876 136.573 316.594 132.428 317.88 127.142C318.179 125.902 319.709 123.968 321.72 122.559C324.916 120.322 328.765 121.712 331.165 123.593C334.389 126.116 335.475 130.315 336.49 133.159C338.645 139.167 339.641 144.249 341.796 150.257C342.756 152.932 343.879 155.811 346.361 157.247C347.782 158.067 349.467 158.29 351.097 158.504C357.699 159.35 364.065 159.52 370.658 160.349C370.848 160.376 371.002 160.5 371.065 160.679L373.057 166.625Z" fill="#EA8F18"/>
<path d="M341.914 156.213C342.946 156.177 343.888 156.204 344.912 156.168L341.914 156.213Z" fill="#EA8F18"/>
<path d="M344.459 155.927C342.575 154.091 342.177 151.363 341.398 148.867L344.459 155.927Z" fill="#EA8F18"/>
<path d="M299.18 182.921C300.031 168.426 302.992 163.844 302.449 149.33C302.168 141.771 300.547 134.71 303.019 128.336C304.957 123.335 310.536 118.575 316.141 118.619C319.329 118.646 325.107 119.484 329.146 122.488C335.838 127.48 335.295 135.825 335.72 144.008C336.463 158.156 334.018 172.001 335.72 186.835" fill="#F2E2C8"/>
<path d="M300.746 193.28C297.133 189.643 296.409 179.079 300.466 175.923C305.872 171.724 314.71 174.416 319.519 175.646C327.199 177.608 337.459 179.578 345.962 182.083C351.649 183.759 355.625 185.64 358.188 188.805C361.602 193.003 359.456 198.379 356.621 205.76C351.686 218.624 347.194 227.263 341.57 239.298C341.145 240.198 340.212 240.76 339.207 240.715C338.038 240.67 337.169 240.742 335.584 240.528C334.95 240.439 334.235 240.305 333.891 239.779C333.556 239.262 333.755 238.593 333.891 237.996C337.658 221.736 336.87 212.598 343.689 200.278C331.201 200.492 320.044 199.101 308.19 195.25" fill="#5A9C17"/>
<path d="M324.554 111.835C319.61 112.236 313.633 110.409 312.401 106.977C310.816 102.564 309.73 100.701 309.512 97.4824C309.322 94.701 308.951 92.927 310.536 90.2437C312.121 87.5603 315.263 85.082 319.374 84.0836C322.154 83.4061 325.143 83.4506 327.95 83.7537C329.779 83.9588 330.404 86.2588 329.164 87.2216C308.815 103.143 329.191 90.3863 331.192 90.413C333.157 90.4398 329.363 91.5541 330.015 92.6417C330.767 93.8898 330.821 94.6743 329.689 96.0382C329.046 96.8049 331.509 98.4809 329.979 100.852C328.602 102.992 330.477 110.614 327.217 111.514" fill="#38303B"/>
<path d="M317.482 120.152C316.603 119.457 315.951 119.314 316.087 118.102C316.413 115.053 316.866 113.252 317.092 111.193C317.183 110.346 317.283 109.499 317.409 108.652C317.437 108.465 317.473 108.251 317.6 108.118C317.708 108.002 317.853 107.966 317.989 107.939C319.375 107.707 320.624 108.572 321.937 108.964C323.549 109.446 325.297 109.223 326.927 109.633C327.126 109.687 327.335 109.758 327.425 109.963C327.48 110.079 327.47 110.221 327.47 110.355C327.407 112.807 327.135 115.312 327.027 118.396C327 119.092 327.045 120.25 326.755 120.883L325.877 121.579C325.053 122.31 321.955 122.105 320.389 121.4C320.398 121.409 318.433 120.901 317.482 120.152Z" fill="#F7B094"/>
<path d="M317.599 108.118C317.708 108.002 317.853 107.966 317.988 107.939C319.374 107.707 320.624 108.572 321.937 108.964C323.549 109.446 325.297 109.223 326.927 109.633C327.126 109.687 327.334 109.758 327.425 109.963C327.479 110.079 327.47 110.221 327.47 110.355C327.434 111.728 327.398 113.101 327.361 114.465C325.84 115.303 324.201 115.802 322.562 115.757C320.316 115.695 318.115 114.474 316.956 112.388C317.001 111.987 317.047 111.585 317.092 111.175C317.182 110.328 317.282 109.481 317.409 108.635C317.436 108.456 317.472 108.251 317.599 108.118Z" fill="#E89C82"/>
<path d="M314.33 103.375C312.637 102.724 310.943 101.431 311.025 100.094C311.106 98.7481 312.89 97.616 314.711 97.9636" fill="#F7B094"/>
<path d="M314.43 104.463C315.408 111.193 320.09 112.459 324.889 114.456C325.741 114.813 327.208 115.062 328.158 115.044C330.504 115.009 331.844 112.967 332.551 111.193C333.782 108.118 334.624 104.935 335.059 101.726C335.358 99.5149 335.965 96.0203 335.122 93.8897C334.28 91.759 331.826 91.0013 329.137 90.3238C325.795 89.4769 322.154 90.7963 319.583 92.6594C315.779 95.4052 313.461 99.5951 314.312 103.633" fill="#F7B094"/>
<path d="M328.303 96.5106C328.222 96.5552 328.294 96.6621 328.403 96.68C328.512 96.7067 328.62 96.6711 328.729 96.6443C329.997 96.3323 331.509 96.4393 332.705 96.9117C332.886 96.9831 333.076 97.0722 333.284 97.09C333.492 97.1079 333.737 97.0366 333.755 96.8939C333.764 96.8315 333.728 96.778 333.692 96.7245C333.52 96.4928 333.203 96.3234 332.868 96.1986C331.79 95.7707 330.422 95.6904 329.29 95.9935C328.865 96.1005 328.466 96.2788 328.267 96.5462" fill="#38303B"/>
<path opacity="0.47" d="M322.598 102.938C321.611 104.302 321.982 106.201 323.358 107.298C324.744 108.394 326.664 108.171 327.651 106.807C328.638 105.443 328.312 103.446 326.926 102.35C325.55 101.253 323.585 101.565 322.598 102.938Z" fill="#ED825D"/>
<path d="M330.114 99.9606C329.924 100.736 330.16 101.44 330.631 101.547C331.101 101.654 331.645 101.111 331.835 100.335C332.025 99.5595 331.79 98.8552 331.319 98.7482C330.848 98.6502 330.305 99.194 330.114 99.9606Z" fill="#38303B"/>
<path d="M329.082 88.0415C335.24 84.752 326.32 83.6554 321.756 83.7624C320.669 83.7892 318.786 86.1783 317.699 86.2318C314.765 86.3834 312.356 88.8082 311.659 91.4737C310.961 94.1392 311.242 94.4868 312.365 97.0008L314.647 97.6337C314.665 97.6159 314.593 98.5698 314.656 99.5593C314.665 99.6663 314.611 100.691 314.846 101.119C315.172 101.708 316.06 101.619 316.268 100.977C317.454 97.4019 319.139 94.3085 322.498 92.9C323.404 92.6326 324.337 92.4454 325.288 92.3562C327.416 92.1512 326.863 92.0442 329.001 91.9372C331.138 91.8302 330.857 91.5361 332.424 90.1543C334.153 88.6477 327.126 89.0934 329.082 88.0415Z" fill="#38303B"/>
<path d="M333.067 99.069C332.578 98.6322 331.89 98.4182 331.256 98.3202C330.595 98.2221 329.825 98.2043 329.227 98.5252C328.865 98.7213 329.191 99.2651 329.553 99.069C330.006 98.8194 330.658 98.8551 331.147 98.9353C331.645 99.0155 332.225 99.1671 332.614 99.5058C332.913 99.7822 333.375 99.3365 333.067 99.069Z" fill="#38303B"/>
<path d="M337.206 109.285C335.648 110.542 334.136 110.801 332.261 110.204C331.682 110.016 330.35 108.947 330.142 108.385C332.388 109.508 334.815 109.865 337.251 109.205" fill="#E66E60"/>
<path d="M337.205 109.285C335.584 109.802 333.71 109.794 331.292 109.08C330.749 108.92 330.214 108.661 329.97 108.314C332.252 109.098 335.05 109.437 337.441 109.161L337.205 109.285Z" fill="white"/>
<path d="M317.056 104.703C317.228 106.005 317.4 107.297 317.563 108.599C317.654 109.285 317.744 109.981 318.043 110.605C318.713 112.022 320.271 112.789 321.72 113.448C324.672 114.795 328.104 116.141 331.047 114.795C332.397 114.179 333.04 113.315 333.646 111.978C334.262 110.605 334.38 109.615 334.724 108.322C335.023 107.19 337.278 106.129 337.07 104.979C337.006 104.623 336.408 103.705 336.2 103.41C335.72 102.697 335.222 101.405 334.987 101.948C334.715 102.572 332.659 103.972 332.034 104.257C330.278 105.086 328.24 105.015 326.302 104.926C323.395 104.801 320.18 104.525 318.215 102.421C316.495 100.585 316.784 98.8996 314.674 97.7942C315.227 98.3647 316.232 101.458 317.065 104.373" fill="#F2E2C8"/>
<path d="M348.96 94.8258L348.951 94.1929C348.942 93.756 348.589 93.4083 348.145 93.3994L335.874 93.2122C335.159 87.7208 331.129 83.0405 325.433 81.8281C318.152 80.277 310.943 84.9572 309.331 92.294C309.132 93.2033 309.023 94.1126 309.005 95.013L335.983 95.4855C335.983 95.4766 335.983 95.4587 335.983 95.4498L348.136 95.6459C348.589 95.6549 348.969 95.2804 348.96 94.8258Z" fill="#5A9C17"/>
<path d="M348.145 93.4085L335.874 93.2212C335.865 93.1767 335.856 93.1232 335.847 93.0786L309.023 94.4336C309.014 94.6298 309.005 94.8259 308.996 95.022L335.974 95.4945C335.974 95.4856 335.974 95.4678 335.974 95.4588L348.127 95.655C348.589 95.6639 348.96 95.2895 348.96 94.8348L348.951 94.2019C348.942 93.765 348.588 93.4174 348.145 93.4085Z" fill="#408463"/>
<path d="M315.299 119.261C317.527 121.089 320.234 122.212 323.123 122.506C324.717 122.666 327.986 123.112 327.977 120.714C327.968 119.707 326.383 119.707 326.392 120.714C326.392 120.901 326.392 120.901 326.202 120.964C325.885 121.062 325.55 121.071 325.224 121.062C324.355 121.053 323.44 120.999 322.58 120.866C320.325 120.509 318.17 119.591 316.413 118.156C315.643 117.514 314.511 118.619 315.299 119.261Z" fill="#EA8F18"/>
<path d="M291.663 200.207C286.012 199.574 281.865 195.134 281.149 191.996C280.851 190.712 281.014 189.268 282.118 188.279C283.486 187.048 285.94 186.861 287.959 187.307C289.988 187.753 291.745 188.698 293.601 189.464C302.413 193.11 313.008 192.54 323.015 192.531C324.754 192.531 326.547 192.558 328.168 193.048C330.694 193.824 332.469 195.66 333.375 197.63C334.28 199.6 334.425 201.713 334.57 203.799C334.625 204.61 334.425 205.538 333.592 206.046C332.659 206.616 331.401 206.277 330.577 205.609C329.752 204.949 329.327 204.058 328.657 203.3C326.04 200.322 320.579 199.975 315.897 200.055C308.399 200.162 291.663 200.207 291.663 200.207Z" fill="#00021C"/>
<path d="M350.979 171.537C353.786 171.537 358.686 171.911 361.502 171.911C361.846 171.911 362.272 171.457 362.543 171.261C362.86 171.029 363.567 170.2 363.875 169.95C365.016 169.014 365.342 168.283 366.963 168.854C368.584 169.424 369.562 171.332 369.073 172.954C368.982 173.24 368.864 173.543 368.955 173.828C369.127 174.381 369.924 174.407 370.485 174.22C373.501 173.231 374.905 169.228 373.356 166.491C371.808 163.754 367.877 162.765 365.052 164.2C364.282 164.592 363.594 165.127 362.815 165.493C361.593 166.054 360.216 166.161 358.876 166.25C356.748 166.402 354.855 166.144 352.79 165.84C350.898 165.564 348.588 165.127 347.764 164.717" fill="#F7B094"/>
<path d="M351.45 171.412C351.495 171.697 351.269 171.956 350.979 171.965C344.187 172.125 339.415 171.76 333.818 171.1C329.028 170.53 324.364 169.308 321.049 168.007C317.961 166.794 313.696 162.408 311.975 158.308C308.969 151.14 306.433 145.586 304.405 138.098C303.028 132.999 301.471 128.541 303.626 123.531C304.133 122.354 305.962 120.696 308.172 119.627C311.695 117.933 315.362 119.056 317.174 121.49C318.985 123.923 320.443 129.504 320.977 132.482C322.1 138.758 322.236 143.928 323.359 150.213C323.857 153.003 324.491 156.034 326.7 157.844C327.968 158.887 329.589 159.377 331.165 159.85C337.531 161.749 343.789 162.952 350.155 164.833C350.336 164.887 350.472 165.038 350.499 165.225L351.45 171.412Z" fill="#EFB93F"/>
<path d="M351.659 171.778C351.649 170.262 351.55 168.747 351.342 167.24C351.215 166.367 351.097 165.466 350.472 164.789C349.811 164.076 348.833 163.683 347.927 163.38C346.877 163.032 345.781 162.81 344.695 162.614C341.842 162.088 339.035 161.428 336.236 160.67C334.588 160.224 332.949 159.752 331.328 159.226C329.816 158.736 328.285 158.165 326.999 157.211C324.871 155.642 323.25 152.531 320.216 152.709C319.637 152.745 319.637 153.636 320.216 153.601C322.743 153.449 324.31 156.15 326.012 157.559C328.276 159.44 331.328 160.189 334.117 160.991C337.069 161.847 340.067 162.667 343.092 163.22C345.057 163.576 347.221 163.808 348.996 164.78C349.92 165.288 350.228 165.894 350.4 166.893C350.68 168.497 350.771 170.146 350.78 171.769C350.753 172.348 351.659 172.348 351.659 171.778Z" fill="#EA8F18"/>
<path d="M322.327 156.364C323.296 156.489 324.301 156.676 325.297 156.801C325.532 156.828 325.759 156.578 325.75 156.355C325.741 156.088 325.55 155.945 325.297 155.91C324.328 155.785 323.323 155.597 322.327 155.473C322.091 155.446 321.865 155.696 321.874 155.918C321.883 156.186 322.073 156.328 322.327 156.364Z" fill="#EA8F18"/>
<path d="M325.27 155.829C324.418 154.635 324.056 153.244 323.857 151.809C323.658 150.373 323.531 148.929 323.341 147.494C322.942 144.356 322.625 141.209 322.218 138.08C321.81 135.013 321.321 131.947 320.533 128.951C319.918 126.589 319.202 124.066 317.853 121.998C316.44 119.832 314.276 118.646 311.668 118.503C311.088 118.468 311.088 119.359 311.668 119.395C314.004 119.52 315.906 120.607 317.146 122.559C318.459 124.637 319.139 127.133 319.736 129.477C321.249 135.414 321.665 141.539 322.444 147.592C322.815 150.471 322.725 153.797 324.482 156.275C324.826 156.738 325.605 156.293 325.27 155.829Z" fill="#EA8F18"/>
<path d="M356.766 250.717C352.6 250.851 349.186 250.949 345.021 251.074C343.744 251.11 342.403 251.136 341.28 250.592C340.656 250.289 340.04 249.808 339.352 249.933C338.817 250.031 338.446 250.468 337.948 250.682C337.522 250.869 337.024 250.887 336.544 250.887C335.086 250.913 333.628 250.931 332.179 250.958C331.699 250.967 331.165 250.958 330.812 250.664C330.386 250.325 330.359 249.728 330.395 249.211C330.504 247.16 330.921 245.128 331.618 243.175C331.781 242.73 332.016 242.239 332.496 242.097C332.94 241.972 333.402 242.204 333.809 242.418C335.458 243.273 337.622 243.889 339.143 242.863C339.542 242.596 339.868 242.23 340.321 242.061C340.828 241.874 341.389 241.954 341.923 242.043C346.533 242.837 351.025 244.201 355.254 246.073C356.214 246.501 357.201 246.991 357.771 247.82C358.342 248.649 358.287 249.906 357.4 250.441" fill="#2A232D"/>
<path d="M37.8535 126.598C38.3969 127.346 39.3749 128.175 40.4616 128.737C41.4578 129.254 42.5536 129.78 43.6584 129.602C44.89 129.406 45.7322 128.389 46.4476 127.453C49.916 122.925 53.3844 118.405 56.8438 113.876C50.8306 115.32 44.6274 116.845 39.8368 120.437C38.9674 121.088 38.1252 121.828 37.6724 122.782C37.2106 123.727 36.9117 125.474 37.609 126.321L37.8535 126.598Z" fill="#6EA652"/>
<path d="M36.2507 142.849C35.9337 141.574 35.7888 140.255 35.7345 138.926C35.7164 137.598 35.816 136.27 36.0424 134.959C36.4861 132.33 37.4823 129.789 38.9131 127.507C40.353 125.233 42.2185 123.237 44.3829 121.641C45.4696 120.847 46.6106 120.134 47.806 119.528C49.0105 118.949 50.2511 118.432 51.537 118.075C50.3236 118.619 49.1372 119.207 48.0234 119.911C46.8914 120.589 45.8228 121.347 44.8176 122.185C42.8162 123.861 41.0503 125.795 39.6829 127.988C38.2973 130.163 37.3193 132.588 36.7307 135.102C36.142 137.616 35.9971 140.237 36.2507 142.849Z" fill="#83BA63"/>
<path d="M39.674 155.749H24.9672L20.3125 140.959H43.8669L39.674 155.749Z" fill="#EDC2AF"/>
<path d="M45.4697 140.184H18.7095V142.591H45.4697V140.184Z" fill="#D2AB94"/>
<path d="M12.6782 158.807C11.519 150.908 10.378 142.698 12.7235 135.058C12.9951 134.175 13.3302 133.275 13.9913 132.624C14.8878 131.75 16.219 131.483 17.4778 131.474C20.8557 131.447 24.2063 133.016 26.3526 135.619C27.1405 136.582 27.7925 137.714 27.8921 138.953C28.037 140.638 27.1495 142.27 25.9722 143.482C24.795 144.694 23.337 145.595 21.9786 146.602C17.8038 149.705 14.5075 153.975 12.5786 158.798" fill="#83BA63"/>
<path d="M13.1312 156.569C13.0859 153.351 13.5116 150.115 14.3085 146.968C15.1144 143.821 16.3008 140.781 17.9218 137.91C18.7821 136.511 19.8416 135.138 21.2996 134.211C22.7395 133.266 24.5779 132.891 26.2623 133.212C27.9557 133.506 29.5224 134.443 30.5095 135.798C31.4785 137.153 31.9765 138.829 31.7682 140.433C31.8045 137.197 29.296 134.202 26.1536 133.89C24.6141 133.703 23.0293 134.024 21.7705 134.915C20.4846 135.762 19.5066 137.019 18.7006 138.365C17.1158 141.102 15.9204 144.106 14.9696 147.146C14.0549 150.204 13.4572 153.368 13.1312 156.569Z" fill="#6EA652"/>
<path d="M31.2969 124.324C30.7354 125.537 29.5853 126.954 28.2269 127.988C26.9862 128.933 25.6007 129.932 24.034 129.869C22.2862 129.807 20.8826 128.47 19.66 127.213C13.7646 121.16 7.86924 115.107 1.98291 109.053C10.6222 110.061 19.5423 111.166 27.0406 115.579C28.399 116.381 29.7392 117.326 30.6086 118.646C31.478 119.965 32.3202 122.497 31.5685 123.879L31.2969 124.324Z" fill="#6EA652"/>
<path d="M33.7603 140.433C33.543 137.42 32.9091 134.469 31.8405 131.679C30.7628 128.898 29.2958 126.268 27.4212 123.941C25.5647 121.605 23.3098 119.582 20.8104 117.906C19.5607 117.068 18.2385 116.328 16.862 115.695C15.4946 115.035 14.0637 114.518 12.5967 114.063C14.109 114.322 15.5942 114.759 17.0341 115.294C18.474 115.855 19.8595 116.542 21.1817 117.326C23.835 118.913 26.1896 120.981 28.1275 123.388C30.0474 125.804 31.5416 128.541 32.4925 131.447C33.4615 134.362 33.9233 137.42 33.7603 140.433Z" fill="#83BA63"/>
<path d="M43.332 138.561C42.028 138.044 40.6062 139.399 40.6153 140.709C40.6243 142.029 41.539 143.179 42.4083 144.222C44.3735 146.575 46.3386 148.929 48.3037 151.273C50.5858 147.155 49.481 141.628 45.759 138.508C44.9531 137.83 43.323 137.482 43.0966 138.463" fill="#6EA652"/>
<path d="M37.8716 140.121C38.0346 139.444 38.5598 138.909 39.1032 138.472C39.6737 138.026 40.4163 137.786 41.1589 137.768C41.9105 137.75 42.6622 137.955 43.3051 138.329C43.9753 138.704 44.4733 139.239 44.9261 139.773C45.388 140.317 45.7593 140.923 46.0762 141.556C46.366 142.216 46.5924 142.822 46.8188 143.482C47.2716 144.775 47.5252 146.156 47.5071 147.511C47.1539 146.192 46.6739 144.953 46.1396 143.741C45.8679 143.143 45.5782 142.501 45.2974 141.94C45.0076 141.369 44.6363 140.834 44.2379 140.326C43.8304 139.827 43.3866 139.346 42.8795 139.025C42.3633 138.695 41.7656 138.481 41.1498 138.436C40.525 138.401 39.891 138.499 39.3205 138.82C38.75 139.114 38.1976 139.524 37.8716 140.121Z" fill="#83BA63"/>
<path d="M43.7402 280.234L42.9795 280.305L39.8643 155.517L40.625 155.446L43.7402 280.234Z" fill="#38303B"/>
<path d="M21.1548 280.234L21.9155 280.305L25.0307 155.517L24.261 155.446L21.1548 280.234Z" fill="#38303B"/>
<path d="M42.7347 157.389H21.3899C20.9552 157.389 20.6021 157.042 20.6021 156.614V156.016C20.6021 155.588 20.9552 155.241 21.3899 155.241H42.7347C43.1693 155.241 43.5225 155.588 43.5225 156.016V156.614C43.5225 157.042 43.1693 157.389 42.7347 157.389Z" fill="#38303B"/>
<path d="M167.326 259.819C167.281 256.913 167.235 254.007 167.181 251.109C167.163 249.719 167.127 248.292 166.574 247C166.022 245.716 164.817 244.575 163.368 244.495C162.671 244.45 161.965 244.646 161.286 244.504C159.574 244.138 159.855 241.392 159.483 239.752C158.469 235.241 154.548 231.889 150.265 229.75C148.797 229.019 147.104 228.493 145.492 228.84C143.88 229.197 142.467 230.686 142.757 232.246C142.966 233.378 143.953 234.216 144.433 235.268C145.537 237.648 144.007 240.786 145.673 242.845C147.385 244.967 151.55 244.611 152.519 247.125C152.836 247.954 152.673 248.89 152.845 249.763C153.162 251.395 154.602 252.643 156.151 253.4C157.699 254.158 159.42 254.542 161.005 255.237C163.504 256.333 165.614 258.214 166.946 260.514" fill="#6EA652"/>
<path d="M163.242 261.78C163.459 258.758 162.988 255.71 161.693 253.035C160.407 250.343 158.279 248.168 156.377 245.743C155.454 244.522 154.584 243.202 153.941 241.794C153.298 240.394 152.764 238.977 152.166 237.595C151.578 236.222 150.844 234.912 149.866 233.77C148.915 232.62 147.666 231.693 146.189 231.23C147.72 231.497 149.096 232.389 150.192 233.476C151.279 234.591 152.112 235.928 152.8 237.301C153.498 238.674 154.041 240.091 154.72 241.428C155.363 242.774 156.178 244.005 157.102 245.208C158.922 247.57 161.132 249.853 162.327 252.759C162.925 254.185 163.314 255.701 163.468 257.225C163.604 258.749 163.541 260.292 163.242 261.78Z" fill="#83BA63"/>
<path d="M168.439 258.66C168.503 255.567 168.566 252.482 168.63 249.389C168.657 247.909 168.702 246.393 169.282 245.021C169.861 243.648 171.111 242.435 172.614 242.337C173.339 242.293 174.063 242.498 174.77 242.337C176.544 241.936 177.006 239.725 177.396 237.987C178.464 233.182 181.806 228.894 186.252 226.594C187.774 225.809 189.531 225.239 191.197 225.604C192.863 225.97 194.321 227.557 194.013 229.215C193.787 230.418 192.773 231.319 192.256 232.433C191.097 234.965 192.673 238.299 190.934 240.501C189.15 242.765 184.831 242.409 183.816 245.092C183.481 245.983 183.644 246.964 183.463 247.9C183.128 249.638 181.634 250.976 180.022 251.787C178.41 252.598 176.626 253.017 174.987 253.766C172.397 254.952 170.196 256.957 168.811 259.409" fill="#6EA652"/>
<path d="M169.309 258.972C169.001 257.386 169.291 255.719 169.862 254.194C170.459 252.67 171.374 251.288 172.397 250.013C174.471 247.463 177.052 245.458 179.071 243.024C181.19 240.653 182.187 237.604 183.599 234.68C184.306 233.227 185.166 231.8 186.298 230.597C187.43 229.42 188.87 228.448 190.482 228.145C188.933 228.653 187.62 229.661 186.633 230.891C185.61 232.103 184.858 233.503 184.242 234.965C183.626 236.427 183.065 237.934 182.395 239.413C181.725 240.893 180.846 242.329 179.787 243.586C177.668 246.108 175.069 248.088 172.95 250.45C171.899 251.636 170.957 252.928 170.296 254.363C169.581 255.79 169.209 257.368 169.309 258.972Z" fill="#83BA63"/>
<path d="M167.471 256.013C165.388 252.937 163.305 249.87 161.231 246.795C160.235 245.324 159.221 243.808 158.84 242.079C158.46 240.349 158.849 238.344 160.271 237.256C160.95 236.739 161.811 236.454 162.399 235.839C163.875 234.279 162.798 231.809 161.974 229.839C159.701 224.419 160.018 218.018 162.807 212.839C163.767 211.065 165.098 209.353 167 208.613C168.901 207.873 171.437 208.47 172.279 210.298C172.895 211.626 172.515 213.177 172.786 214.613C173.402 217.858 177.269 220.095 177.079 223.394C176.889 226.79 172.388 229.277 173.248 232.576C173.529 233.672 174.38 234.528 174.851 235.553C175.73 237.479 175.168 240.064 174.145 241.918C173.112 243.773 171.319 244.486 170.215 246.305C168.476 249.166 168.63 252.536 168.965 255.852" fill="#83BA63"/>
<path d="M168.041 256.227C166.248 252.777 165.451 248.792 165.768 244.869C166.049 240.92 167.697 237.256 167.607 233.467C167.643 229.67 166.429 225.925 165.986 222.039C165.777 220.095 165.768 218.107 166.139 216.173C166.538 214.256 167.353 212.375 168.748 210.984C167.516 212.509 166.828 214.363 166.583 216.253C166.302 218.143 166.393 220.068 166.683 221.958C167.253 225.738 168.476 229.491 168.512 233.476C168.503 237.506 166.864 241.161 166.465 244.941C166.239 246.83 166.275 248.765 166.556 250.655C166.791 252.554 167.317 254.426 168.041 256.227Z" fill="#6EA652"/>
<path d="M174.425 280.698H159.71L155.046 254.034H178.627L174.425 280.698Z" fill="#EDC2AF"/>
<path d="M180.239 252.625H153.443V256.958H180.239V252.625Z" fill="#D2AB94"/>
<path d="M0 280.921L25.4652 280.707L50.9213 280.582L101.852 280.475L152.773 280.582L178.238 280.707L203.703 280.921L178.238 281.143L152.773 281.268L101.852 281.366L50.9213 281.259L25.4652 281.135L0 280.921Z" fill="#606060"/>
<path d="M126.683 263.965C126.384 265.801 126.076 267.638 125.777 269.465C125.723 269.822 125.659 270.187 125.705 270.544C125.886 271.943 127.516 272.71 128.15 273.976C128.213 274.11 128.276 274.261 128.258 274.413C128.213 274.894 127.579 275.037 127.081 275.055C125.641 275.108 124.192 275.162 122.752 275.215C122.209 275.233 121.566 275.206 121.258 274.769C121.122 274.573 121.086 274.324 121.05 274.083C120.588 270.615 120.117 267.147 119.655 263.679" fill="#F7B094"/>
<path d="M87.4348 263.965C87.7337 265.801 88.0234 267.638 88.3223 269.465C88.3766 269.822 88.44 270.187 88.3947 270.544C88.2136 271.943 86.6107 272.71 85.9949 273.976C85.9315 274.11 85.8772 274.261 85.8862 274.413C85.9315 274.894 86.5564 275.037 87.0454 275.055C88.4672 275.108 89.889 275.162 91.3107 275.215C91.845 275.233 92.4789 275.206 92.7778 274.769C92.9136 274.573 92.9498 274.324 92.977 274.083C93.4389 270.615 93.8917 267.147 94.3535 263.679" fill="#F7B094"/>
<path d="M72.936 280.751C76.4678 280.885 79.3657 280.992 82.9066 281.126C83.9842 281.17 85.1253 281.197 86.0852 280.698C86.6104 280.421 87.1447 279.984 87.7243 280.1C88.1771 280.19 88.4941 280.591 88.9106 280.796C89.2729 280.974 89.6985 280.983 90.097 280.992C91.3376 281.019 92.5692 281.045 93.8099 281.072C94.2174 281.081 94.6702 281.072 94.9781 280.814C95.3403 280.502 95.3584 279.958 95.3403 279.485C95.2498 277.613 94.9056 275.75 94.3261 273.958C94.1902 273.548 93.991 273.102 93.5835 272.969C93.2031 272.853 92.8137 273.067 92.4606 273.254C91.0569 274.029 89.2185 274.582 87.9235 273.637C87.5885 273.396 87.3077 273.058 86.9274 272.897C86.5018 272.719 86.0128 272.799 85.56 272.879C81.6478 273.593 77.8262 274.823 74.231 276.526C73.416 276.909 72.5738 277.355 72.0938 278.112C71.6139 278.87 71.6501 280.02 72.4017 280.51" fill="#38303B"/>
<path d="M79.8276 274.448C79.7824 274.413 79.891 274.493 79.8276 274.448C79.8457 274.457 79.8548 274.475 79.8729 274.484C79.9091 274.511 79.9454 274.546 79.9816 274.582C80.054 274.644 80.1174 274.716 80.1808 274.787C80.1899 274.796 80.208 274.832 80.217 274.832C80.1718 274.769 80.1808 274.814 80.217 274.832C80.2442 274.867 80.2714 274.912 80.2985 274.947C80.3529 275.028 80.3982 275.108 80.4434 275.197C80.4615 275.233 80.4797 275.268 80.4978 275.313C80.4978 275.322 80.543 275.411 80.5159 275.349C80.4887 275.286 80.5159 275.358 80.5249 275.366C80.5612 275.456 80.5883 275.545 80.6245 275.634C80.6517 275.723 80.6789 275.821 80.697 275.91C80.7061 275.955 80.7151 275.999 80.7242 276.053C80.7242 276.071 80.7332 276.097 80.7332 276.115C80.7513 276.222 80.7242 276.008 80.7332 276.124C80.7604 276.356 80.9234 276.579 81.186 276.57C81.4034 276.561 81.666 276.374 81.6388 276.124C81.5211 275.161 81.1045 274.27 80.2895 273.69C80.0993 273.557 79.7733 273.655 79.6737 273.851C79.5378 274.065 79.6193 274.297 79.8276 274.448Z" fill="#5A9C17"/>
<path d="M82.9249 273.361C83.0154 273.45 83.0969 273.539 83.1784 273.628C83.2146 273.673 83.2509 273.717 83.2871 273.762C83.3143 273.789 83.3324 273.815 83.3595 273.842C83.3777 273.86 83.3958 273.887 83.3686 273.851C83.5135 274.047 83.6584 274.243 83.7761 274.457C83.8938 274.662 84.0025 274.876 84.1021 275.09C84.1293 275.162 84.0659 274.992 84.1112 275.126C84.1202 275.153 84.1293 275.179 84.1474 275.206C84.1655 275.26 84.1927 275.313 84.2108 275.367C84.2561 275.491 84.2923 275.607 84.3285 275.732C84.3919 275.955 84.6545 276.115 84.89 276.044C85.1254 275.973 85.2794 275.732 85.2069 275.491C84.9081 274.457 84.3466 273.494 83.5769 272.728C83.4139 272.558 83.0969 272.55 82.9339 272.728C82.7528 272.915 82.7437 273.182 82.9249 273.361Z" fill="#5A9C17"/>
<path d="M141.172 280.858C137.641 280.992 134.743 281.099 131.202 281.232C130.124 281.277 128.983 281.304 128.023 280.805C127.498 280.528 126.964 280.091 126.384 280.207C125.931 280.296 125.614 280.698 125.198 280.903C124.836 281.081 124.41 281.09 124.011 281.099C122.78 281.125 121.539 281.152 120.308 281.179C119.9 281.188 119.447 281.179 119.139 280.92C118.777 280.608 118.759 280.065 118.777 279.592C118.868 277.72 119.203 275.857 119.791 274.065C119.927 273.655 120.126 273.209 120.534 273.076C120.914 272.96 121.304 273.174 121.657 273.361C123.061 274.136 124.899 274.689 126.194 273.744C126.529 273.503 126.81 273.165 127.19 273.004C127.616 272.826 128.105 272.906 128.557 272.986C132.47 273.7 136.291 274.93 139.886 276.632C140.701 277.016 141.544 277.462 142.024 278.219C142.504 278.977 142.467 280.127 141.716 280.617" fill="#38303B"/>
<path d="M133.828 273.789C133.022 274.368 132.596 275.26 132.479 276.222C132.451 276.454 132.705 276.677 132.931 276.668C133.203 276.659 133.357 276.472 133.384 276.222C133.393 276.133 133.375 276.294 133.384 276.231C133.384 276.213 133.393 276.187 133.393 276.169C133.402 276.124 133.411 276.08 133.42 276.026C133.439 275.937 133.466 275.839 133.493 275.75C133.52 275.661 133.547 275.572 133.583 275.482C133.592 275.465 133.602 275.447 133.611 275.42C133.602 275.465 133.583 275.482 133.611 275.429C133.629 275.384 133.656 275.34 133.674 275.304C133.719 275.224 133.765 275.144 133.81 275.072C133.837 275.037 133.864 274.992 133.891 274.956C133.891 274.956 133.955 274.867 133.909 274.93C133.873 274.983 133.918 274.921 133.928 274.912C133.991 274.841 134.054 274.769 134.118 274.707C134.154 274.671 134.19 274.644 134.226 274.609C134.244 274.591 134.263 274.582 134.272 274.564C134.353 274.493 134.19 274.618 134.281 274.555C134.471 274.422 134.589 274.163 134.444 273.949C134.317 273.762 134.027 273.637 133.828 273.789Z" fill="#5A9C17"/>
<path d="M130.54 272.843C129.771 273.61 129.209 274.564 128.91 275.607C128.847 275.83 128.992 276.106 129.227 276.16C129.472 276.213 129.716 276.088 129.789 275.848C129.825 275.732 129.861 275.616 129.898 275.5C129.916 275.447 129.934 275.393 129.961 275.34C129.97 275.304 129.988 275.277 129.997 275.242C130.006 275.215 130.024 275.188 129.997 275.233C130.097 275.01 130.205 274.796 130.332 274.582C130.45 274.377 130.586 274.181 130.731 273.993C130.776 273.931 130.667 274.074 130.749 273.967C130.767 273.949 130.785 273.922 130.803 273.904C130.839 273.86 130.876 273.815 130.912 273.771C130.993 273.673 131.084 273.583 131.174 273.485C131.337 273.316 131.356 273.022 131.174 272.852C131.002 272.674 130.722 272.665 130.54 272.843Z" fill="#5A9C17"/>
<path d="M100.874 181.236H102.377L112.719 223.786L118.216 264.428C118.252 264.705 118.487 264.919 118.777 264.927L127.462 265.168C127.887 265.177 128.231 264.829 128.213 264.41L126.167 222.083L118.605 166.518L115.843 153.654L84.5095 153.092L82.0645 170.788L83.6583 224.33L86.3388 264.722C86.366 265.141 86.7282 265.471 87.1539 265.453L94.4258 265.204C94.8423 265.186 95.1774 264.856 95.1865 264.446L96.6263 224.08L100.874 181.236Z" fill="#38303B"/>
<g opacity="0.34">
<g opacity="0.34">
<path opacity="0.34" d="M82.5897 170.627C84.8809 168.434 86.357 165.51 87.0271 162.453C87.1539 161.891 86.2755 161.65 86.1487 162.212C85.5057 165.127 84.1202 167.9 81.9377 169.986C81.5302 170.396 82.1731 171.029 82.5897 170.627Z" fill="#DEDFE0"/>
</g>
</g>
<path opacity="0.42" d="M103.835 156.774C103.826 156.426 103.273 156.417 103.282 156.774C103.346 158.985 103.364 161.196 103.319 163.407C103.301 164.45 103.31 165.519 103.201 166.562C103.11 167.445 102.649 168.595 101.58 168.515C101.507 164.227 101.435 159.93 101.354 155.642C101.344 155.259 100.756 155.294 100.756 155.678C100.846 161.071 100.946 166.464 101.037 171.858C101.046 172.241 101.634 172.205 101.634 171.822C101.616 170.904 101.598 169.986 101.589 169.059C102.522 169.121 103.264 168.381 103.554 167.561C103.726 167.088 103.762 166.571 103.79 166.081C103.817 165.457 103.835 164.842 103.853 164.218C103.916 161.74 103.907 159.252 103.835 156.774Z" fill="#B7B7B7"/>
<g opacity="0.34">
<g opacity="0.34">
<path opacity="0.34" d="M118.27 261.807C121.358 261.923 124.455 261.834 127.543 261.852C128.132 261.852 128.132 260.96 127.543 260.951C124.455 260.933 121.358 261.023 118.27 260.907C117.681 260.889 117.681 261.78 118.27 261.807Z" fill="#DEDFE0"/>
</g>
</g>
<g opacity="0.34">
<g opacity="0.34">
<path opacity="0.34" d="M86.7193 262.645C89.4451 262.61 92.171 262.44 94.8877 262.297C95.4673 262.271 95.4764 261.37 94.8877 261.397C92.1619 261.54 89.4451 261.709 86.7193 261.745C86.1307 261.754 86.1307 262.654 86.7193 262.645Z" fill="#DEDFE0"/>
</g>
</g>
<path d="M112.755 71.0503C112.755 77.9325 107.014 87.1414 99.7417 87.1414C92.4698 87.1414 86.8823 78.1999 86.8823 71.3177C86.8823 64.4356 92.4698 61.2976 99.7417 61.2976C107.014 61.2976 112.755 64.1681 112.755 71.0503Z" fill="#38303B"/>
<path d="M105.873 100.611C104.741 96.5373 103.88 91.3489 103.663 88.6389C103.654 88.5051 103.636 88.3714 103.59 88.2555C103.5 88.0594 103.319 88.0059 103.156 87.9703C101.788 87.7028 100.385 88.0594 99.0172 87.7207C97.9033 87.4443 96.7985 86.7044 95.6937 87.0431C95.585 87.0788 95.4673 87.1323 95.3949 87.2482C95.3043 87.3908 95.2952 87.5958 95.2952 87.7831C95.2771 88.621 95.2862 89.459 95.2952 90.2881C95.3224 92.8377 94.0455 99.5505 94.0727 102.109" fill="#F7B094"/>
<path d="M95.2319 86.4994C95.3044 86.3835 95.4221 86.33 95.5308 86.2944C96.6356 85.9556 97.7404 86.6955 98.8543 86.9719C100.213 87.3106 101.625 86.9451 102.993 87.2215C103.156 87.2571 103.337 87.3106 103.428 87.5068C103.482 87.6226 103.491 87.7564 103.5 87.8901C103.609 89.2362 103.917 90.4486 104.025 91.7858C102.866 92.7308 101.381 93.4796 100.041 93.5688C98.2023 93.6936 96.2915 92.6773 95.1323 90.7428C95.1233 90.3416 95.1232 89.9494 95.1232 89.5482C95.1142 88.7102 95.1051 87.8723 95.1232 87.0432C95.1323 86.8471 95.1414 86.642 95.2319 86.4994Z" fill="#E89C82"/>
<path d="M89.6807 78.503C89.6807 86.134 95.0327 92.3208 99.7961 92.3208C104.559 92.3208 109.912 86.134 109.912 78.503C109.912 70.872 104.559 65.0952 99.7961 65.0952C95.0236 65.0952 89.6807 70.872 89.6807 78.503Z" fill="#F7B094"/>
<path d="M90.233 81.4716C88.9833 81.0972 87.9057 80.0274 87.8061 78.7526C87.7064 77.4778 88.8113 76.1495 90.1063 76.2298" fill="#F7B094"/>
<path d="M109.042 81.4716C110.292 81.0972 111.369 80.0274 111.469 78.7526C111.569 77.4778 110.464 76.1495 109.169 76.2298" fill="#F7B094"/>
<path d="M104.378 76.9073C104.378 77.674 104.722 78.298 105.148 78.298C105.573 78.298 105.917 77.674 105.917 76.9073C105.917 76.1406 105.573 75.5166 105.148 75.5166C104.722 75.5166 104.378 76.1406 104.378 76.9073Z" fill="#38303B"/>
<path d="M94.353 76.9786C94.353 77.7453 94.6971 78.3693 95.1228 78.3693C95.5484 78.3693 95.8925 77.7453 95.8925 76.9786C95.8925 76.2119 95.5484 75.5879 95.1228 75.5879C94.7062 75.5879 94.353 76.2119 94.353 76.9786Z" fill="#38303B"/>
<path d="M103.491 76.0781C104.007 75.8998 104.587 75.8731 105.139 75.8731C105.655 75.8731 106.298 75.8909 106.751 76.087C106.914 76.1583 107.095 76.1316 107.186 75.9711C107.267 75.8374 107.231 75.6056 107.068 75.5432C106.497 75.2936 105.818 75.249 105.202 75.249C104.587 75.2401 103.907 75.2758 103.319 75.4808C103.156 75.5343 103.047 75.6948 103.092 75.8731C103.138 76.0068 103.328 76.1316 103.491 76.0781Z" fill="#38303B"/>
<path d="M96.943 75.463C96.3544 75.2579 95.6752 75.2312 95.0594 75.2312C94.4436 75.2401 93.7644 75.2847 93.1939 75.5254C93.0309 75.5967 92.9946 75.8196 93.0761 75.9533C93.1757 76.1138 93.3569 76.1316 93.5108 76.0692C93.9546 75.8731 94.6066 75.8552 95.1228 75.8552C95.6661 75.8552 96.2457 75.882 96.7709 76.0603C96.9339 76.1138 97.1241 75.9979 97.1694 75.8374C97.2147 75.6769 97.106 75.5254 96.943 75.463Z" fill="#38303B"/>
<path d="M92.0623 74.2952C91.9989 74.3933 92.1076 74.4557 92.1529 74.429C92.2616 74.3755 92.2978 74.2596 92.6057 74.108C93.7105 73.5732 95.1957 73.5464 96.4001 73.9297C96.5903 73.9921 96.871 74.1615 97.0703 74.1972C97.1699 74.215 97.2785 74.1437 97.2785 74.0902C97.2785 74.0278 97.2333 73.9654 97.188 73.9119C96.9887 73.6801 96.6537 73.5286 96.3186 73.4216C95.2228 73.0828 93.9188 73.1542 92.9045 73.6177C92.5242 73.7871 92.2525 73.9921 92.0623 74.2952Z" fill="#38303B"/>
<path d="M107.937 74.2952C108.001 74.3933 107.892 74.4557 107.847 74.429C107.738 74.3755 107.702 74.2596 107.394 74.108C106.289 73.5732 104.804 73.5464 103.6 73.9297C103.409 73.9921 103.129 74.1615 102.929 74.1972C102.83 74.215 102.721 74.1437 102.721 74.0902C102.721 74.0278 102.766 73.9654 102.812 73.9119C103.011 73.6801 103.346 73.5286 103.681 73.4216C104.777 73.0828 106.081 73.1542 107.095 73.6177C107.476 73.7871 107.747 73.9921 107.937 74.2952Z" fill="#38303B"/>
<path d="M99.9134 76.194C100.095 77.6293 100.276 79.0646 100.457 80.4909C100.547 81.1863 100.629 81.8816 100.719 82.5681C100.728 82.6394 100.728 83.0227 100.783 83.0673C101.054 82.8712 101.082 82.782 100.855 82.8087C100.765 82.8087 100.683 82.7998 100.593 82.7998C100.239 82.7909 99.8862 82.782 99.5421 82.7731C98.9625 82.7553 98.9625 83.6467 99.5421 83.6646C99.9406 83.6735 100.33 83.6913 100.728 83.7002C101.054 83.7091 101.417 83.727 101.607 83.406C101.788 83.1029 101.652 82.6839 101.607 82.363C101.553 81.944 101.498 81.5339 101.444 81.1149C101.236 79.4746 101.027 77.8343 100.819 76.194C100.792 75.9533 100.629 75.7483 100.366 75.7483C100.14 75.7483 99.8772 75.9533 99.9134 76.194Z" fill="#E89C82"/>
<path d="M108.571 63.6153C105.039 60.1029 94.4074 60.1831 93.6377 60.2901C93.0581 60.3703 92.4785 60.299 91.908 60.2277C90.0425 59.9959 88.1769 59.7641 86.3024 59.5234C86.1031 59.4967 85.8767 59.4789 85.7047 59.6126C85.4058 59.8444 85.4149 60.3614 85.4964 60.7626C85.8043 62.3405 86.6827 63.7134 87.86 64.4622C86.4292 64.9168 84.9078 64.8277 83.5766 64.2037C83.323 65.5587 83.8392 66.9672 84.6723 67.8498C85.5145 68.7234 86.6284 69.1424 87.7423 69.3385C90.1692 69.7486 92.7502 69.1603 94.9598 67.6893C94.4165 68.2331 94.6157 69.3564 95.1772 69.7932C95.7386 70.2389 96.4812 70.1765 97.1604 70.0428C98.6546 69.7397 100.122 69.1068 101.462 68.1796C101.181 69.1246 101.788 70.1409 102.558 70.3994C103.327 70.6579 104.179 70.3548 104.939 69.9358C106.126 69.2851 107.221 68.3579 108.136 67.2258" fill="#38303B"/>
<path d="M96.672 85.8042C98.0122 87.5604 99.434 88.0953 101.29 87.6318C101.87 87.4891 103.265 86.3659 103.536 85.7151C101.263 86.7581 98.8907 86.8384 96.6357 85.6973" fill="#E66E60"/>
<path d="M96.6717 85.8042C98.1568 86.66 99.959 86.9274 102.35 86.4014C102.893 86.2855 103.436 86.0448 103.708 85.6615C101.435 86.2855 98.7092 86.3034 96.4634 85.6169L96.6717 85.8042Z" fill="white"/>
<path d="M108.227 65.425C106.596 62.5455 99.542 59.3719 99.0077 59.1847C98.6092 59.0509 98.2379 58.837 97.8757 58.623C96.6893 57.9366 95.494 57.2502 94.3076 56.5637C94.1809 56.4924 94.036 56.4122 93.8911 56.43C93.6466 56.4568 93.5469 56.7331 93.5198 56.956C93.402 57.8653 93.7099 58.837 94.3439 59.5858C93.3024 59.3897 92.3153 58.8816 91.5546 58.1506C91.1109 58.7746 91.1743 59.6571 91.5456 60.3614C91.9259 61.0657 92.578 61.6184 93.2843 62.0552C94.8057 63.0002 96.635 63.4816 98.4009 63.3924C97.93 63.5083 97.8394 64.1502 98.1202 64.5424C98.4009 64.9436 98.908 65.1397 99.3789 65.2734C100.429 65.5676 101.525 65.6835 102.603 65.6122C102.222 66.0133 102.422 66.7265 102.884 67.092C103.345 67.4575 103.97 67.5556 104.55 67.5734C105.465 67.6002 106.379 67.4486 107.212 67.1455" fill="#38303B"/>
<path d="M70.2464 115.116C67.747 120.411 66.1441 124.191 64.4959 128.835C63.9526 130.36 63.2552 132.303 63.21 133.997C63.1647 135.691 63.7443 138.187 65.2204 138.74C67.4028 139.551 72.2115 140.05 73.4069 137.634C76.993 130.422 78.3967 127.017 81.5844 120.661" fill="#F7B094"/>
<path d="M127.045 112.789C130.069 117.817 132.351 120.848 134.47 125.305C135.168 126.767 136.427 129.272 136.707 130.939C137.051 133.008 135.53 135.62 134.117 136.306C132.025 137.331 128.765 137.581 127.325 135.299C123.024 128.479 120.552 123.389 116.73 117.389" fill="#F7B094"/>
<path d="M108.553 98.5253C108.462 98.4808 108.362 98.4362 108.272 98.4005C105.383 97.0187 102.132 96.2253 98.6906 96.2253C95.7294 96.2253 92.913 96.8048 90.3411 97.8389C90.3139 97.8478 90.2868 97.8567 90.2596 97.8656C82.6255 100.995 77.2734 108.242 77.2734 116.685H120.108C120.099 108.786 115.417 101.931 108.553 98.5253Z" fill="#F7B094"/>
<path d="M131.799 118.575C131.727 117.63 130.658 115.294 130.341 114.403C128.34 108.813 123.866 104.989 121.784 103.108C121.086 102.564 120.199 101.931 119.936 101.788C119.203 101.245 117.88 100.46 116.785 99.9609C113.624 98.5256 109.784 97.4559 106.144 96.7605L106.198 96.6268C106.108 96.6535 106.017 96.6892 105.936 96.7159C105.782 96.6892 105.619 96.6535 105.465 96.6268C105.157 96.5733 105.166 97.3845 104.876 97.7411C103.128 98.4811 104.668 99.0516 103.699 99.3279C103.192 99.4082 100.529 99.845 100.158 99.8539C99.7868 99.845 98.3107 99.7202 97.7945 99.64C96.8255 99.3636 95.7931 98.588 94.0453 97.8481C93.7555 97.4915 93.6016 96.7338 93.2937 96.7962C93.1397 96.8229 94.2083 96.6981 94.0544 96.7249C93.9638 96.6981 93.8823 96.6625 93.7918 96.6357L89.3 97.5807C85.7954 98.4632 82.4447 99.9609 79.4291 101.985C79.1574 102.172 78.8767 102.368 78.6141 102.573C74.5027 105.542 71.9852 109.526 69.6306 114.412C69.2141 115.267 68.2451 117.639 68.1726 118.584C68.0006 120.768 69.7121 122.524 71.3694 123.986C73.2892 125.689 75.5079 127.071 77.8896 128.042L77.9711 127.962C78.3605 127.481 78.7227 127.338 79.0488 126.848C79.094 127.418 79.1574 127.998 79.2299 128.577C79.8366 137.519 80.7422 146.451 81.9738 155.33C82.1006 156.275 82.3542 157.372 83.2145 157.755C83.6854 157.96 84.2287 157.835 84.7449 157.826C96.4361 157.648 106.09 158.094 116.314 157.523C116.694 157.505 117.074 157.345 117.364 157.086C117.745 156.739 118.116 158.343 118.17 157.835C119.565 145.586 119.99 138.089 120.706 128.898C120.796 128.203 120.869 127.525 120.932 126.848C121.267 127.347 121.63 127.49 122.01 127.962L122.091 128.042C124.482 127.062 126.692 125.689 128.612 123.986C130.26 122.506 131.971 120.759 131.799 118.575Z" fill="#F2E2C8"/>
<path d="M66.5332 117.826C68.6432 122.97 73.1621 126.509 77.9345 129.183C79.1027 129.843 80.1532 128.06 78.985 127.409C74.7469 125.029 70.4363 121.882 68.5436 117.282C68.3353 116.765 67.8463 116.409 67.2576 116.56C66.7686 116.694 66.3249 117.309 66.5332 117.826Z" fill="#5A9C17"/>
<path d="M122.083 129.067C126.611 126.66 131.338 123.808 133.457 118.958C133.683 118.45 133.611 117.853 133.086 117.55C132.642 117.3 131.881 117.407 131.655 117.915C129.672 122.471 125.27 125.029 121.032 127.284C119.846 127.917 120.896 129.691 122.083 129.067Z" fill="#5A9C17"/>
<path d="M91.9804 96.7871C91.6182 99.203 96.2639 101.093 99.0621 101.316C102.186 101.565 105.646 100.193 106.941 97.215C107.158 96.7069 107.095 96.1096 106.569 95.8065C106.126 95.5569 105.365 95.6638 105.139 96.172C104.251 98.2135 102.15 99.2565 99.9587 99.2832C98.6546 99.3011 97.3778 99.0158 96.1552 98.579C95.5485 98.3561 94.1991 97.7677 93.9908 96.7782C93.8822 96.2701 93.9908 95.8511 93.4656 95.548C93.0219 95.2894 92.4876 95.3964 92.2612 95.9046L91.9804 96.7871Z" fill="#5A9C17"/>
<path d="M79.2847 127.837C79.1669 122.952 79.2031 118.058 79.3935 113.172C79.4479 111.8 79.5204 110.418 79.5929 109.045C79.611 108.697 79.0672 108.697 79.0491 109.045C78.7681 113.93 78.6412 118.815 78.6774 123.71C78.6865 125.091 78.7046 126.464 78.7409 127.846C78.75 128.176 79.2938 128.185 79.2847 127.837Z" fill="#5A9C17"/>
<path d="M79.8451 106.878C80.1168 105.203 80.5333 103.553 81.1039 101.949C81.2216 101.619 80.6964 101.485 80.5786 101.806C80.0081 103.411 79.5825 105.06 79.3199 106.736C79.2655 107.075 79.7908 107.226 79.8451 106.878Z" fill="#5A9C17"/>
<path d="M121.358 127.65C121.041 122.872 120.579 118.111 119.981 113.36C119.809 112.013 119.628 110.676 119.438 109.339C119.392 109 118.867 109.143 118.912 109.482C119.583 114.171 120.117 118.887 120.506 123.611C120.615 124.958 120.724 126.304 120.814 127.659C120.832 127.997 121.385 127.997 121.358 127.65Z" fill="#5A9C17"/>
<path d="M119.112 106.121C118.949 104.338 118.523 102.582 117.853 100.915C117.726 100.594 117.201 100.736 117.328 101.057C117.989 102.68 118.405 104.383 118.568 106.121C118.605 106.46 119.148 106.46 119.112 106.121Z" fill="#5A9C17"/>
<path d="M118.388 155.642H81.7656V159.662H118.388V155.642Z" fill="#F2E2C8"/>
<path d="M103.998 149.072L96.0466 149.179C95.0595 149.188 94.2535 148.412 94.2354 147.449L93.9547 126.339C93.9456 125.368 94.7335 124.574 95.7115 124.556L103.663 124.449C104.65 124.44 105.456 125.216 105.474 126.179L105.755 147.289C105.773 148.261 104.985 149.063 103.998 149.072Z" fill="#5A9C17"/>
<g opacity="0.52">
<path opacity="0.52" d="M101.099 128.844C100.728 129.37 100.003 129.495 99.4691 129.13C98.9348 128.764 98.808 128.051 99.1793 127.525C99.5506 126.999 100.275 126.874 100.809 127.24C101.335 127.605 101.461 128.318 101.099 128.844Z" fill="white"/>
<path opacity="0.54" d="M100.828 128.657C100.565 129.031 100.04 129.13 99.6507 128.862C99.2704 128.604 99.1707 128.086 99.4424 127.703C99.705 127.329 100.23 127.231 100.62 127.498C101 127.766 101.091 128.283 100.828 128.657Z" fill="#DEDFE0"/>
</g>
<path d="M136.164 128.925C138.862 136.725 131.817 142.323 125.297 143.794C119.22 145.158 114.737 145.934 107.828 146.424C106.587 146.513 104.794 146.888 103.97 145.943C103.164 145.007 104.169 144.472 104.377 143.295C104.45 142.849 105.22 142.306 107.33 141.726C115.181 139.56 120.959 136.297 128.394 132.223" fill="#F7B094"/>
<path d="M63.4546 135.949C63.4002 138.365 68.1998 142.003 74.6658 143.714C80.6789 145.31 85.3879 146.175 92.2704 146.915C93.5111 147.048 95.0325 147.574 95.8837 146.656C96.7259 145.747 95.7388 145.176 95.5849 143.999C95.5215 143.554 95.0868 143.393 92.9949 142.734C85.234 140.273 78.9673 136.431 71.4781 132.901L69.6035 136.137L68.7251 136.93L63.4546 135.949Z" fill="#F7B094"/>
<path d="M110.97 145.372C110.617 145.506 110.01 145.141 109.395 144.73C109.703 144.463 109.992 144.196 110.255 143.919L110.318 142.047C109.295 141.557 108.226 141.245 107.176 140.861C106.886 140.746 106.605 140.639 106.343 140.541C106.234 140.496 106.134 140.451 106.026 140.407L106.017 140.416C104.74 139.925 103.644 139.515 102.059 138.9C101.751 138.784 101.425 138.66 101.081 138.695C100.737 138.731 100.402 138.927 100.33 139.275C100.266 139.596 100.782 139.988 101.108 140.22C101.797 140.701 102.277 140.995 102.974 141.477C103.753 142.011 104.115 142.368 103.852 142.742L103.843 142.734C103.4 143.259 96.4628 143.063 95.9104 143.251C95.5934 143.358 95.3489 143.429 95.4757 143.794C95.7293 144.516 97.5586 144.169 98.4098 144.347C99.578 144.597 100.384 144.766 101.498 144.864C101.616 144.873 101.724 144.873 101.733 144.9C101.724 144.927 101.489 145.007 101.353 145.016C98.8264 145.239 96.4266 145.328 93.8638 145.274C93.5468 145.265 93.3747 145.613 93.574 145.872C94.0539 146.496 95.3036 146.799 96.1187 146.923C97.6853 147.164 99.3516 147.209 101 147.12C98.7449 147.735 95.8923 147.512 95.9376 148.082C96.173 148.368 96.5171 148.573 96.9518 148.626C97.6038 148.804 99.0437 148.849 100.792 148.733L100.257 148.894C100.04 148.956 99.8044 149.054 99.6957 149.25C99.5599 149.482 99.7048 149.642 99.8859 149.687C101.018 149.972 106.777 149.339 109.413 147.218C109.576 147.084 109.947 146.692 110.282 146.291C110.59 146.077 110.825 145.747 110.97 145.372Z" fill="#F7B094"/>
<g opacity="0.55">
<g opacity="0.55">
<path opacity="0.55" d="M99.7318 149.42C100.058 149.42 101.498 149.384 101.96 149.304C102.747 149.179 102.956 149.17 103.698 148.885C104.124 148.724 104.305 148.448 104.287 148.171C104.26 147.779 103.707 147.681 103.445 147.574C104.595 147.387 105.347 147.191 106.026 146.442C106.234 146.21 106.279 145.871 106.288 145.675C106.288 145.176 105.401 144.927 104.903 144.846C104.359 144.757 103.798 144.704 103.001 144.686C103.499 144.472 104.033 144.24 104.477 143.946C104.83 143.714 105.111 143.58 105.202 143.277C105.274 143.046 105.347 142.84 105.174 142.582C105.075 142.421 104.876 142.261 104.568 142.234C104.042 142.181 104.423 142.234 103.934 142.19C104.024 142.421 104.033 142.555 103.861 142.787L103.019 142.992C102.612 143.473 97.8211 143.349 96.354 143.34C96.2544 143.661 95.7382 143.099 95.9012 143.411C95.9827 143.563 96.0733 143.696 96.1819 143.83C96.7615 144.071 97.4226 144.24 97.8573 144.338C99.0255 144.588 99.8315 144.757 100.945 144.855C101.063 144.864 101.797 144.918 101.797 144.935C101.788 144.962 100.782 145.06 100.646 145.078C99.4511 145.185 98.4278 145.185 97.2596 145.23C97.5856 145.818 97.7939 146.469 97.8482 147.137C98.7085 147.173 99.587 147.164 100.447 147.12C99.6051 147.351 98.6904 147.458 97.8663 147.539C97.8663 147.958 97.8301 148.377 97.8211 148.796C98.5002 148.822 99.3243 148.804 100.239 148.742L99.7047 148.902C99.4873 148.974 99.6141 149.42 99.7318 149.42Z" fill="#E89C82"/>
</g>
</g>
<path d="M93.8547 146.888C93.0396 146.825 92.2427 146.763 91.4367 146.656C90.9024 146.585 91.5273 144.338 90.9749 144.213C90.2776 144.062 88.403 146.023 87.6514 145.738C87.8234 146.184 88.1132 146.576 88.5207 146.834C91.8986 149.001 100.112 149.544 101.751 148.992" fill="#F7B094"/>
<path d="M88.3042 142.413C89.6988 141.735 91.184 141.405 92.5967 140.781C93.7287 141.655 92.9227 142.02 94.0547 142.894C94.1724 142.983 95.3678 143.509 95.4221 143.652C95.5036 143.866 96.0017 145.087 95.9293 145.337C95.5127 146.736 95.8568 146.968 96.5088 148.1C93.4027 147.993 90.2693 146.299 88.3585 144.285" fill="#F7B094"/>
<path d="M90.6855 141.53C92.9948 140.63 94.2536 140.175 96.5628 139.275C96.8707 139.159 97.1967 139.034 97.5409 139.07C97.885 139.105 98.2201 139.301 98.2925 139.649C98.3559 139.97 97.8397 140.362 97.5137 140.594C96.8254 141.075 96.3455 141.37 95.6482 141.851C94.7154 142.493 94.3713 142.876 94.9962 143.34" fill="#F7B094"/>
<path d="M96.427 147.075C98.7001 148.243 102.721 147.797 102.667 148.484C102.431 148.769 102.087 148.974 101.652 149.027C98.0209 149.491 92.3971 147.03 88.4307 145.943" fill="#F7B094"/>
<path d="M92.27 145.212L94.7785 143.117C95.2222 143.643 102.041 142.618 102.594 142.814C102.911 142.921 103.155 142.992 103.028 143.357C102.775 144.08 101.063 144.552 100.212 144.739C99.0438 144.989 98.2379 145.158 97.124 145.256C97.0063 145.265 96.8976 145.265 96.8885 145.292C96.8976 145.319 97.133 145.399 97.2689 145.408C99.7955 145.631 102.195 145.72 104.758 145.666C105.075 145.657 105.247 146.005 105.048 146.264C104.568 146.888 103.318 147.191 102.503 147.316C99.7774 147.735 96.7165 147.574 94.0721 147.137L94.4706 145.363C93.728 145.336 93.0035 145.292 92.27 145.212Z" fill="#F7B094"/>
<path d="M98.7271 150.097C97.5951 150.382 91.8355 149.749 89.2003 147.628C88.8924 147.378 87.8147 146.183 87.7061 145.791C88.3128 146.094 89.9972 144.873 90.5587 145.06C91.0024 145.203 90.3323 147.075 90.767 147.173C91.419 147.324 92.0801 147.449 92.7411 147.565L98.3377 149.304C98.555 149.366 98.7905 149.464 98.8991 149.66C99.044 149.892 98.9082 150.052 98.7271 150.097Z" fill="#F7B094"/>
</svg>
