<svg width="60" height="48" viewBox="0 0 60 48" fill="none" xmlns="http://www.w3.org/2000/svg">
<path fill-rule="evenodd" clip-rule="evenodd" d="M47.8224 44.8865V36.8836C54.6186 36.4603 60 30.814 60 23.9112C60 17.0084 54.6186 11.3621 47.8224 10.9388V2.93588C47.8224 1.31947 46.5029 0 44.8865 0H19.0011H2.93588C1.31947 0 0 1.31947 0 2.93588V44.8865C0 46.5029 1.31947 47.8224 2.93588 47.8224H44.8865C46.5029 47.8224 47.8224 46.5029 47.8224 44.8865ZM29.6417 1.64066H44.8865C45.5973 1.64066 46.1817 2.22511 46.1817 2.93588V10.9388C39.3856 11.3621 34.0042 17.0084 34.0042 23.9112C34.0042 30.814 39.3856 36.4603 46.1817 36.8836V44.8865C46.1817 45.5973 45.5973 46.1817 44.8865 46.1817H2.93588C2.22511 46.1817 1.64066 45.5973 1.64066 44.8865V2.93588C1.64066 2.22511 2.22511 1.64066 2.93588 1.64066H18.1808L18.1809 19.6646C18.1805 20.3473 18.9898 20.743 19.5271 20.2941L23.9953 16.5592C24.1244 16.6712 24.3496 16.8759 24.6349 17.1353C25.8932 18.279 28.32 20.4849 28.8213 20.4849C29.2744 20.4849 29.6417 20.1177 29.6417 19.6646V1.64066ZM35.6449 23.9112C35.6449 17.6387 40.7295 12.554 47.0021 12.554C53.2747 12.554 58.3593 17.6386 58.3593 23.9112C58.3593 30.1829 53.2761 35.267 47.0047 35.2684L47.002 35.2684L46.9986 35.2684C40.7277 35.2665 35.6449 30.1826 35.6449 23.9112ZM56.9086 23.9113C56.9086 18.4403 52.4731 14.0048 47.0021 14.0048C41.5311 14.0048 37.0956 18.4403 37.0956 23.9113C37.0956 29.3823 41.5311 33.8178 47.0021 33.8178C52.4731 33.8178 56.9086 29.3823 56.9086 23.9113ZM38.7363 23.9113C38.7363 19.346 42.4368 15.6454 47.0021 15.6454C51.5673 15.6454 55.2679 19.346 55.2679 23.9113C55.2679 28.4765 51.5673 32.1771 47.0021 32.1771C42.4368 32.1771 38.7363 28.4765 38.7363 23.9113ZM8.05574 35.2585C7.6027 35.2585 7.23541 35.6258 7.23541 36.0788C7.23541 36.5318 7.6027 36.8991 8.05574 36.8991H18.8049C18.8616 36.8991 18.9168 36.8934 18.9702 36.8825C19.344 36.806 19.6253 36.4752 19.6253 36.0788C19.6253 35.6258 19.258 35.2585 18.8049 35.2585H8.05574ZM7.27478 41.717C7.27478 41.264 7.64207 40.8967 8.09511 40.8967H18.8443C19.2973 40.8967 19.6646 41.264 19.6646 41.717C19.6646 42.17 19.2973 42.5373 18.8443 42.5373H8.09511C7.64207 42.5373 7.27478 42.17 7.27478 41.717ZM31.8134 40.8967C31.3603 40.8967 30.9931 41.264 30.9931 41.717C30.9931 42.17 31.3603 42.5373 31.8134 42.5373H39.7666C40.2196 42.5373 40.5869 42.17 40.5869 41.717C40.5869 41.264 40.2196 40.8967 39.7666 40.8967H31.8134ZM47.002 20.8276C47.455 20.8276 47.8223 21.1949 47.8223 21.6479V30.28C47.8223 30.733 47.455 31.1003 47.002 31.1003C46.549 31.1003 46.1817 30.733 46.1817 30.28V21.6479C46.1817 21.1949 46.549 20.8276 47.002 20.8276ZM47.0021 17.5424C47.5448 17.5424 47.9847 17.9823 47.9847 18.525C47.9847 19.0677 47.5448 19.5075 47.0021 19.5075C46.4594 19.5075 46.0196 19.0677 46.0196 18.525C46.0196 17.9823 46.4594 17.5424 47.0021 17.5424ZM19.8214 17.9121V1.64067L28.001 1.64063V17.8699L24.5421 14.8648C24.2209 14.586 23.7447 14.6013 23.4419 14.8872L19.8214 17.9121Z" fill="#2F4858"/>
</svg>
