<svg width="48" height="48" viewBox="0 0 48 48" fill="none" xmlns="http://www.w3.org/2000/svg">
<path fill-rule="evenodd" clip-rule="evenodd" d="M45.3493 39.7772C50.3483 31.6739 47.8488 21.0307 39.7455 16.0316C38.0119 14.9834 36.1171 14.2175 34.1417 13.8143C32.2469 4.46121 23.1357 -1.54574 13.7826 0.34907C4.42947 2.24388 -1.53716 11.4357 0.357648 20.7485C0.760799 22.7239 1.52678 24.6187 2.57498 26.3523L0.0351278 33.609C-0.0858174 33.9718 0.115758 34.375 0.478593 34.4959C0.639854 34.5362 0.801114 34.5362 0.962374 34.4959L8.21908 31.9561C9.95263 33.0043 11.8474 33.7703 13.8229 34.1734C15.758 43.5265 24.8692 49.4931 34.2223 47.5983C36.1977 47.1952 38.0925 46.4292 39.8261 45.381L47.0828 47.9208C47.4456 48.0418 47.8488 47.8402 47.9697 47.4774C48.01 47.3161 48.01 47.1549 47.9697 46.9936L45.3493 39.7772ZM8.29972 30.4644C8.21908 30.4644 8.13845 30.4644 8.05782 30.5047L1.88962 32.6817L4.06663 26.5135C4.14726 26.312 4.10695 26.0701 3.986 25.9088C-0.771174 18.5312 1.32521 8.69429 8.66255 3.93711C15.9999 -0.820067 25.8368 1.31663 30.5939 8.65397C35.3511 15.9913 33.2547 25.8282 25.8771 30.5854C20.6361 33.9718 13.9035 33.9718 8.66255 30.5854C8.5416 30.5047 8.42066 30.4644 8.29972 30.4644ZM39.9067 43.8893C39.7051 43.8087 39.4633 43.849 39.302 43.97C31.9647 48.7271 22.1278 46.6308 17.4109 39.2934C16.4434 37.8018 15.7177 36.1488 15.3145 34.4153C24.7079 35.5441 33.2547 28.8115 34.4239 19.3778C34.5045 18.6924 34.5448 17.9668 34.5448 17.2411C34.5448 16.5557 34.5045 15.9107 34.4239 15.2656C42.9304 17.3217 48.1713 25.8685 46.1152 34.375C45.7121 36.1085 44.9864 37.7614 44.0189 39.2531C43.8979 39.4547 43.8576 39.6563 43.9382 39.8578L46.1152 46.026L39.9067 43.8893ZM10.8799 19.8615H8.25945V17.241V13.9351C8.25945 13.532 7.93693 13.2095 7.53378 13.2095C7.13063 13.2095 6.80811 13.532 6.80811 13.9351V17.241V20.5468C6.80811 20.95 7.13063 21.2725 7.53378 21.2725H10.8396C11.2428 21.2725 11.5653 20.95 11.5653 20.5468C11.5653 20.1437 11.2428 19.8615 10.8799 19.8615ZM12.9761 13.9757C12.9761 13.5725 13.2986 13.25 13.7017 13.25C14.1049 13.25 14.3871 13.5725 14.4274 13.9757V17.2815V20.5873C14.4274 20.9905 14.1049 21.313 13.7017 21.313C13.2986 21.313 12.9761 20.9905 12.9761 20.5873V17.2815V13.9757ZM21.0796 13.29C20.7167 13.1691 20.3136 13.3707 20.1926 13.7335L18.701 18.3294L17.2093 13.7335C17.0884 13.3707 16.6852 13.1691 16.3224 13.29C15.9595 13.411 15.758 13.8141 15.8789 14.177L18.0559 20.7886C18.1366 21.0709 18.4188 21.2724 18.7413 21.2724C19.0638 21.2724 19.3057 21.0709 19.4266 20.7886L21.6036 14.177C21.644 13.8141 21.4424 13.411 21.0796 13.29ZM27.7318 17.2413C27.7318 17.6444 27.4093 17.9669 27.0061 17.9669V17.8863H24.3856V19.7811H27.0061C27.4093 19.7811 27.7318 20.1036 27.7318 20.5068C27.7318 20.9099 27.4093 21.2324 27.0061 21.2324H23.7003C23.2971 21.2324 22.9746 20.9099 22.9746 20.5068V17.2009V13.8951C22.9746 13.492 23.2971 13.1694 23.7003 13.1694H27.0061C27.4093 13.1694 27.7318 13.492 27.7318 13.8951C27.7318 14.2983 27.4093 14.6208 27.0061 14.6208H24.3856V16.5156H27.0061C27.4093 16.5156 27.7318 16.8381 27.7318 17.2413Z" fill="#5A9C17"/>
</svg>
