<svg width="24" height="25" viewBox="0 0 24 25" fill="none" xmlns="http://www.w3.org/2000/svg">
<path fill-rule="evenodd" clip-rule="evenodd" d="M8.5 7.20514C8.5 5.19367 10.0805 3.58789 12 3.58789C13.9195 3.58789 15.5 5.19367 15.5 7.20514C15.5 9.21661 13.9195 10.8224 12 10.8224C10.0805 10.8224 8.5 9.21661 8.5 7.20514ZM12 2.58789C9.5012 2.58789 7.5 4.66882 7.5 7.20514C7.5 9.74146 9.5012 11.8224 12 11.8224C14.4988 11.8224 16.5 9.74146 16.5 7.20514C16.5 4.66882 14.4988 2.58789 12 2.58789ZM8 14.9396C6.80179 14.9396 5.65568 15.4297 4.81295 16.2971C3.9707 17.1641 3.5 18.3369 3.5 19.5569V21.6155C3.5 21.8917 3.72386 22.1155 4 22.1155C4.27614 22.1155 4.5 21.8917 4.5 21.6155V19.5569C4.5 18.5929 4.87215 17.6713 5.5302 16.994C6.18776 16.3171 7.07648 15.9396 8 15.9396H16C16.9235 15.9396 17.8122 16.3171 18.4698 16.994C19.1278 17.6713 19.5 18.5929 19.5 19.5569V21.6155C19.5 21.8917 19.7239 22.1155 20 22.1155C20.2761 22.1155 20.5 21.8917 20.5 21.6155V19.5569C20.5 18.3369 20.0293 17.1641 19.187 16.2971C18.3443 15.4297 17.1982 14.9396 16 14.9396H8Z" fill="#0F0F0F"/>
</svg>
