<svg width="42" height="15" viewBox="0 0 42 15" fill="none" xmlns="http://www.w3.org/2000/svg">
<path d="M17.9347 14.4341H14.5589L16.6687 0.968636H20.0449L17.9347 14.4341ZM11.719 0.968636L8.50067 10.2303L8.11985 8.23589L8.12019 8.23661L6.98429 2.18105C6.98429 2.18105 6.84695 0.968636 5.38294 0.968636H0.0624311L0 1.19664C0 1.19664 1.62702 1.54819 3.53117 2.73574L6.46404 14.4345H9.98133L15.3521 0.968636H11.719ZM38.2712 14.4341H41.3709L38.6684 0.968276H35.9547C34.7016 0.968276 34.3964 1.97177 34.3964 1.97177L29.3616 14.4341H32.8807L33.5844 12.4339H37.8758L38.2712 14.4341ZM34.5566 9.6709L36.3303 4.6318L37.3282 9.6709H34.5566ZM29.6256 4.20677L30.1073 1.31514C30.1073 1.31514 28.6208 0.728027 27.0711 0.728027C25.3959 0.728027 21.4176 1.48839 21.4176 5.18578C21.4176 8.66452 26.0868 8.70775 26.0868 10.535C26.0868 12.3623 21.8987 12.0348 20.5166 10.8826L20.0147 13.9061C20.0147 13.9061 21.522 14.6664 23.8251 14.6664C26.1288 14.6664 29.6041 13.4277 29.6041 10.0563C29.6041 6.55523 24.893 6.22926 24.893 4.70708C24.8933 3.18454 28.181 3.38013 29.6256 4.20677Z" fill="#0F0F0F"/>
</svg>
